<svg xmlns="http://www.w3.org/2000/svg" xmlns:xlink="http://www.w3.org/1999/xlink" width="1366" height="716.774" viewBox="0 0 1366 716.774"><defs><style>.a,.h,.m{fill:none;}.b{clip-path:url(#a);}.c,.f,.g,.m{opacity:0.1;}.d{fill:#3f3d56;}.e,.g{fill:#6c63ff;}.h{stroke:#3f3d56;stroke-width:4px;}.h,.m{stroke-miterlimit:10;}.i{fill:#6393f4;}.j{fill:url(#b);}.k{fill:#be6f72;}.l{fill:#ff6f61;}.m{stroke:#000;}.n{fill:url(#c);}.o{fill:#2f2e41;}.p{fill:#fbbebe;}.q{fill:#e8e8f0;}.r{fill:#f86d70;}</style><clipPath id="a"><rect class="a" width="1366" height="716.775"/></clipPath><linearGradient id="b" x1="0.5" y1="1" x2="0.5" gradientUnits="objectBoundingBox"><stop offset="0" stop-color="gray" stop-opacity="0.251"/><stop offset="0.54" stop-color="gray" stop-opacity="0.122"/><stop offset="1" stop-color="gray" stop-opacity="0.102"/></linearGradient><linearGradient id="c" x1="0.5" y1="1" x2="0.5" y2="-0.001" xlink:href="#b"/></defs><g transform="translate(0 0)"><g class="b"><g class="c" transform="translate(529.885 49.854)"><ellipse class="d" cx="14.183" cy="18.571" rx="14.183" ry="18.571" transform="translate(53.457 383.351)"/><path class="d" d="M545.463,466.915a22.434,22.434,0,0,0,2.966-11.354c0-10.258-6.356-18.571-14.2-18.571S520,445.328,520,455.586a22.435,22.435,0,0,0,2.966,11.354,23.194,23.194,0,0,0,0,22.7,23.194,23.194,0,0,0,0,22.7A22.358,22.358,0,0,0,520,523.686c0,10.245,6.356,18.571,14.183,18.571s14.2-8.326,14.2-18.571a22.36,22.36,0,0,0-2.966-11.354,23.2,23.2,0,0,0,0-22.7,23.2,23.2,0,0,0,0-22.7Z" transform="translate(-466.593 -144.448)"/><ellipse class="d" cx="14.183" cy="18.571" rx="14.183" ry="18.571" transform="translate(53.457 269.871)"/><ellipse class="d" cx="14.183" cy="18.571" rx="14.183" ry="18.571" transform="translate(53.457 247.175)"/><path class="e" d="M491.7,312.684a66.162,66.162,0,0,1-5.284-7.777l37.266-6.12-40.307.3a68.076,68.076,0,0,1-1.246-53.842L536.2,273.3l-49.854-36.668A67.964,67.964,0,1,1,598.52,312.659a67.975,67.975,0,0,1,7.752,12.389l-48.4,25.2,51.586-17.312a67.963,67.963,0,0,1-10.955,63.813,67.951,67.951,0,1,1-106.812,0,67.951,67.951,0,0,1,0-84.029Z" transform="translate(-477.149 -202.271)"/><path class="f" d="M613.052,324.768a67.639,67.639,0,0,1-14.545,42.014,67.951,67.951,0,1,1-106.812,0C482.584,355.216,613.052,317.14,613.052,324.768Z" transform="translate(-477.149 -172.341)"/></g><g class="c" transform="translate(712.564 111.962)"><ellipse class="d" cx="10.606" cy="13.872" rx="10.606" ry="13.872" transform="translate(39.945 286.233)"/><path class="d" d="M674.755,449.68a16.738,16.738,0,0,0,2.206-8.475c0-7.665-4.749-13.884-10.594-13.884S655.76,433.552,655.76,441.2a16.614,16.614,0,0,0,2.219,8.475,17.324,17.324,0,0,0,0,16.963,17.324,17.324,0,0,0,0,16.963,16.614,16.614,0,0,0-2.219,8.475c0,7.665,4.749,13.884,10.606,13.884s10.594-6.232,10.594-13.884a16.738,16.738,0,0,0-2.206-8.475,17.449,17.449,0,0,0,0-16.963,17.449,17.449,0,0,0,0-16.963Z" transform="translate(-615.827 -208.938)"/><ellipse class="d" cx="10.606" cy="13.872" rx="10.606" ry="13.872" transform="translate(39.945 201.431)"/><ellipse class="d" cx="10.606" cy="13.872" rx="10.606" ry="13.872" transform="translate(39.945 184.468)"/><path class="e" d="M634.588,334.371a48.612,48.612,0,0,1-3.951-5.808l27.856-4.574-30.124.224a50.9,50.9,0,0,1-.972-40.245l40.419,20.976-37.278-27.42A50.789,50.789,0,1,1,714.4,334.358a51.356,51.356,0,0,1,5.8,9.26L684.056,362.4l38.55-12.937a50.8,50.8,0,0,1-8.188,47.685,50.776,50.776,0,1,1-79.767,0,50.776,50.776,0,0,1,0-62.791Z" transform="translate(-623.72 -252.103)"/><path class="f" d="M725.268,343.448a50.563,50.563,0,0,1-10.868,31.4,50.776,50.776,0,1,1-79.766,0C627.8,366.206,725.268,337.752,725.268,343.448Z" transform="translate(-623.716 -229.784)"/></g><g class="c" transform="translate(1225.837)"><ellipse class="d" cx="14.183" cy="18.571" rx="14.183" ry="18.571" transform="translate(54.414 383.351)"/><path class="d" d="M1082.156,426.915a22.434,22.434,0,0,1-2.966-11.354c0-10.257,6.356-18.571,14.2-18.571s14.183,8.313,14.183,18.571a22.433,22.433,0,0,1-2.966,11.354,23.2,23.2,0,0,1,0,22.7,23.2,23.2,0,0,1,0,22.7,22.357,22.357,0,0,1,2.966,11.354c0,10.245-6.356,18.571-14.183,18.571s-14.2-8.326-14.2-18.571a22.358,22.358,0,0,1,2.966-11.354,23.194,23.194,0,0,1,0-22.7A23.194,23.194,0,0,1,1082.156,426.915Z" transform="translate(-1024.788 -104.448)"/><ellipse class="d" cx="14.183" cy="18.571" rx="14.183" ry="18.571" transform="translate(54.414 269.871)"/><ellipse class="d" cx="14.183" cy="18.571" rx="14.183" ry="18.571" transform="translate(54.414 247.175)"/><path class="e" d="M1157.233,272.684a66.144,66.144,0,0,0,5.285-7.777l-37.266-6.12,40.307.3a68.076,68.076,0,0,0,1.246-53.842L1112.726,233.3l49.854-36.668a67.964,67.964,0,1,0-112.172,76.027,67.988,67.988,0,0,0-7.752,12.389l48.4,25.2-51.586-17.312a67.963,67.963,0,0,0,10.955,63.813,67.951,67.951,0,1,0,106.812,0,67.951,67.951,0,0,0,0-84.029Z" transform="translate(-1035.541 -162.271)"/><path class="f" d="M1035.81,284.768a67.64,67.64,0,0,0,14.545,42.014,67.951,67.951,0,1,0,106.812,0C1166.278,315.216,1035.81,277.14,1035.81,284.768Z" transform="translate(-1035.475 -132.341)"/></g><g class="c" transform="translate(1106.456 104.484)"><ellipse class="d" cx="10.606" cy="13.872" rx="10.606" ry="13.872" transform="translate(40.448 286.233)"/><path class="d" d="M974.436,443.68a16.741,16.741,0,0,1-2.206-8.475c0-7.665,4.749-13.884,10.594-13.884s10.606,6.232,10.606,13.884a16.612,16.612,0,0,1-2.218,8.475,17.324,17.324,0,0,1,0,16.963,17.324,17.324,0,0,1,0,16.963,16.613,16.613,0,0,1,2.219,8.475c0,7.665-4.749,13.884-10.607,13.884s-10.594-6.232-10.594-13.884a16.74,16.74,0,0,1,2.206-8.475,17.449,17.449,0,0,1,0-16.963,17.449,17.449,0,0,1,0-16.963Z" transform="translate(-931.757 -202.938)"/><ellipse class="d" cx="10.606" cy="13.872" rx="10.606" ry="13.872" transform="translate(40.448 201.431)"/><ellipse class="d" cx="10.606" cy="13.872" rx="10.606" ry="13.872" transform="translate(40.448 184.469)"/><path class="e" d="M1030.5,328.371a48.607,48.607,0,0,0,3.951-5.808l-27.856-4.574,30.124.224a50.9,50.9,0,0,0,.972-40.245l-40.419,20.976,37.278-27.42a50.789,50.789,0,1,0-83.867,56.834,51.349,51.349,0,0,0-5.8,9.26L981.027,356.4l-38.475-12.925a50.8,50.8,0,0,0,8.188,47.685,50.776,50.776,0,1,0,79.766,0,50.776,50.776,0,0,0,0-62.791Z" transform="translate(-939.756 -246.103)"/><path class="f" d="M939.8,337.448a50.566,50.566,0,0,0,10.868,31.4,50.776,50.776,0,1,0,79.766,0C1037.27,360.206,939.8,331.752,939.8,337.448Z" transform="translate(-939.751 -223.784)"/></g><g class="c" transform="translate(9.11 0.209)"><ellipse class="d" cx="14.183" cy="18.571" rx="14.183" ry="18.571" transform="translate(53.469 383.142)"/><path class="d" d="M127.611,426.915a22.434,22.434,0,0,0,2.966-11.354c0-10.257-6.356-18.571-14.183-18.571S102.21,405.3,102.21,415.561a22.435,22.435,0,0,0,2.954,11.354,23.269,23.269,0,0,0,0,22.7,23.269,23.269,0,0,0,0,22.7,22.347,22.347,0,0,0-2.954,11.354c0,10.245,6.344,18.571,14.183,18.571s14.221-8.3,14.221-18.546a22.36,22.36,0,0,0-2.966-11.354,23.2,23.2,0,0,0,0-22.7,23.2,23.2,0,0,0,0-22.7Z" transform="translate(-48.741 -104.657)"/><ellipse class="d" cx="14.183" cy="18.571" rx="14.183" ry="18.571" transform="translate(53.469 269.662)"/><ellipse class="d" cx="14.183" cy="18.571" rx="14.183" ry="18.571" transform="translate(53.469 246.966)"/><path class="e" d="M73.88,272.643a67.711,67.711,0,0,1-5.285-7.777l37.278-6.12-40.344.361a68.076,68.076,0,0,1-1.246-53.842l54.092,28.055L68.521,196.653A67.951,67.951,0,1,1,180.692,272.68a67.976,67.976,0,0,1,7.752,12.389l-48.408,25.139,51.6-17.312a68.038,68.038,0,0,1-10.968,63.813,67.951,67.951,0,1,1-106.812,0,67.951,67.951,0,0,1,0-84.029Z" transform="translate(-59.309 -162.439)"/><path class="f" d="M195.212,284.768a67.639,67.639,0,0,1-14.545,42.014,67.951,67.951,0,1,1-106.812,0C64.744,315.216,195.212,277.14,195.212,284.768Z" transform="translate(-59.309 -132.55)"/></g><g class="c" transform="translate(163.123 104.484)"><ellipse class="d" cx="10.606" cy="13.872" rx="10.606" ry="13.872" transform="translate(39.945 286.233)"/><path class="d" d="M233.924,443.68a16.738,16.738,0,0,0,2.206-8.475c0-7.665-4.736-13.884-10.594-13.884S214.93,427.552,214.93,435.2a16.738,16.738,0,0,0,2.218,8.475,17.324,17.324,0,0,0,0,16.963,17.324,17.324,0,0,0,0,16.963,16.739,16.739,0,0,0-2.218,8.475c0,7.665,4.749,13.884,10.606,13.884s10.594-6.232,10.594-13.884a16.738,16.738,0,0,0-2.206-8.475,17.449,17.449,0,0,0,0-16.963,17.449,17.449,0,0,0,0-16.963Z" transform="translate(-174.985 -202.938)"/><ellipse class="d" cx="10.606" cy="13.872" rx="10.606" ry="13.872" transform="translate(39.945 201.432)"/><ellipse class="d" cx="10.606" cy="13.872" rx="10.606" ry="13.872" transform="translate(39.945 184.469)"/><path class="e" d="M193.748,328.371a50.107,50.107,0,0,1-3.951-5.808l27.856-4.574-30.124.224a50.9,50.9,0,0,1-.972-40.245l40.419,20.976L189.7,271.525a50.789,50.789,0,1,1,83.867,56.834,50,50,0,0,1,5.8,9.26L243.216,356.4l38.55-12.937a50.8,50.8,0,0,1-8.189,47.685,50.776,50.776,0,1,1-79.766,0,50.776,50.776,0,0,1,0-62.791Z" transform="translate(-182.88 -246.103)"/><path class="f" d="M284.428,337.448a50.565,50.565,0,0,1-10.868,31.4,50.776,50.776,0,1,1-79.766,0C186.938,360.206,284.428,331.752,284.428,337.448Z" transform="translate(-182.876 -223.784)"/></g><ellipse class="g" cx="683" cy="11.043" rx="683" ry="11.043" transform="translate(0 604.017)"/><ellipse class="g" cx="683" cy="11.043" rx="683" ry="11.043" transform="translate(0 694.689)"/><ellipse class="g" cx="683" cy="11.043" rx="683" ry="11.043" transform="translate(0 414.784)"/><ellipse class="g" cx="683" cy="11.043" rx="683" ry="11.043" transform="translate(0 509.394)"/><path class="g" d="M874.3,279a22.808,22.808,0,0,0-13.211,1.446,19.505,19.505,0,0,1-15.879,0,22.285,22.285,0,0,0-18.7.361,11.517,11.517,0,0,1-5.372,1.346c-7.578,0-13.872-7.628-15.181-17.686a14.8,14.8,0,0,0,3.739-4.076c4.437-7.154,11.3-11.753,19.032-11.753s14.508,4.537,18.945,11.616a14.557,14.557,0,0,0,12.576,6.9h.2C866.545,267.1,871.767,271.934,874.3,279Z" transform="translate(133.738 -140.994)"/><path class="g" d="M897.372,252.969l-12.239,7.752,7.478-13.51a12.09,12.09,0,0,0-7.4-2.63h-.2a14.15,14.15,0,0,1-2.493-.187l-4.213,2.63,1.782-3.241a14.694,14.694,0,0,1-7.266-5.509l-7.478,4.711,4.686-8.525c-4.337-5.21-10.2-8.4-16.626-8.4-7.727,0-14.595,4.587-19.044,11.741a14.221,14.221,0,0,1-12.576,6.78h-.411c-8.525,0-15.43,9.659-15.43,21.574s6.9,21.587,15.43,21.587a11.7,11.7,0,0,0,5.372-1.346,22.26,22.26,0,0,1,18.7-.374,19.381,19.381,0,0,0,15.878,0,22.335,22.335,0,0,1,18.521.362,11.591,11.591,0,0,0,5.309,1.321c8.525,0,15.43-9.672,15.43-21.587A27.333,27.333,0,0,0,897.372,252.969Z" transform="translate(133.733 -146.557)"/><path class="g" d="M452.71,271.79a16,16,0,0,0-9.26,1.01,13.61,13.61,0,0,1-11.1,0,15.554,15.554,0,0,0-13.074.262,8.251,8.251,0,0,1-3.739.935c-5.3,0-9.709-5.334-10.631-12.376a10.369,10.369,0,0,0,2.655-2.854c3.1-4.985,7.914-8.226,13.324-8.226s10.158,3.178,13.261,8.126a10.208,10.208,0,0,0,8.812,4.836h.137C447.276,263.477,450.928,266.867,452.71,271.79Z" transform="translate(34.937 -140.526)"/><path class="g" d="M468.855,253.585l-8.562,5.434,5.2-9.46a8.413,8.413,0,0,0-5.172-1.845h-.15a9.336,9.336,0,0,1-1.77-.137l-2.9,1.845,1.246-2.268a10.345,10.345,0,0,1-5.085-3.851l-5.2,3.29,3.29-5.958a15.218,15.218,0,0,0-11.641-5.9c-5.409,0-10.22,3.216-13.323,8.226a9.971,9.971,0,0,1-8.812,4.749h-.287c-5.97,0-10.806,6.755-10.806,15.106s4.836,15.106,10.806,15.106a8.1,8.1,0,0,0,3.739-.947,15.579,15.579,0,0,1,13.062-.249,13.386,13.386,0,0,0,11.117.075,15.629,15.629,0,0,1,12.962.249,8.077,8.077,0,0,0,3.739.922c5.957,0,10.793-6.768,10.793-15.106A19.107,19.107,0,0,0,468.855,253.585Z" transform="translate(34.932 -144.419)"/><path class="g" d="M321.59,350.2a15.979,15.979,0,0,1,9.248,1.01,13.635,13.635,0,0,0,11.117,0,15.6,15.6,0,0,1,13.074.249,8.064,8.064,0,0,0,3.739.947c5.3,0,9.709-5.347,10.619-12.389a10.159,10.159,0,0,1-2.642-2.854c-3.116-4.985-7.927-8.213-13.323-8.213s-10.158,3.166-13.274,8.126a10.208,10.208,0,0,1-8.8,4.836h-.137C327.012,341.937,323.347,345.315,321.59,350.2Z" transform="translate(14.414 -121.21)"/><path class="g" d="M309.067,332.022l8.575,5.434-5.21-9.447a8.462,8.462,0,0,1,5.185-1.857h.137a10.619,10.619,0,0,0,1.782-.125l2.9,1.832-1.246-2.256a10.333,10.333,0,0,0,5.073-3.851l5.2,3.29-3.241-5.97a15.206,15.206,0,0,1,11.641-5.883c5.4,0,10.22,3.216,13.323,8.226a9.971,9.971,0,0,0,8.8,4.749h.3c5.958,0,10.793,6.768,10.793,15.106s-4.836,15.106-10.793,15.106a8.089,8.089,0,0,1-3.739-.935,15.554,15.554,0,0,0-13.074-.262,13.536,13.536,0,0,1-5.584,1.246,13.709,13.709,0,0,1-5.534-1.172,15.6,15.6,0,0,0-12.95.249,8.076,8.076,0,0,1-3.739.922c-5.97,0-10.806-6.755-10.806-15.106a19.244,19.244,0,0,1,2.206-9.3Z" transform="translate(10.784 -125.092)"/><path class="h" d="M719.074,679.121c3.253-6.032-.436-13.411-4.674-18.782s-9.422-10.968-9.31-17.81c.162-9.834,10.606-15.654,18.945-20.864a92.6,92.6,0,0,0,17.013-13.71,25.086,25.086,0,0,0,5.222-7c1.733-3.839,1.683-8.226,1.57-12.464q-.536-21.051-2.081-42.077" transform="translate(108.889 -67.639)"/><path class="e" d="M756.512,548.743a15.342,15.342,0,0,0-7.665-12.576l-3.44,6.793.112-8.226a15.343,15.343,0,1,0,10.993,14.009Z" transform="translate(114.002 -70.669)"/><path class="e" d="M734.219,633.564a15.343,15.343,0,0,1-28.965-6.232,14.956,14.956,0,0,1,1-6.232,15.355,15.355,0,0,1,28.666.162l-9.584,7.8,10.544-2.493A15.257,15.257,0,0,1,734.219,633.564Z" transform="translate(108.924 -51.645)"/><path class="e" d="M725.586,611.334a15.343,15.343,0,0,1-4.861-30.1l-.087,6.319,3.477-6.88h0a15.347,15.347,0,1,1,1.433,30.66Z" transform="translate(109.98 -59.202)"/><path class="e" d="M755.489,591.441a15.343,15.343,0,1,1,6.78-28.666l-2.7,7.478,5.521-5.459a15.343,15.343,0,0,1-9.647,26.635Z" transform="translate(117.33 -64.099)"/><path class="f" d="M754.448,551.167c-3.54.386-6.979,1.483-10.544,1.708s-7.478-.636-9.7-3.39a49.185,49.185,0,0,1-2.842-4.985,10.919,10.919,0,0,0-3.864-3.639,15.343,15.343,0,1,0,28.666,10.2C755.607,551.068,755.021,551.1,754.448,551.167Z" transform="translate(113.997 -69.006)"/><path class="f" d="M755.476,589.706a15.343,15.343,0,0,1-14.595-21.886,11.356,11.356,0,0,1,3.079,3.091A51.991,51.991,0,0,0,747,575.984c2.393,2.8,6.481,3.739,10.183,3.552s7.279-1.246,10.968-1.558c.511,0,1.022-.075,1.545-.087a15.343,15.343,0,0,1-14.221,11.815Z" transform="translate(117.343 -62.364)"/><path class="f" d="M725.584,609.539a15.342,15.342,0,0,1-14.719-21.6,12.46,12.46,0,0,1,3.253,3.116,51.4,51.4,0,0,0,3.328,5.172c2.58,2.879,6.942,3.9,10.856,3.739s7.478-1.009,11.217-1.246A15.367,15.367,0,0,1,725.584,609.539Z" transform="translate(109.981 -57.408)"/><path class="f" d="M734.219,631.633a15.343,15.343,0,0,1-28.965-6.232,14.956,14.956,0,0,1,1-6.232,15.321,15.321,0,0,1,3.365,3c1.458,1.77,2.418,3.739,4.113,5.447,3.128,3.078,8.2,4.35,12.7,4.462a64.45,64.45,0,0,0,7.79-.449Z" transform="translate(108.924 -49.714)"/><path class="h" d="M109.074,607.121c3.253-6.032-.436-13.411-4.674-18.782s-9.422-10.993-9.31-17.81c.162-9.834,10.606-15.654,18.945-20.864a92.607,92.607,0,0,0,17.013-13.71,25.09,25.09,0,0,0,5.222-7c1.732-3.839,1.683-8.226,1.57-12.463q-.548-21.051-2.081-42.077" transform="translate(-41.385 -85.376)"/><path class="e" d="M146.512,476.743a15.342,15.342,0,0,0-7.665-12.576l-3.44,6.793.112-8.226a15.343,15.343,0,1,0,10.993,14.009Z" transform="translate(-36.272 -88.406)"/><path class="e" d="M124.219,561.564a15.343,15.343,0,0,1-28.965-6.232,14.956,14.956,0,0,1,1-6.232,15.355,15.355,0,0,1,28.666.162l-9.584,7.8,10.544-2.493a15.256,15.256,0,0,1-1.658,6.992Z" transform="translate(-41.35 -69.382)"/><path class="e" d="M115.586,539.334a15.343,15.343,0,0,1-4.861-30.1l-.087,6.319,3.477-6.88h0a15.347,15.347,0,1,1,1.433,30.66Z" transform="translate(-40.294 -76.939)"/><path class="e" d="M145.489,519.441a15.343,15.343,0,1,1,6.78-28.666l-2.7,7.478,5.521-5.459a15.343,15.343,0,0,1-9.647,26.635Z" transform="translate(-32.944 -81.837)"/><path class="f" d="M144.448,479.167c-3.54.386-6.98,1.483-10.544,1.708s-7.478-.636-9.7-3.39a49.2,49.2,0,0,1-2.842-4.985,10.918,10.918,0,0,0-3.864-3.639,15.343,15.343,0,1,0,28.666,10.2C145.607,479.068,145.021,479.1,144.448,479.167Z" transform="translate(-36.277 -86.743)"/><path class="f" d="M145.476,517.706a15.343,15.343,0,0,1-14.595-21.886,11.354,11.354,0,0,1,3.078,3.091A51.988,51.988,0,0,0,137,503.984c2.393,2.8,6.481,3.739,10.183,3.552s7.279-1.246,10.968-1.558c.511,0,1.022-.075,1.545-.087A15.342,15.342,0,0,1,145.476,517.706Z" transform="translate(-32.931 -80.101)"/><path class="f" d="M115.585,537.539a15.343,15.343,0,0,1-14.719-21.6,12.464,12.464,0,0,1,3.253,3.116,51.413,51.413,0,0,0,3.328,5.172c2.58,2.879,6.942,3.9,10.856,3.739s7.478-1.01,11.217-1.246A15.368,15.368,0,0,1,115.585,537.539Z" transform="translate(-40.292 -75.145)"/><path class="f" d="M124.219,559.633A15.343,15.343,0,0,1,95.254,553.4a14.956,14.956,0,0,1,1-6.232,15.318,15.318,0,0,1,3.365,3c1.458,1.77,2.418,3.739,4.113,5.447,3.128,3.078,8.2,4.35,12.7,4.462A64.438,64.438,0,0,0,124.219,559.633Z" transform="translate(-41.35 -67.451)"/><path class="h" d="M518.214,524.746c-3.253-6.02.436-13.4,4.686-18.77s9.41-10.968,9.3-17.81c-.15-9.846-10.594-15.654-18.945-20.864a92.228,92.228,0,0,1-17-13.71,24.651,24.651,0,0,1-5.235-6.992c-1.72-3.851-1.67-8.226-1.57-12.464q.561-21.051,2.081-42.077" transform="translate(55.756 -105.663)"/><path class="e" d="M478.393,394.382a15.33,15.33,0,0,1,7.653-12.576l3.44,6.793-.1-8.226a15.73,15.73,0,0,1,5.048-.611,15.343,15.343,0,1,1-16.04,14.62Z" transform="translate(53.038 -108.696)"/><path class="e" d="M500.675,479.228a15.343,15.343,0,1,0-.735-12.351l9.584,7.8-10.544-2.493a15.256,15.256,0,0,0,1.7,7.042Z" transform="translate(58.114 -89.696)"/><path class="e" d="M509.311,456.974a15.343,15.343,0,0,0,4.873-30.1l.075,6.319-3.477-6.88h0a15.342,15.342,0,0,0-16.078,14.57,15.154,15.154,0,0,0,.661,5.235,15.33,15.33,0,0,0,13.947,10.856Z" transform="translate(57.056 -97.229)"/><path class="e" d="M479.439,437.061a15.343,15.343,0,1,0-6.793-28.666l2.717,7.478-5.584-5.347a15.218,15.218,0,0,0-4.985,10.594,14.845,14.845,0,0,0,.386,4.225,15.33,15.33,0,0,0,14.258,11.716Z" transform="translate(49.687 -102.131)"/><path class="f" d="M480.39,396.807c3.54.386,6.98,1.483,10.532,1.707s7.478-.636,9.709-3.39a49.092,49.092,0,0,0,2.829-4.985,10.956,10.956,0,0,1,3.876-3.639,15.343,15.343,0,1,1-28.666,10.183C479.231,396.7,479.8,396.745,480.39,396.807Z" transform="translate(53.11 -107.032)"/><path class="f" d="M479.351,435.326a15.355,15.355,0,0,0,14.595-21.886,11.4,11.4,0,0,0-3.091,3.091,52,52,0,0,1-3.041,5.073c-2.381,2.8-6.469,3.739-10.17,3.552s-7.279-1.246-10.968-1.558c-.511,0-1.034-.075-1.545-.087a15.33,15.33,0,0,0,14.221,11.815Z" transform="translate(49.775 -100.396)"/><path class="f" d="M509.174,455.179a15.33,15.33,0,0,0,14.719-21.6,12.252,12.252,0,0,0-3.24,3.116,51.4,51.4,0,0,1-3.328,5.172c-2.592,2.879-6.942,3.9-10.868,3.739s-7.478-1.01-11.217-1.246a15.33,15.33,0,0,0,13.934,10.818Z" transform="translate(57.192 -95.434)"/><path class="f" d="M500.34,477.273a15.343,15.343,0,0,0,27.981-12.464,14.733,14.733,0,0,0-3.365,3c-1.458,1.77-2.493,3.739-4.113,5.447-3.141,3.078-8.2,4.35-12.713,4.462a67.238,67.238,0,0,1-7.79-.449Z" transform="translate(58.449 -87.741)"/><circle class="d" cx="124.585" cy="124.585" r="124.585" transform="translate(561.007 361.951)"/><path class="i" d="M687.184,522.492l-37.3,37.951a.673.673,0,0,0,0,.972l26.173,27.831a4.5,4.5,0,1,1-6.369,6.369l-26.036-27.731a.71.71,0,0,0-1,0l-6.344,6.406a27.881,27.881,0,0,1-19.942,8.388,28.491,28.491,0,0,1-20.291-8.625l-6.095-6.232a.711.711,0,0,0-1,0L563.01,595.491a4.5,4.5,0,1,1-6.369-6.369l26.074-27.769a.748.748,0,0,0,0-.972l-37.3-37.951a.685.685,0,0,0-1.172.486v75.94a11.117,11.117,0,0,0,11.08,11.08H677.3a11.117,11.117,0,0,0,11.08-11.08V522.978a.686.686,0,0,0-1.2-.486Z" transform="translate(69.264 -73.596)"/><path class="i" d="M615.489,576.032a18.869,18.869,0,0,0,13.61-5.609l54.328-55.3a10.843,10.843,0,0,0-6.855-2.493H554.5a10.769,10.769,0,0,0-6.855,2.493l54.341,55.3A18.8,18.8,0,0,0,615.489,576.032Z" transform="translate(70.104 -75.96)"/><path class="f" d="M625.467,452.69A124.635,124.635,0,1,0,750.04,577.283,124.635,124.635,0,0,0,625.467,452.69Zm0,232.594A108.021,108.021,0,1,1,733.489,577.263,108.021,108.021,0,0,1,625.467,685.284Z" transform="translate(58.555 -90.726)"/><path class="j" d="M852.689,614.576q-1.7-4.138-3.477-8.251a24.489,24.489,0,0,0-4.25-7.341,7.776,7.776,0,0,0-2.493-1.87,10.63,10.63,0,0,0-3.253-.648,25.97,25.97,0,0,0-5.11-.137c-.66-.2-1.408-.461-2.144-.76a17.8,17.8,0,0,0,13.261-16.514c0-.249,0-.511,0-.76a17.761,17.761,0,0,0-17.686-17.835,17.449,17.449,0,0,0-9.285,2.655,16.663,16.663,0,0,0-18.7,9.011,20.6,20.6,0,0,0-6.356,15.33c0,.262,0,.536,0,.785.324,9.684,6.581,17.449,14.483,18.234a8.3,8.3,0,0,0-2.293,1.533c-2.418,2.331-2.817,6.032-3.078,9.4l-.187,2.493-4.188,1.5a.773.773,0,0,0-.187,1.359l4,2.854v.711a3.115,3.115,0,0,0,.075.81,5.722,5.722,0,0,0-1.545,2.206,10.192,10.192,0,0,0-.361,4.038l.15,3.477a27.307,27.307,0,0,0,1.059,7.74c.524,1.546,2.792,5.272,4.425,5.3-1.508,6.855-1.907,21.313-1.907,21.313-.187.187.337.361,1.246.511.9,6.88,3.826,26.173,9.024,34.661a73.1,73.1,0,0,1,1.957,8.425s1.483,18.334,3.44,23.78c1.67,4.636,2.991,16.078,3.353,19.393a1.907,1.907,0,0,0-1.383,1.421c-.985,2.966-7.366,7.478-7.366,7.478a30.861,30.861,0,0,0-5.509,3.527c-2.007,1.807-1.932,3.44,6.979,2.418,17.2-1.982,20.141-7.478,20.141-7.478s-.274-.922-.685-2.119a23.009,23.009,0,0,0-2.256-5.322c-.249-.237-.5.162-.8.785a106.721,106.721,0,0,1-1.172-24.067s.486-8.425-1.969-14.37a27.207,27.207,0,0,1,0-9.41c.984-3.963-3.926-23.294-3.926-23.294L821.9,673.3a4.089,4.089,0,0,1,.785,1.658l.075.287.075.411a.772.772,0,0,0,.2.386c1.919,7.977,7.179,30.074,7.179,33.315,0,3.963,4.911,13.872,4.911,13.872s1.957,16.352,5.4,22.783c2.617,4.9,2.68,12.077,2.555,15.243h0s-.586,4.076-1.57,5.06a12.037,12.037,0,0,0-1.857,3.228l-.112.237s-1.471,2.979-.486,3.477a24.142,24.142,0,0,0,11.79,1.483s1.969-2.493,1.969-3.465a15.621,15.621,0,0,0-.224-1.77c-.362-2.343-1.034-6.032-1.047-6.07.411-1.6-1.246-6.032-1.246-6.032l-.5-13.872a64.035,64.035,0,0,0-3.44-27.756s-2.493-8.911-1.957-11.392-.985-28.741-.985-28.741l-.15-.374a28.4,28.4,0,0,1,.149-5.571c.486-5.945-1.471-18.334-1.969-18.82a16.33,16.33,0,0,1-.7-4.1c.112-1.034.449-4.063.91-7.827a140.7,140.7,0,0,0,14.483-1.246,1.807,1.807,0,0,0,1.246-.5,1.745,1.745,0,0,0,.287-1.01C858.248,628.735,855.518,621.481,852.689,614.576Zm-9.883,15.716c.511-3.552,1.059-6.992,1.608-9.547l.075.224a69.336,69.336,0,0,1,2.368,7.852A26.708,26.708,0,0,1,842.806,630.293Z" transform="translate(130.594 -64.177)"/><path class="k" d="M802.37,648.872s2.941,26.46,9.31,36.742a71.313,71.313,0,0,1,1.957,8.326s1.471,18.122,3.427,23.506,3.427,20.091,3.427,20.091,6.855,7.827,9.31,1.471a103.224,103.224,0,0,1-1.471-25.475s.486-8.326-1.957-14.208a26.572,26.572,0,0,1,0-9.3c.972-3.926-3.926-23.02-3.926-23.02L818.535,647.9Z" transform="translate(132.854 -42.636)"/><path class="l" d="M832.685,726.4s-2.941,5.384-20.079,7.341c-8.9,1.01-8.961-.6-6.955-2.393a31.026,31.026,0,0,1,5.484-3.49s6.369-4.4,7.341-7.341,4.412-.486,4.412-.486c4.9,7.341,5.883-1.969,6.855-.984A22.1,22.1,0,0,1,832,724.292C832.41,725.476,832.685,726.4,832.685,726.4Z" transform="translate(133.399 -25.128)"/><path class="f" d="M832.685,725.346s-2.941,5.384-20.079,7.341c-8.9,1.01-8.961-.6-6.955-2.393,1.4.885,4.213,1.246,9.883-1.034,8.164-3.34,14.084-5.272,16.464-6.02C832.41,724.424,832.685,725.346,832.685,725.346Z" transform="translate(133.399 -24.076)"/><path class="f" d="M825.806,713.533s.486-8.326-1.957-14.208a26.569,26.569,0,0,1,0-9.3c.972-3.926-3.926-23.02-3.926-23.02L816.01,647.9l-3.39.2,3.876,18.907s4.9,19.094,3.926,23.02a26.568,26.568,0,0,0,0,9.3c2.493,5.883,1.957,14.208,1.957,14.208a103.219,103.219,0,0,0,1.471,25.475,4.288,4.288,0,0,1-1.421,2.019c1.82.823,3.739.785,4.848-2.019A103.228,103.228,0,0,1,825.806,713.533Z" transform="translate(135.379 -42.636)"/><path class="d" d="M827.418,562.42a17.449,17.449,0,0,0-9.248,2.63,16.639,16.639,0,0,0-18.7,8.911,20.291,20.291,0,0,0-6.344,15.156c0,10.42,7.017,18.857,15.667,18.857,6.232,0,11.691-4.437,14.2-10.856a17.2,17.2,0,0,0,4.412.573,17.636,17.636,0,0,0,0-35.272Z" transform="translate(130.577 -63.694)"/><path class="k" d="M836.127,650.65l1.471,3.914s1.471,25.961.972,28.417,1.969,11.217,1.969,11.217a62.7,62.7,0,0,1,3.427,27.42l.486,13.71s1.957,5.384.985,6.369-8.363-.872-8.363-.872.985-10.282-2.493-16.651-5.384-22.534-5.384-22.534-4.9-9.8-4.9-13.71-7.839-35.758-7.839-35.758Z" transform="translate(136.325 -41.959)"/><path class="d" d="M801.587,656.355s.5-17.636,2.493-23.02a36.548,36.548,0,0,0,2.181-7.815s29.651,5.359,32.106,3.4c0,0,.486,6.855.985,7.341s2.493,12.738,1.957,18.62,0,5.87,0,5.87-20.091,2.941-20.577,0-1.957-2.929-1.957-2.929S800.615,657.277,801.587,656.355Z" transform="translate(132.652 -48.15)"/><g class="c" transform="translate(934.239 580.773)"><path d="M817.745,650.459s-12.389-.336-16.128-1.01v1.01c-.972.972,17.15,1.471,17.15,1.471a1.247,1.247,0,0,1,.673.274C818.78,650.459,817.745,650.459,817.745,650.459Z" transform="translate(-801.58 -623.027)"/><path d="M835.56,635.591c-.5-.486-.985-7.341-.985-7.341a2.106,2.106,0,0,1-.835.3c.175,2.069.511,5.247.835,5.571s2.493,12.738,1.957,18.621,0,5.87,0,5.87-15.891,2.331-19.742.773a5.914,5.914,0,0,0,.15.7c.486,2.941,20.577,0,20.577,0s-.5,0,0-5.87S836.046,636.089,835.56,635.591Z" transform="translate(-797.833 -628.25)"/><path d="M817.745,650.459s-12.389-.336-16.128-1.01v1.01c-.972.972,17.15,1.471,17.15,1.471a1.247,1.247,0,0,1,.673.274C818.78,650.459,817.745,650.459,817.745,650.459Z" transform="translate(-801.58 -623.027)"/><path d="M835.56,635.591c-.5-.486-.985-7.341-.985-7.341a2.106,2.106,0,0,1-.835.3c.175,2.069.511,5.247.835,5.571s2.493,12.738,1.957,18.621,0,5.87,0,5.87-15.891,2.331-19.742.773a5.914,5.914,0,0,0,.15.7c.486,2.941,20.577,0,20.577,0s-.5,0,0-5.87S836.046,636.089,835.56,635.591Z" transform="translate(-797.833 -628.25)"/></g><path class="k" d="M820.984,588.175a6.5,6.5,0,0,0,1.87,2.418,4.188,4.188,0,0,0,1.757.76c-1.1.636-2.293,1.109-3.39,1.745a60.258,60.258,0,0,0-4.985,3.739,10.145,10.145,0,0,1-5.721,2.219,7,7,0,0,0,.8-6.967,6.506,6.506,0,0,1-.872-2.418c0-1.408,1.246-2.493,2.405-3.241.935-.636,1.894-1.246,2.867-1.857.76-.474,1.907-1.471,2.867-1.433s1.072.885,1.246,1.757A13.825,13.825,0,0,0,820.984,588.175Z" transform="translate(134.842 -58.59)"/><path class="f" d="M820.984,588.175a6.5,6.5,0,0,0,1.87,2.418,4.188,4.188,0,0,0,1.757.76c-1.1.636-2.293,1.109-3.39,1.745a60.258,60.258,0,0,0-4.985,3.739,10.145,10.145,0,0,1-5.721,2.219,7,7,0,0,0,.8-6.967,6.506,6.506,0,0,1-.872-2.418c0-1.408,1.246-2.493,2.405-3.241.935-.636,1.894-1.246,2.867-1.857.76-.474,1.907-1.471,2.867-1.433s1.072.885,1.246,1.757A13.825,13.825,0,0,0,820.984,588.175Z" transform="translate(134.842 -58.59)"/><circle class="k" cx="11.267" cy="11.267" r="11.267" transform="translate(956.038 535.954)"/><path class="l" d="M843.657,731.943c0,.985-1.957,3.427-1.957,3.427a24.254,24.254,0,0,1-11.753-1.471c-.985-.486.486-3.427.486-3.427l.112-.237a11.893,11.893,0,0,1,1.857-3.191c.972-.972,1.558-4.985,1.558-4.985,3.041-4.985,8.438,2.156,8.438,2.156s.685,3.739,1.047,6.007A17.064,17.064,0,0,1,843.657,731.943Z" transform="translate(139.564 -24.803)"/><path class="f" d="M843.657,729.985c0,.985-1.957,3.427-1.957,3.427a24.254,24.254,0,0,1-11.753-1.471c-.985-.486.486-3.427.486-3.427l.112-.237a23.682,23.682,0,0,0,10.669,2.194l2.231-2.231C843.57,729.075,843.657,729.736,843.657,729.985Z" transform="translate(139.564 -22.845)"/><circle class="k" cx="11.018" cy="11.018" r="11.018" transform="translate(933.753 512.685)"/><path class="k" d="M803.605,600.723c-2.418,2.306-2.817,5.958-3.066,9.285l-.374,4.873a24.585,24.585,0,0,0-.087,3.951c0,.81.2,1.633.274,2.493s.1,1.944.112,2.929v7.2a8.5,8.5,0,0,0,.8,4.325A2.941,2.941,0,0,0,805,637.128a4.263,4.263,0,0,0,1.545-2.393,37.206,37.206,0,0,0,2.493-9.123c.1-1.084.112-2.169.212-3.253s.287-2.219.449-3.315c.7-4.587,1.01-9.223,1.321-13.847.087-1.371,1.321-6.768-.474-7.366-.872-.287-2.68.611-3.515.91a9.9,9.9,0,0,0-3.427,1.982Z" transform="translate(132.279 -54.985)"/><path class="f" d="M803.605,600.723c-2.418,2.306-2.817,5.958-3.066,9.285l-.374,4.873a24.585,24.585,0,0,0-.087,3.951c0,.81.2,1.633.274,2.493s.1,1.944.112,2.929v7.2a8.5,8.5,0,0,0,.8,4.325A2.941,2.941,0,0,0,805,637.128a4.263,4.263,0,0,0,1.545-2.393,37.206,37.206,0,0,0,2.493-9.123c.1-1.084.112-2.169.212-3.253s.287-2.219.449-3.315c.7-4.587,1.01-9.223,1.321-13.847.087-1.371,1.321-6.768-.474-7.366-.872-.287-2.68.611-3.515.91a9.9,9.9,0,0,0-3.427,1.982Z" transform="translate(132.279 -54.985)"/><path class="l" d="M825.359,588.16s-8.326,6.369-13.224,7.839c0,0-2.9,3.315-3.4,4.113s-1.5,9.6-2.493,11.566-3.427,6.369,0,10.769c0,0,.972,4.412.486,5.883s-2.268,6.855-.648,7.1,6.531,3.664,10.93,2.692,20.827,3.739,20.827,3.739,2.717-25.239,4.686-29.7l-4.412-1.471s-12.239-7.341-4.9-18.608C833.2,592.086,826.318,590.615,825.359,588.16Z" transform="translate(133.371 -57.353)"/><path class="d" d="M796.9,612.457l10.12,7.167a.748.748,0,0,0,.885,0l2.742-2.057a.773.773,0,0,0,0-1.172l-7.79-6.917a.748.748,0,0,0-.76-.15l-5,1.795a.76.76,0,0,0-.2,1.333Z" transform="translate(131.43 -52.15)"/><path class="k" d="M799.821,632.962a27.124,27.124,0,0,1-1.059-7.64l-.15-3.453a9.969,9.969,0,0,1,.361-3.988,6.519,6.519,0,0,1,4.2-3.677,14.506,14.506,0,0,1,5.721-.411,1.471,1.471,0,0,1,.735.2,1.371,1.371,0,0,1,.4.673,4.512,4.512,0,0,1,.224,3.6,3.737,3.737,0,0,1-1.146,1.184c-1.359.972-2.941,1.62-4.225,2.68a1.533,1.533,0,0,0-.573.723,1.683,1.683,0,0,0,0,.785,12.554,12.554,0,0,0,.648,2.007,1.981,1.981,0,0,0,.561.847c.237.2.548.274.8.461.536.436,1.658,1.01,1.6,1.7-.187,2.493-1.682,5.284-2.268,7.752C804.52,641.225,800.544,635.068,799.821,632.962Z" transform="translate(131.913 -51.068)"/><g class="c" transform="translate(947.201 554.076)"><path d="M812.254,628.273h-.274a8.391,8.391,0,0,0,3.2,0h.312a11.219,11.219,0,0,0-3.241,0Z" transform="translate(-811.98 -601.576)"/><path d="M833.781,606.83c-1.757,3.951-4.35,25.351-4.811,29.6,1.72.449,2.854.773,2.854.773s2.692-25.176,4.661-29.638Z" transform="translate(-807.794 -606.83)"/></g><path class="k" d="M832.488,604.266a3.739,3.739,0,0,0,1.608,2.43,21.575,21.575,0,0,1,2.854,2.891,20.479,20.479,0,0,1,2.829,5.671,69.484,69.484,0,0,1,2.356,7.752c-6.232,2.891-13.311,2.754-19.942,4.661a15.916,15.916,0,0,0-7.478,4.425,10.307,10.307,0,0,0-2.755,8.114,1.058,1.058,0,0,0,.15.486,1.046,1.046,0,0,0,.872.349,7.478,7.478,0,0,0,4.574-1.57,21.767,21.767,0,0,0,3.5-3.44,5.635,5.635,0,0,1,2.493-1.845c3.6-1.1,7.478-1.034,11.217-1.1a141.364,141.364,0,0,0,16.713-1.321,1.346,1.346,0,0,0,1.5-1.5c.548-7.354-2.181-14.532-4.985-21.35q-1.682-4.1-3.465-8.164a24.18,24.18,0,0,0-4.238-7.254,7.477,7.477,0,0,0-2.493-1.844,10.544,10.544,0,0,0-3.34-.623,23.679,23.679,0,0,0-5.471-.1,11.653,11.653,0,0,0-.524,2.829c.1,3.365,1.57,6.518,3.016,9.56C831.665,603.792,832.2,603.817,832.488,604.266Z" transform="translate(135.204 -56.696)"/><path class="m" d="M812.657,606.67a9.136,9.136,0,0,0-1.246,4.761,6.411,6.411,0,0,0,.312,1.944,6.306,6.306,0,0,0,3.976,3.739" transform="translate(135.081 -52.793)"/><path class="d" d="M821.959,574.6a5.721,5.721,0,0,0-1.807.287c-1.633-2.493-5.472-4.213-9.971-4.213-5.958,0-10.781,3.078-10.781,6.867s4.823,6.855,10.781,6.855a15.166,15.166,0,0,0,6.469-1.371,5.87,5.87,0,1,0,5.285-8.425Z" transform="translate(132.122 -61.662)"/><path class="f" d="M822.45,583.947a5.858,5.858,0,0,1-5.285-3.329,15.169,15.169,0,0,1-6.468,1.372c-5.945,0-10.768-3.066-10.768-6.855a4.12,4.12,0,0,1,0-.685,4.65,4.65,0,0,0-.548,2.156c0,3.739,4.823,6.855,10.781,6.855a15.166,15.166,0,0,0,6.468-1.371,5.87,5.87,0,0,0,11.055-1.458,5.846,5.846,0,0,1-5.235,3.315Z" transform="translate(132.117 -60.731)"/><path class="f" d="M799.5,576.853a16.639,16.639,0,0,1,18.7-8.911,17.623,17.623,0,0,1,26.822,13.535v-1.471A17.623,17.623,0,0,0,818.13,565.05a16.639,16.639,0,0,0-18.7,8.911,20.291,20.291,0,0,0-6.344,15.156v1.471A19.942,19.942,0,0,1,799.5,576.853Z" transform="translate(130.567 -63.694)"/><path class="h" d="M891.154,603.229c3.253-6.02-.436-13.411-4.686-18.783s-9.41-10.955-9.3-17.81c.15-9.834,10.594-15.642,18.945-20.864a92.112,92.112,0,0,0,17-13.71,24.843,24.843,0,0,0,5.235-6.992c1.72-3.851,1.67-8.226,1.57-12.464q-.548-21.063-2.081-42.077" transform="translate(151.281 -86.332)"/><path class="e" d="M928.582,472.821a15.318,15.318,0,0,0-7.653-12.563l-3.44,6.793.1-8.226a15.056,15.056,0,0,0-5.048-.611,15.343,15.343,0,1,0,16.041,14.607Z" transform="translate(156.391 -89.37)"/><path class="e" d="M906.3,557.679a15.343,15.343,0,1,1,.735-12.364l-9.585,7.8,10.544-2.493a15.255,15.255,0,0,1-1.7,7.054Z" transform="translate(151.316 -70.37)"/><path class="e" d="M897.668,535.411a15.343,15.343,0,0,1-4.873-30.1l-.075,6.319,3.477-6.867h0a15.347,15.347,0,1,1,1.433,30.66Z" transform="translate(152.369 -77.902)"/><path class="e" d="M927.557,515.531a15.343,15.343,0,1,1,6.793-28.666l-2.717,7.478,5.584-5.359a15.255,15.255,0,0,1,4.985,10.594,14.807,14.807,0,0,1-.386,4.225A15.342,15.342,0,0,1,927.557,515.531Z" transform="translate(159.722 -82.8)"/><path class="f" d="M926.529,475.247c-3.54.4-6.992,1.5-10.544,1.72s-7.478-.636-9.709-3.4a47.6,47.6,0,0,1-2.829-4.985,11.031,11.031,0,0,0-3.864-3.639,15.343,15.343,0,1,0,28.666,10.183C927.675,475.148,927.1,475.185,926.529,475.247Z" transform="translate(156.388 -87.709)"/><path class="f" d="M927.544,513.8A15.355,15.355,0,0,1,912.95,491.91a11.354,11.354,0,0,1,3.091,3.078,49.169,49.169,0,0,0,3.041,5.073c2.381,2.817,6.469,3.739,10.17,3.564s7.279-1.246,10.968-1.558c.511,0,1.035-.087,1.545-.1A15.342,15.342,0,0,1,927.544,513.8Z" transform="translate(159.734 -81.065)"/><path class="f" d="M897.668,533.624A15.33,15.33,0,0,1,882.949,512a12.651,12.651,0,0,1,3.241,3.116c1.246,1.683,1.932,3.627,3.328,5.172,2.593,2.892,6.942,3.9,10.868,3.814s7.478-1.022,11.217-1.309a15.343,15.343,0,0,1-13.934,10.831Z" transform="translate(152.369 -76.115)"/><path class="f" d="M906.282,555.724A15.355,15.355,0,0,1,878.3,543.26a15.029,15.029,0,0,1,3.365,3c1.471,1.782,2.431,3.739,4.113,5.459,3.141,3.078,8.2,4.337,12.713,4.462a67.231,67.231,0,0,0,7.79-.461Z" transform="translate(151.333 -68.415)"/><path class="h" d="M1050.154,755.229c3.253-6.02-.436-13.411-4.686-18.782s-9.41-10.955-9.3-17.81c.15-9.834,10.594-15.642,18.944-20.864a92.113,92.113,0,0,0,17-13.71,24.84,24.84,0,0,0,5.235-6.992c1.72-3.851,1.67-8.226,1.57-12.464q-.536-21.063-2.082-42.077" transform="translate(190.45 -48.886)"/><path class="e" d="M1087.57,624.82a15.318,15.318,0,0,0-7.653-12.563l-3.44,6.793.1-8.226a15.051,15.051,0,0,0-4.985-.611,15.343,15.343,0,1,0,16.04,14.607Z" transform="translate(195.573 -51.924)"/><path class="e" d="M1065.3,709.679a15.342,15.342,0,1,1,.735-12.364l-9.584,7.8,10.544-2.493a15.253,15.253,0,0,1-1.695,7.054Z" transform="translate(190.486 -32.925)"/><path class="e" d="M1056.668,687.411a15.342,15.342,0,0,1-4.873-30.1l-.075,6.319,3.477-6.867h0a15.347,15.347,0,1,1,1.433,30.66Z" transform="translate(191.539 -40.457)"/><path class="e" d="M1086.557,667.531a15.343,15.343,0,1,1,6.793-28.666l-2.717,7.478,5.583-5.359a15.255,15.255,0,0,1,4.985,10.594,14.82,14.82,0,0,1-.387,4.225A15.343,15.343,0,0,1,1086.557,667.531Z" transform="translate(198.892 -45.355)"/><path class="f" d="M1085.529,627.247c-3.54.4-6.992,1.5-10.544,1.72s-7.478-.636-9.709-3.4a47.58,47.58,0,0,1-2.829-4.985,11.031,11.031,0,0,0-3.864-3.639,15.343,15.343,0,1,0,28.666,10.183C1086.675,627.148,1086.1,627.185,1085.529,627.247Z" transform="translate(195.558 -50.263)"/><path class="f" d="M1086.544,665.8a15.355,15.355,0,0,1-14.595-21.886,11.352,11.352,0,0,1,3.091,3.078,49.238,49.238,0,0,0,3.041,5.073c2.38,2.817,6.468,3.739,10.17,3.565s7.279-1.246,10.968-1.558c.511,0,1.035-.087,1.546-.1A15.343,15.343,0,0,1,1086.544,665.8Z" transform="translate(198.904 -43.619)"/><path class="f" d="M1056.668,685.624A15.33,15.33,0,0,1,1041.949,664a12.65,12.65,0,0,1,3.24,3.116c1.247,1.683,1.932,3.627,3.328,5.172,2.592,2.892,6.942,3.9,10.868,3.814s7.478-1.022,11.217-1.309A15.342,15.342,0,0,1,1056.668,685.624Z" transform="translate(191.539 -38.67)"/><path class="f" d="M1065.282,707.723A15.355,15.355,0,0,1,1037.3,695.26a15.033,15.033,0,0,1,3.365,3c1.471,1.782,2.493,3.739,4.113,5.459,3.141,3.078,8.2,4.337,12.713,4.462a67.232,67.232,0,0,0,7.79-.461Z" transform="translate(190.503 -30.969)"/><path class="n" d="M563.03,594.827a12.227,12.227,0,0,0-4.873-9.871A14.333,14.333,0,0,0,546.179,570.9a14.308,14.308,0,0,0-9.535-10.656h0a12.164,12.164,0,0,0-1.77-.411h-2.106a14.034,14.034,0,0,0-13.56,11.99c-4.375-1.01-8.376.3-9.111,3.066a3.739,3.739,0,0,0,.125,2.219c.748,2.144,3.178,4.2,6.431,5.21l.424.125.636.162h.137a11.019,11.019,0,0,0-1.047,4.724,10.893,10.893,0,0,0,5.87,9.721l-.287.175a3.887,3.887,0,0,0-.947,1.321,19.768,19.768,0,0,0-1.832,4.412c-.312,1.321-.361,2.692-.748,4-.723,2.405-2.567,4.437-2.779,6.942-.1,1.122.087,2.493-.71,3.216a3.882,3.882,0,0,1-.636.449,5.146,5.146,0,0,0-1.383,1.458,4.836,4.836,0,0,1-.972,1.4c-.723.536-1.907.486-2.256,1.321s.561,1.82.349,2.729-.985,1.084-1.545,1.6a5.545,5.545,0,0,0-1.334,2.493,8.176,8.176,0,0,1-6.73-1.72,12.575,12.575,0,0,1,.7,2.493,10.919,10.919,0,0,0-3.627-1.82,11.451,11.451,0,0,1-3.864-2.866l2.069-.287L487,610.407l-2.7-.561,2.418,4.649a1.482,1.482,0,0,0-.823.984,4.226,4.226,0,0,0-.087,1.583,28.345,28.345,0,0,0,.623,3.739l.7,3.265c.062.3.137.611.224.91a8.586,8.586,0,0,0-2.7.3,23.532,23.532,0,0,0-5.621-1.334,3.115,3.115,0,0,0-1.246,0,3.228,3.228,0,0,0-1.184.96,38.34,38.34,0,0,0-4.175,5.883c-4.985,8.55-11.479,16.016-17.623,23.743-4.238,1.72-8.513,3.353-12.788,4.985l-9.2,3.515a13.947,13.947,0,0,1-5.708,1.246c-.872,0-1.957-.187-2.493.561a5.246,5.246,0,0,0-.561,1.246l-.947.1h0a10.893,10.893,0,0,0-2.206-4.063,1.4,1.4,0,0,0-1.034.8c-.224.411-.361.86-.623,1.246-.486.723-1.346,1.072-1.957,1.683s-1,1.558-1.67,2.181a6.6,6.6,0,0,1-3.128,1.246,19.746,19.746,0,0,0-4.9,1.857,7.888,7.888,0,0,1-1.807.835,6.789,6.789,0,0,1-2.131.075l-4.861-.361a3.841,3.841,0,0,0-1.309.062,2.493,2.493,0,0,0-1.545,2.493,3.926,3.926,0,0,0,1.545,2.68,9.9,9.9,0,0,0,2.767,1.433,81.2,81.2,0,0,0,12.962,3.839v.985a22.122,22.122,0,0,0,9.971,2.368,1.547,1.547,0,0,0,.748-.137,1.645,1.645,0,0,0,.623-.972,40.1,40.1,0,0,0,1.944-9.547h0a4.985,4.985,0,0,0,1.757-.449c1.67-.461,3.34.685,5.073.872,2.131.237,4.1-1.01,6.12-1.77l.872-.287a9.571,9.571,0,0,1-2.019,1.932c-.835.6-1.77,1.047-2.58,1.67a17.768,17.768,0,0,1-2.194,1.695,13.753,13.753,0,0,1-1.683.648,11.1,11.1,0,0,0-2.405,1.246,4.872,4.872,0,0,0-1.633,1.6,2.393,2.393,0,0,0-.137,2.243,2.368,2.368,0,0,0,1.608,1.122,6.6,6.6,0,0,0,1.982,0c2.642-.2,5.272-.436,7.9-.673a21.071,21.071,0,0,0,3.3-.474c.573-.137,1.147-.324,1.72-.486a15.348,15.348,0,0,1,3-.449,2.493,2.493,0,0,1,.872.087c.611.2,1.047.823,1.67.947a2.493,2.493,0,0,0,1.246-.162,27.794,27.794,0,0,1,5.845-.623,2.413,2.413,0,0,0,2.268-1.01c.4-.8-.324-2.081-.648-3.141a9.612,9.612,0,0,1-.274-2.069,12.951,12.951,0,0,0-1.446-4.911,12.815,12.815,0,0,1-1.084-2.243,56.678,56.678,0,0,0,10.756-5.459,19.232,19.232,0,0,1,6.132-2.954,16.677,16.677,0,0,1,7.7.9,175.267,175.267,0,0,1,17.661,6.157c2.754,1.134,5.5,2.331,8.338,3.191a13,13,0,0,0,2.966,2.879,13.711,13.711,0,0,0,6.419,1.757,84.112,84.112,0,0,0,9.036.337,15.243,15.243,0,0,0,6.73-1.246,6.916,6.916,0,0,0,1.408-.935,5.584,5.584,0,0,0,4.437-1.633,10.757,10.757,0,0,0,3.378-5.335c.735-2.842.174-6.232,1.919-8.5.461-.623,1.072-1.122,1.533-1.745a4.911,4.911,0,0,0,.8-2.879.58.58,0,0,1,.075-.112,10.556,10.556,0,0,0,.748-2.867,16.383,16.383,0,0,1,.81-2.268,70.018,70.018,0,0,0,2.318-6.718,39.249,39.249,0,0,0,1.072-4.612c.187-1.246.3-2.493.4-3.739a23.224,23.224,0,0,1,1.134-5.771,46.962,46.962,0,0,0,2.617-13.81v-.274a9.26,9.26,0,0,0,8.2-9.422,9.833,9.833,0,0,0-.86-4.026,12.462,12.462,0,0,0,1.67-6.282Zm-44.594,54.179c.137.486.3.96.461,1.433-.735-.71-1.446-1.446-2.181-2.169.287.1.586.187.86.3a4.637,4.637,0,0,1,.823.436Zm-3.527-2.393c-4.312-3.739-9.3-6.643-13.71-10.27,2.405,1.184,4.749,2.568,7.067,3.889q4.125,2.356,8.363,4.524a6.843,6.843,0,0,1-1.757,1.857Zm1.832-9.422.212-.212v1.483l-1.159-.4a10.31,10.31,0,0,0,.91-.872Zm-37.926,10.1a35.678,35.678,0,0,0,4.587-6.543c1.708,2.979,4.487,5.135,6.842,7.64C486.441,647.9,482.627,647.486,478.814,647.286Z" transform="translate(32.726 -64.333)"/><path class="o" d="M415.35,438.25l2.717.548,9.26,13.7-4.076.548Z" transform="translate(102.322 108.41)"/><path class="p" d="M414.49,645.487a53.321,53.321,0,0,0,2.717,7.067,67.292,67.292,0,0,0,9.036-2.58,28.47,28.47,0,0,0-1.882-2.493,9.3,9.3,0,0,0-2.555-1.957,7.031,7.031,0,0,0-3.1,0C417.307,645.487,415.9,645.512,414.49,645.487Z" transform="translate(37.3 -43.264)"/><path class="o" d="M426.421,649.915a5.633,5.633,0,0,1-3.091-3.515,11.317,11.317,0,0,0-2.356-4.2,1.346,1.346,0,0,0-1.047.785c-.224.4-.361.848-.611,1.246-.5.71-1.371,1.059-1.994,1.658s-1,1.533-1.67,2.144a6.63,6.63,0,0,1-3.153,1.246,20.447,20.447,0,0,0-4.985,1.832,8.6,8.6,0,0,1-1.832.823,7.252,7.252,0,0,1-2.144,0l-4.911-.349a3.837,3.837,0,0,0-1.246,0,2.381,2.381,0,0,0-1.558,2.493,3.74,3.74,0,0,0,1.558,2.642,10.348,10.348,0,0,0,2.792,1.421,82.14,82.14,0,0,0,13.161,3.739v.972a22.783,22.783,0,0,0,10.033,2.331,1.694,1.694,0,0,0,.748-.124,1.645,1.645,0,0,0,.623-.972,38.886,38.886,0,0,0,2.056-10.669,8.5,8.5,0,0,0-.212-2.754c-.274-.885.648-.511-.2-.86" transform="translate(32.698 -44.041)"/><path class="o" d="M515.036,634.308c-14.557.872-28.94-3.39-43.522-3.839a21.248,21.248,0,0,0-5.409.337,27.253,27.253,0,0,0-5.359,2.081c-7.815,3.639-15.9,6.656-23.98,9.659L427.48,646a14.061,14.061,0,0,1-5.746,1.246c-.885,0-1.969-.187-2.493.548-1.508,2.243-.8,5.521.2,8.039.324.81.872,1.7,1.745,1.782a5.071,5.071,0,0,0,1.77-.449c1.683-.449,3.365.685,5.11.872,2.144.224,4.138-1,6.169-1.745,3.365-1.246,7.029-1.246,10.569-1.795,5.92-.985,11.417-3.739,16.552-6.867a19.319,19.319,0,0,1,6.169-2.917,17.075,17.075,0,0,1,7.765.885,178.2,178.2,0,0,1,17.81,6.057,83,83,0,0,0,9.3,3.4,33.651,33.651,0,0,0,20.851-1.246c2.331-.922,4.861-2.493,4.985-5.06.087-1.433-1.034-2.692-1.77-3.926-.474-.785-.96-1.57-1.471-2.331C522.5,638.882,519.461,634.046,515.036,634.308Z" transform="translate(38.256 -46.942)"/><path class="f" d="M515.036,634.308c-14.557.872-28.94-3.39-43.522-3.839a21.248,21.248,0,0,0-5.409.337,27.253,27.253,0,0,0-5.359,2.081c-7.815,3.639-15.9,6.656-23.98,9.659L427.48,646a14.061,14.061,0,0,1-5.746,1.246c-.885,0-1.969-.187-2.493.548-1.508,2.243-.8,5.521.2,8.039.324.81.872,1.7,1.745,1.782a5.071,5.071,0,0,0,1.77-.449c1.683-.449,3.365.685,5.11.872,2.144.224,4.138-1,6.169-1.745,3.365-1.246,7.029-1.246,10.569-1.795,5.92-.985,11.417-3.739,16.552-6.867a19.319,19.319,0,0,1,6.169-2.917,17.075,17.075,0,0,1,7.765.885,178.2,178.2,0,0,1,17.81,6.057,83,83,0,0,0,9.3,3.4,33.651,33.651,0,0,0,20.851-1.246c2.331-.922,4.861-2.493,4.985-5.06.087-1.433-1.034-2.692-1.77-3.926-.474-.785-.96-1.57-1.471-2.331C522.5,638.882,519.461,634.046,515.036,634.308Z" transform="translate(38.256 -46.942)"/><path class="p" d="M436.92,647.2q3.415,1.159,6.892,2.144c1.246-2.131,3.739-3.614,4.275-6.057a.573.573,0,0,0,0-.324.6.6,0,0,0-.262-.237,13.061,13.061,0,0,0-5.409-1.583c-1.5-.087-2.181,1.471-2.854,2.567C439.3,644.194,437.531,647.435,436.92,647.2Z" transform="translate(42.825 -44.302)"/><path class="o" d="M443.929,645.463a4.985,4.985,0,0,1-3.353-2.206c-.312-.561-.661-1.321-1.309-1.246s-.86.748-1,1.334a37.389,37.389,0,0,1-1.882,6.469,12.139,12.139,0,0,1-4.026,5.3c-.848.586-1.782,1.022-2.617,1.645a18,18,0,0,1-2.206,1.67,13.116,13.116,0,0,1-1.7.623,11.751,11.751,0,0,0-2.418,1.246,4.8,4.8,0,0,0-1.658,1.583,2.281,2.281,0,0,0-.125,2.206,2.355,2.355,0,0,0,1.608,1.1,6.774,6.774,0,0,0,2.007,0c2.655-.187,5.31-.424,7.964-.661a22.984,22.984,0,0,0,3.328-.461l1.732-.474a13.789,13.789,0,0,1,3.029-.449,2.353,2.353,0,0,1,.885.087c.611.2,1.047.81,1.683.935a2.814,2.814,0,0,0,1.246-.162,27.523,27.523,0,0,1,5.9-.611,2.488,2.488,0,0,0,2.293-1c.5-.972-.324-2.057-.661-3.1a9.974,9.974,0,0,1-.274-2.032,12.388,12.388,0,0,0-1.458-4.836c-.673-1.246-1.6-2.617-1.122-3.938a3.74,3.74,0,0,0,.449-1.359C450.061,644.977,445.151,645.738,443.929,645.463Z" transform="translate(39.006 -44.088)"/><path class="p" d="M480.844,617.33a11.368,11.368,0,0,1-5.808-5.758c-.237-.548-.436-1.134-.673-1.683a12.79,12.79,0,0,0-3.465-4.823,1.708,1.708,0,0,0-1.246-.536,1.358,1.358,0,0,0-.935,1.01,3.851,3.851,0,0,0-.1,1.558,27.765,27.765,0,0,0,.623,3.639l.71,3.216a7.059,7.059,0,0,0,.436,1.433,4.985,4.985,0,0,0,1.184,1.408c.648.6,1.309,1.172,1.969,1.745a6.762,6.762,0,0,0,1.246.86,7.241,7.241,0,0,0,2.206.648,18.772,18.772,0,0,1,8.276,3.191v-2.393a3.166,3.166,0,0,0-.623-1.732,11.056,11.056,0,0,0-3.8-1.782Z" transform="translate(50.625 -53.321)"/><path class="f" d="M480.844,617.33a11.368,11.368,0,0,1-5.808-5.758c-.237-.548-.436-1.134-.673-1.683a12.79,12.79,0,0,0-3.465-4.823,1.708,1.708,0,0,0-1.246-.536,1.358,1.358,0,0,0-.935,1.01,3.851,3.851,0,0,0-.1,1.558,27.765,27.765,0,0,0,.623,3.639l.71,3.216a7.059,7.059,0,0,0,.436,1.433,4.985,4.985,0,0,0,1.184,1.408c.648.6,1.309,1.172,1.969,1.745a6.762,6.762,0,0,0,1.246.86,7.241,7.241,0,0,0,2.206.648,18.772,18.772,0,0,1,8.276,3.191v-2.393a3.166,3.166,0,0,0-.623-1.732,11.056,11.056,0,0,0-3.8-1.782Z" transform="translate(50.625 -53.321)"/><ellipse class="o" cx="3.54" cy="3.565" rx="3.54" ry="3.565" transform="translate(557.567 532.277)"/><path class="o" d="M505.281,590.5a3.826,3.826,0,0,0-2.792.4,3.878,3.878,0,0,0-.96,1.309,19.01,19.01,0,0,0-1.845,4.337c-.312,1.246-.361,2.655-.76,3.938-.723,2.368-2.58,4.375-2.792,6.842-.1,1.109.087,2.405-.723,3.153a4.58,4.58,0,0,1-.636.461,4.788,4.788,0,0,0-1.4,1.433,4.7,4.7,0,0,1-.985,1.359c-.723.536-1.919.486-2.268,1.246s.561,1.795.349,2.692-1,1.072-1.558,1.57a5.445,5.445,0,0,0-1.346,2.493,8.313,8.313,0,0,1-6.78-1.683,21.587,21.587,0,0,1,1.059,7.752,3.166,3.166,0,0,1-.623,2.393,43.163,43.163,0,0,1,8.313,1.446,5.734,5.734,0,0,0,3.627,0,6.058,6.058,0,0,0,1.67-1.321c1.5-1.521,3.066-3.178,3.427-5.285a31.059,31.059,0,0,0,.062-3.577,20.165,20.165,0,0,1,.91-4.35,51.761,51.761,0,0,0,1.583-8.949c.162-1.87,1.782-3.365,2.63-4.985,1.6-3.153,3.241-6.431,3.353-9.971C506.851,592.059,506.452,590.625,505.281,590.5Z" transform="translate(53.633 -56.803)"/><path class="f" d="M505.281,590.5a3.826,3.826,0,0,0-2.792.4,3.878,3.878,0,0,0-.96,1.309,19.01,19.01,0,0,0-1.845,4.337c-.312,1.246-.361,2.655-.76,3.938-.723,2.368-2.58,4.375-2.792,6.842-.1,1.109.087,2.405-.723,3.153a4.58,4.58,0,0,1-.636.461,4.788,4.788,0,0,0-1.4,1.433,4.7,4.7,0,0,1-.985,1.359c-.723.536-1.919.486-2.268,1.246s.561,1.795.349,2.692-1,1.072-1.558,1.57a5.445,5.445,0,0,0-1.346,2.493,8.313,8.313,0,0,1-6.78-1.683,21.587,21.587,0,0,1,1.059,7.752,3.166,3.166,0,0,1-.623,2.393,43.163,43.163,0,0,1,8.313,1.446,5.734,5.734,0,0,0,3.627,0,6.058,6.058,0,0,0,1.67-1.321c1.5-1.521,3.066-3.178,3.427-5.285a31.059,31.059,0,0,0,.062-3.577,20.165,20.165,0,0,1,.91-4.35,51.761,51.761,0,0,0,1.583-8.949c.162-1.87,1.782-3.365,2.63-4.985,1.6-3.153,3.241-6.431,3.353-9.971C506.851,592.059,506.452,590.625,505.281,590.5Z" transform="translate(53.633 -56.803)"/><path class="o" d="M512.148,641.926c-3.029-1.446-5.247-4.125-7.7-6.431-4.674-4.4-10.395-7.478-15.318-11.628-3.265-2.729-6.232-5.908-9.759-8.2a24.39,24.39,0,0,0-10.457-3.652,2.779,2.779,0,0,0-1.246,0,2.866,2.866,0,0,0-1.184.935,37.662,37.662,0,0,0-4.225,5.8c-6.232,10.594-15.093,19.493-22.434,29.339a1.869,1.869,0,0,0-.361.7,1.733,1.733,0,0,0,.274,1.084l1.5,2.916c.835,1.645,2.181,3.552,3.976,3.228a4.351,4.351,0,0,0,2.081-1.334l6.705-6.419,7.029-6.718c4.113-3.926,8.3-7.952,10.993-12.987,2.094,3.639,5.82,6.02,8.363,9.348.972,1.246,1.77,2.655,2.642,4,1.383,2.144,2.966,4.163,4.537,6.232l8.064,10.282a15.429,15.429,0,0,0,3.739,3.739,14.271,14.271,0,0,0,6.469,1.732,85.455,85.455,0,0,0,9.111.324,15.706,15.706,0,0,0,6.793-1.247,6.157,6.157,0,0,0,3.677-5.471,8.026,8.026,0,0,0-1.159-3.4C521.334,648.894,517.57,644.506,512.148,641.926Z" transform="translate(43.45 -51.494)"/><ellipse class="q" cx="2.73" cy="2.742" rx="2.73" ry="2.742" transform="translate(560.559 535.568)"/><path class="p" d="M504.209,594.222a5.247,5.247,0,0,1,.3,3.938,15.979,15.979,0,0,1-1.757,3.627,17.271,17.271,0,0,1-2.281,3.24c4.213.2,8.288-1.446,11.99-3.44,2.991-1.608,5.97-3.59,7.565-6.593a3.489,3.489,0,0,1-2.792-.523,9.972,9.972,0,0,1-2.131-1.982L513,590.122a9.485,9.485,0,0,1-1.246-1.708,4.712,4.712,0,0,1-.561-2.754,16.047,16.047,0,0,1-2.792,2.318c-1.508.984-3.166,1.695-4.686,2.667-.523.349-1.72.9-1.408,1.6S503.785,593.475,504.209,594.222Z" transform="translate(58.481 -57.969)"/><path class="f" d="M504.209,594.222a5.247,5.247,0,0,1,.3,3.938,15.979,15.979,0,0,1-1.757,3.627,17.271,17.271,0,0,1-2.281,3.24c4.213.2,8.288-1.446,11.99-3.44,2.991-1.608,5.97-3.59,7.565-6.593a3.489,3.489,0,0,1-2.792-.523,9.972,9.972,0,0,1-2.131-1.982L513,590.122a9.485,9.485,0,0,1-1.246-1.708,4.712,4.712,0,0,1-.561-2.754,16.047,16.047,0,0,1-2.792,2.318c-1.508.984-3.166,1.695-4.686,2.667-.523.349-1.72.9-1.408,1.6S503.785,593.475,504.209,594.222Z" transform="translate(58.481 -57.969)"/><path class="q" d="M506.789,592.947a3.552,3.552,0,0,0,0,4.113c.125.15.573,1.084.76,1.1a.685.685,0,0,0,.474-.249,31.274,31.274,0,0,0,2.667-3.178,5.932,5.932,0,0,1,3.39-2.219,7.329,7.329,0,0,1,4.674,1.458,4.437,4.437,0,0,1,1.608,1.246,4.352,4.352,0,0,1,.523,1.782,85.887,85.887,0,0,1,.474,11.33,44.651,44.651,0,0,1-.536,8.164c-.274,1.383-.673,2.742-.86,4.15a26.472,26.472,0,0,0-.174,3.739v5.21a13.7,13.7,0,0,0,.2,2.854c.249,1.134.785,2.194,1.147,3.3a21.6,21.6,0,0,1,.76,3.9l.711,5.384c.224,1.7.4,3.552-.636,4.985-.461.611-1.072,1.109-1.545,1.72-1.757,2.293-1.246,5.571-1.932,8.375a10.445,10.445,0,0,1-3.415,5.235,5.646,5.646,0,0,1-4.5,1.608c-2.194-.411-3.5-2.692-4.1-4.848s-.81-4.5-2.106-6.319a16.761,16.761,0,0,0-4.163-3.477,7.191,7.191,0,0,1-3.253-4.225c-.137-.785,0-1.6-.137-2.393a5.646,5.646,0,0,0-3.477-4.574c-1.122-.436-2.493-.6-3.141-1.62a7.564,7.564,0,0,0,3.278-4.4,22.6,22.6,0,0,0,.8-5.559l.374-6.232c.174-2.8.249-5.571,1.483-8.089.548-1.122,1.246-2.181,1.807-3.29a35.717,35.717,0,0,0,1.932-4.823c.9-2.568,1.795-5.135,2.592-7.727a14.559,14.559,0,0,1,1.421-3.6C504.558,594.6,505.53,593.2,506.789,592.947Z" transform="translate(55.951 -56.283)"/><path class="o" d="M492.4,633.851h1.658l.349-2.493a5.194,5.194,0,0,1,.349-1.458,8.724,8.724,0,0,1,.96-1.4c1.62-2.306,1.508-5.359,1.907-8.164a41.54,41.54,0,0,1,3.639-10.669l3.216-7.167a9.888,9.888,0,0,0,.7-1.832,10.98,10.98,0,0,0,.2-2.119c0-1.109.349-5.147.386-6.232,0-.411-.91-.187-1.1-.548-.4-.8-.947,1.358-1.708,1.832a4.188,4.188,0,0,0-1.483,2.169c-.7,1.795-1.122,3.739-1.77,5.521a11.279,11.279,0,0,1-3,4.886c-.661.573-1.421,1.034-2.044,1.658-1.994,1.969-2.194,5.1-2.256,7.914C492.345,617.474,492.021,633.851,492.4,633.851Z" transform="translate(56.448 -56.506)"/><path class="o" d="M514.488,590.5a5.659,5.659,0,0,0-2.954,4.051,20.489,20.489,0,0,1-1.5,4.985c-2.019,3.515-7.167,4.537-8.6,8.338a15.329,15.329,0,0,0-.573,3.926c-.249,2.729-1.147,5.359-1.421,8.076a35.988,35.988,0,0,0,.15,6.344l1.807,21.462a28.666,28.666,0,0,1-.536,9.447,9.1,9.1,0,0,0,5.409-.9c1.682-.773,3.228-1.832,4.861-2.729,2.792-1.546,5.883-2.63,8.338-4.686a5.1,5.1,0,0,0,1.122-1.246,10.778,10.778,0,0,0,.748-2.817,15.215,15.215,0,0,1,.81-2.219,65.336,65.336,0,0,0,2.343-6.631,38.079,38.079,0,0,0,1.072-4.537c.2-1.246.312-2.493.411-3.739a21.934,21.934,0,0,1,1.147-5.671,45.68,45.68,0,0,0,2.63-13.61,7.116,7.116,0,0,0-.137-1.994,10.673,10.673,0,0,0-1.1-2.281c-.748-1.408-1.246-2.954-1.894-4.387a21.574,21.574,0,0,0-7.366-7.74C517.816,590.965,516.121,589.918,514.488,590.5Z" transform="translate(58.21 -56.818)"/><path class="p" d="M485.147,620a13,13,0,0,1-3.427-2.6c-.449-.523-.823-1.109-1.246-1.633a8.488,8.488,0,0,0-4.312-2.493,21.071,21.071,0,0,0-4.985-.486,9.047,9.047,0,0,0-3.328.4,3.39,3.39,0,0,0-2.206,2.368,3.926,3.926,0,0,0,1.683,3.49,7.928,7.928,0,0,0,3.353,1.62,26.829,26.829,0,0,0,3.029.361c5.958.623,11.279,3.864,16.5,6.818q6.88,3.913,14.034,7.279a29.16,29.16,0,0,0,.237-4.3c0-1.072-.087-2.717-1.1-3.353a22.009,22.009,0,0,0-4.462-1.334,70.227,70.227,0,0,1-8.986-3.639A44.712,44.712,0,0,1,485.147,620Z" transform="translate(49.899 -51.292)"/><ellipse class="p" cx="10.619" cy="10.681" rx="10.619" ry="10.681" transform="translate(550.488 513.669)"/><path class="o" d="M519.105,600.448a17.025,17.025,0,0,0-2.057,3.851c-1.246,2.692-3.365,4.985-4.4,7.839s-1.047,6.518-3.178,8.849a3.1,3.1,0,0,0-.935,1.346,6.433,6.433,0,0,1-.1.972c-.312.848-1.7.885-1.957,1.757-.075.249,0,.523-.125.773-.212.561-.96.648-1.446.985-1.034.7-.823,2.318-1.558,3.328a2.8,2.8,0,0,1-2.655.935,9.349,9.349,0,0,1-2.754-1.034,2.658,2.658,0,0,0-1-.312,2.056,2.056,0,0,0-1.147.4,7.067,7.067,0,0,0-2.867,6.045,19.744,19.744,0,0,0,1.645,6.768,2.717,2.717,0,0,0,.536,1.01,2.381,2.381,0,0,0,2.642.2,12.468,12.468,0,0,1,2.58-1.159c1.645-.3,3.253.835,4.923.735a6.843,6.843,0,0,0,3.315-1.458,18.324,18.324,0,0,0,4.462-3.739c.723-.96,1.246-2.044,1.894-3.066a39.342,39.342,0,0,1,2.68-3.577l6.132-7.478a17.233,17.233,0,0,0,1.645-2.268,15.99,15.99,0,0,0,1.246-3.427,26.249,26.249,0,0,0,1.246-6.095,23.42,23.42,0,0,0-.449-5.11,18.067,18.067,0,0,0-1.246-4.873C524.851,599.824,521.61,597.531,519.105,600.448Z" transform="translate(56.622 -54.66)"/><path class="r" d="M541.617,595.85a11.964,11.964,0,0,0-4.911-9.721,14.221,14.221,0,0,0-12.077-13.847,13.8,13.8,0,0,0-27.183.735c-4.412-1-8.45.3-9.186,3.016s2.381,6.232,7.029,7.478a13.1,13.1,0,0,0,4.512.449,13.809,13.809,0,0,0,9.5,5.92,14.171,14.171,0,0,0,10.37,10.694,11.9,11.9,0,0,0,3.2,4.425v1.034a8.986,8.986,0,1,0,17.972,0,9.6,9.6,0,0,0-.86-3.976A12.014,12.014,0,0,0,541.617,595.85Z" transform="translate(55.447 -63.996)"/><path class="f" d="M491.255,576.607c.735-2.717,4.773-4.013,9.186-3.016a14.034,14.034,0,0,1,13.71-11.815h.91a13.509,13.509,0,0,0-3.914-.586,14.034,14.034,0,0,0-13.71,11.815c-4.412-1-8.45.3-9.186,3.016s2.38,6.232,7.029,7.478a13.706,13.706,0,0,0,2.667.461C493.5,582.627,490.52,579.387,491.255,576.607Z" transform="translate(55.444 -63.997)"/><path class="f" d="M523.457,601.965a9.372,9.372,0,0,1,0-1.022,11.64,11.64,0,0,1-3.2-4.425,14.133,14.133,0,0,1-10.37-10.706,13.772,13.772,0,0,1-9.51-5.908,11.962,11.962,0,0,1-2.655-.075,13.847,13.847,0,0,0,9.161,5.446,14.171,14.171,0,0,0,10.37,10.694,11.9,11.9,0,0,0,3.2,4.425v1.034a9.148,9.148,0,0,0,8.936,9.3A9.3,9.3,0,0,1,523.457,601.965Z" transform="translate(57.803 -59.406)"/><ellipse class="p" cx="1.633" cy="2.181" rx="1.633" ry="2.181" transform="translate(562.033 525.784) rotate(-37.22)"/></g></g></svg>