<svg xmlns="http://www.w3.org/2000/svg" xmlns:xlink="http://www.w3.org/1999/xlink" width="2263.735" height="1681.495" viewBox="0 0 2263.735 1681.495"><defs><style>.a{fill:none;}.b{clip-path:url(#a);}.c{fill:#fff;}.d{fill:rgba(0,0,0,0);stroke:#6c63ff;stroke-miterlimit:10;stroke-width:2px;opacity:0.8;}.e{fill:#6393f4;}</style><clipPath id="a"><rect class="a" width="2263.735" height="1681.495"/></clipPath></defs><g class="b" transform="translate(0 0)"><g transform="translate(131.011 386.159)"><path class="c" d="M544.691,284.6a66.149,66.149,0,0,0-4.324-16.555,7.493,7.493,0,0,0-3.81-4.692,7.849,7.849,0,0,0-3.78-.042l-19.407,2.97a7.441,7.441,0,0,0-4.428,1.72c-2.528,2.658-.039,6.939-.116,10.606-.087,4.124-3.751,7.471-7.725,8.579a29.2,29.2,0,0,1-12.274-.152l-27.137-4.217a44.743,44.743,0,0,0,20.53-13.7c3.571-4.231,5.471-12.129.31-14.132a12.668,12.668,0,0,0-4.713-.379c-12.3.1-21.97-10.17-33.481-14.494a37.019,37.019,0,0,0-41.662,12.42l14.456.7a6.417,6.417,0,0,1,3.851,1.027c3.168,2.6-.771,7.6-.324,11.679.58,5.3,7.611,6.426,12.912,6.962s12.025,4.842,9.475,9.52c-26.64,9.176-53.75-17.937-81.728-14.6-7.081.845-13.767,3.627-20.681,5.376C298.4,283.877,254.74,255.367,211.6,261.4a163.841,163.841,0,0,0-28.167,7.429c-5.872,1.928-12,4.011-16.263,8.483s-5.89,12.118-1.848,16.793a94.518,94.518,0,0,1-33.122-3.148,18.556,18.556,0,0,1,9.54,16.354,196.528,196.528,0,0,0-50.345,15.351,84.8,84.8,0,0,0,10.42,13.881l-22.02,14.147c7.44,1.874,11.286,12.019,6.96,18.355,7.714-3.432,12.495-12.309,20.743-14.109,5.4-1.179,10.9,1.032,16.029,3.108s10.761,4.09,16.068,2.532,9.222-8.44,5.849-12.824a274.585,274.585,0,0,1,69.749-10.9,8.746,8.746,0,0,1,5.282,1c3.075,2.133,2.266,6.741,2.1,10.48s2.748,8.653,6.09,6.967c-3.931,3.409-.571,9.827,3.2,13.412s8.318,8.532,6.009,13.195c-.6,1.217-1.625,2.191-2.2,3.419-1.712,3.625,1.006,7.851,4.212,10.259s7.132,4.09,9.359,7.423,1.215,9.169-2.766,9.634L235.154,398.28a29.463,29.463,0,0,0-7.645,14.488c12,9.811,13.806,29.779,3.759,41.583-5.134,6.032-12.436,9.7-18.809,14.4s-12.269,11.4-12.253,19.326c.028,13.685-1.09,26.4,4.038,39.088a602.11,602.11,0,0,0,32.689,68.2c3.234,5.784,7.413,12.123,13.964,13.119q-12.419-30.233-22.359-61.407c4.316.017,9.3.359,11.834,3.856,2.1,2.9,1.645,6.832,2.3,10.347a32.051,32.051,0,0,0,4.087,9.609l39.537,70.426c3.278,5.838,7.037,12.1,13.3,14.469,4,1.512,8.638,1.227,12.324,3.4,2.889,1.706,4.835,4.734,7.781,6.341,8.329,4.543,19.91-4.17,27.693,1.254,2.225,1.551,3.641,4.015,5.692,5.791,7.188,6.225,18.981,2.061,27.279,6.7,5.348,2.993,8.12,8.979,10.972,14.4,7.145,13.587,18.707,26.9,34.021,27.98,4.81.34,9.724-.572,14.426.5s9.33,5.173,8.576,9.936c-1.294,8.165,2.74,17.106,1.657,25.3-1.974,14.929-23.149,21.49-24.968,36.438-.4,3.273.225,6.651-.554,9.855-.955,3.926-3.9,7.123-4.952,11.026-1.986,7.4,3.313,14.757,9.134,19.733s12.765,9.267,15.947,16.232c3.364,7.362,1.712,15.947,2.805,23.967,2.388,17.509,17.511,30.489,33.074,38.858,4.742,2.55,9.833,5.018,12.9,9.442,4.006,5.774,3.607,13.385,4.944,20.284,3.276,16.9,17.5,30.816,17.9,48.021.287,12.229-6.511,23.323-10.571,34.861a81.3,81.3,0,0,0,6.639,67.426c3.038,5.129,6.671,9.965,8.82,15.526,3.835,9.923,2.59,21.2,6.126,31.236,4.674,13.265,17.519,24.221,16.289,38.232,5.831,12.109,18.708,18.059,31.656,21.664l23.206,6.46c4.443,1.237,9.087,2.483,13.611,1.588s8.843-4.653,8.726-9.263c-11.38-2.567-23.125-5.3-32.506-12.23s-15.807-19.283-12.248-30.393c1.65-5.151,5.162-11.1,1.823-15.357-1.911-2.437-5.406-3.074-7.562-5.3-3.363-3.468-2.207-9.295.21-13.477s5.911-7.92,6.887-12.651a13.2,13.2,0,0,0-6.187-13.733,32.81,32.81,0,0,0,11.486-7.37c3.021-3.449,4.416-8.767,2.04-12.689,7.056.9,15.387,1.333,20.019-4.064,3.7-4.31,3.445-10.754,1.983-16.243s-3.932-10.82-4.009-16.5a300.681,300.681,0,0,0,48.778-1.654,31.629,31.629,0,0,0-14.83-18.573c7.331-1.24,14.01-10.018,16.327-17.083s1.726-14.762.294-22.058a11.838,11.838,0,0,1-.219-5.779c.826-2.631,3.41-4.237,5.8-5.61l36.39-20.9a21.2,21.2,0,0,0,5.819-4.3c3.813-4.479,3.248-11.239,1.3-16.787s-5.079-10.765-5.831-16.6c-2.249-17.445,16.426-29.962,22.728-46.385,2.473-6.445,2.977-13.45,3.456-20.336.514-7.4.552-15.987-5.127-20.754-5.444-4.569-13.95-3.55-19.646-7.8-5.223-3.9-7.024-11.464-12.73-14.611-5.181-2.858-11.678-1.04-17.44-2.385-10.146-2.367-16.531-14.06-26.893-15.143-5.847-.611-12.463,2.247-17.255-1.157-4.222-3-4.392-9.031-5.2-14.148a39.51,39.51,0,0,0-31.889-31.992c-6.028-.967-12.59-.6-17.718-3.912-5.193-3.354-7.574-9.635-11.653-14.28-6.574-7.487-16.928-10.147-26.627-12.427l-39.452-9.275c-7-1.646-16.031-2.519-19.789,3.615a28.353,28.353,0,0,0-2.341,7.362A22.8,22.8,0,0,1,447.5,722.154a25.357,25.357,0,0,0-14.952-11.569c-4-1.115-8.283-1.239-12.1-2.879a16.994,16.994,0,0,1-7.374-23.573,21.153,21.153,0,0,0-3.615-25.444c-6.709-6.023-16.414-7.479-25.41-6.876-2.356-5.141,1.583-10.942,5.829-14.678s9.4-7.409,10.325-12.988c1.454-8.776-9.744-15.442-18.246-12.825s-13.929,10.875-17.516,19.015c-2.058,4.671-3.808,9.589-7.054,13.527s-8.475,6.758-13.42,5.494c-7-1.789-9.7-10.107-11.254-17.165-2.079-9.469-4.17-19.07-3.734-28.755s3.7-19.629,10.842-26.186c11.638-10.684,29.49-9.636,45.2-7.932-3.711-4.181-2.794-11.227,1.177-15.162a17.238,17.238,0,0,1,15.624-3.838,21.531,21.531,0,0,1,12.1,7.237c4.463,5.442,5.732,12.789,9.106,18.965s10.959,11.445,17.168,8.131c5.363-2.862,6.214-10.3,4.879-16.229s-4.17-11.7-3.686-17.757c.922-11.562,12.908-18.522,23.484-23.284s22.688-11.166,24.363-22.643a20.642,20.642,0,0,1,1.255-6.58,12.908,12.908,0,0,1,4.736-4.453c30.868-20.4,62.249-41.048,97.529-52.195,1.836-.58,2.051.065,3.922-.39,2.618-1.513.883-5.7-1.627-7.385s-5.865-2.979-6.5-5.935c-.468-2.173.812-4.307,1.145-6.5.817-5.4-5.643-10.387-10.661-8.228-2.834-3.753,2.774-8.114,7.308-9.363a198.446,198.446,0,0,1,41.693-6.811,7.51,7.51,0,0,1,4.744.807c2.368,1.641,2.066,5.4.387,7.745s-4.289,3.812-6.381,5.793a17.417,17.417,0,0,0-4.518,17.518c7.361,3.744,15.364,7.6,23.517,6.28s15.389-10.479,11.557-17.8c-3.568-6.813-14.288-8.349-16.131-15.816-2.158-8.742,10.217-16.517,7.429-25.079-1.221-3.75-4.959-5.958-7.827-8.665a23.513,23.513,0,0,1-5.145-26.073,29.664,29.664,0,0,1-26.017-8.142c-6.223-6.28-11.188-16.187-20.024-15.906-8.109.258-15.094,9.718-22.676,6.832-1.865-.71-3.832-2.155-5.64-1.308a4.66,4.66,0,0,0-2.1,3.492c-1.927,9.213,1.388,19.709-3.633,27.67-5.464,8.663-18.1,9.864-24.726,17.676-3.6,4.241-4.989,9.955-8.294,14.425s-10.32,7.313-14.286,3.417a19.691,19.691,0,0,0-5.349-23.944,52.538,52.538,0,0,0-11.815-5.747,70.071,70.071,0,0,1-13.2-7.357,13,13,0,0,1-4.846-5.185,11.816,11.816,0,0,1,.331-8.2,33.526,33.526,0,0,1,26.68-22.113c5.281-.718,11.427-.465,14.922-4.489,1.849-2.129,2.82-5.348,5.5-6.213a8.118,8.118,0,0,1,5.081.626l19.711,6.938a13.835,13.835,0,0,0,7.022,1.161,4.761,4.761,0,0,0,4.117-5c-.63-3.273-5.667-4.844-5.208-8.146a5.438,5.438,0,0,1,1.65-2.773,70.472,70.472,0,0,1,55.893-22.072c2.488,4.086-1.447,8.925-4.721,12.413s-5.9,9.721-1.946,12.406a10.856,10.856,0,0,0,5.248,1.182,45.826,45.826,0,0,1,13.969,4.237q10.217,4.446,20.042,9.73c-.579-4.319-1.131-8.868.506-12.907s6.289-7.206,10.353-5.633c3.916,1.516,5.925,6.7,10.1,7.176,5.566.634,7.761-7.588,5.437-12.685s-6.927-9.364-7.311-14.952c-.259-3.77,1.176-8.446-1.836-10.729a8.2,8.2,0,0,0-3.553-1.246l-75.2-13.837c-4.465-.822-10.917-.192-11.115,4.344-.111,2.532,2.151,5.037,1.149,7.365-1.069,2.485-4.581,2.257-7.139,3.136-3.969,1.364-5.961,6.077-5.58,10.256a28.541,28.541,0,0,0,4.71,11.558C556.987,287.021,549.581,286.644,544.691,284.6Z" transform="translate(-79.792 -191.275)"/><path class="c" d="M303.889,229.644a24.35,24.35,0,0,0-26.748,8.01c-1.238,1.63-2.278,3.878-1.242,5.643,1.486,2.531,5.273,1.531,8.064.626a20.3,20.3,0,0,1,12.738-.3c2.621.9,4.967,2.491,7.6,3.357a7.653,7.653,0,0,0,7.8-1.14c1.807-1.843,1.92-4.708,1.924-7.289a5.862,5.862,0,0,0-1.494-4.818,7.658,7.658,0,0,0-3.455-1.022,11.9,11.9,0,0,1-6.964-4.069" transform="translate(101.012 -200.151)"/><path class="c" d="M307.474,225.131a6.194,6.194,0,0,0-5.987,8.724,25.108,25.108,0,0,0,10.01.653,8.556,8.556,0,0,0,7-6.415,16.108,16.108,0,0,1-11.405-2.178" transform="translate(124.541 -203.188)"/><path class="c" d="M363.947,222.516a115.16,115.16,0,0,0-25.669,8.72A19.286,19.286,0,0,1,350.6,250.607a10.09,10.09,0,0,0,.117,4.789c.943,2.285,3.675,3.143,6.076,3.73a40.063,40.063,0,0,0,13.327,1.7,13.576,13.576,0,0,0,11.031-6.741,48.042,48.042,0,0,1,2.294-5.423c5.757-8.768,22.859,1.834,29.04-6.64,2.177-2.985,1.978-7.478,4.817-9.844a10.82,10.82,0,0,1,4.951-1.89,347.706,347.706,0,0,1,37.61-5.357c5.982-.52,13.779-2.668,13.829-8.673a104.179,104.179,0,0,0-66.456,8.94c-7.408,3.71-17.206,11.515-24.342,6.6-2.672-1.842-2.54-6.8-6.217-8.872C372.915,220.808,367.938,221.668,363.947,222.516Z" transform="translate(159.038 -213.18)"/><path class="c" d="M391.713,236.837l10.577,2.032a13.706,13.706,0,0,0-14.263,14.853c9.9,3.309,20.7.089,31.137.529s22.573,7.893,20.792,18.182c-.539,3.111-2.336,6.221-1.4,9.237.655,2.114,2.519,3.614,3.572,5.561,2.193,4.057.44,9.189-2.329,12.877s-6.491,6.631-8.921,10.55c-6.045,9.748-2.61,22.35.99,33.24A29.306,29.306,0,0,0,437.5,355.15c5.335,5.672,14.029,6.165,21.815,6.279,5.667.083,12.159-.2,15.742-4.588,4.679-5.732,1.407-14.676,4.487-21.4,2.8-6.11,9.925-8.731,16.383-10.59,11.831-3.406,23.887-6.3,35.072-11.446,13.888-6.388,26.868-16.343,42.133-17.166,4.283-.231,8.671.275,12.8-.9s8.044-4.74,7.731-9.017c-.267-3.655-3.359-6.339-5.775-9.094s-4.314-6.992-2.093-9.906l40.012-7.474c-2.836-7.729-5.046-17.909,1.472-22.94,2.352-1.815,5.5-2.541,7.5-4.735,3.412-3.74,1.7-10.184-2.243-13.364s-9.265-3.919-14.311-4.339c-17.544-1.457-35.189-.494-52.767.469l-103.085,5.65c-6.917.379-14.9-.2-21.248,2.16-5.371,2-9.19,5.665-15.332,6.954C414.454,232.081,401.973,230.47,391.713,236.837Z" transform="translate(204.958 -213.722)"/><path class="c" d="M490.476,272.9a4.256,4.256,0,0,0-3.079.7,3.887,3.887,0,0,0-1,2.374,15.677,15.677,0,0,0,2.277,11.221,10.988,10.988,0,0,0,10.058,4.822c4.763-.607,8.272-4.67,12.651-6.653,6.748-3.053,35.406-7.812,15.582-18.522-6.832-3.691-11.246-.433-16.631,2a37.841,37.841,0,0,1-19.857,4.062Z" transform="translate(295.674 -166.181)"/><path class="c" d="M581.566,225.853a11.32,11.32,0,0,0-5.507,4.794,4.837,4.837,0,0,0,1.814,6.416,7.218,7.218,0,0,0,2.7.428l9.412.281c4,.119,8.993.971,10.068,4.824.8,2.861-.988,6.538,1.167,8.583a6.068,6.068,0,0,0,3.2,1.249,21.818,21.818,0,0,0,9.484.306c6.848-1.837,3.25-6.017,5.407-9.739,3.3-5.695,2.729-2.247,8.544-5.511,4.295-2.41,9.844-6.783,6.259-12.926C627.883,213.877,590.764,221.265,581.566,225.853Z" transform="translate(378.22 -208.785)"/><path class="c" d="M695.408,220.3l-5.465.729c-12.325,1.645-24.719,3.3-36.59,7.006a60.9,60.9,0,0,0,16.024,3.932,49.218,49.218,0,0,1,8.976,1.276c5.243,1.561,10.526,5.591,15.591,3.527,3.141-1.28,4.166-4.55,6.767-6.283,1.8-1.2,8.61-3.134,9.371-4.341C716.241,216.38,700.141,219.67,695.408,220.3Z" transform="translate(450.153 -208.603)"/><path class="c" d="M699.76,235.148a102.5,102.5,0,0,0-20.169,14.77c-2.568,2.414-5.191,5.416-4.958,8.933.31,4.674,5.288,7.385,9.6,9.211l17.472,7.4c2.12-2.988.18-7.111-2.011-10.047s-4.794-6.332-3.826-9.865c1.1-4.032,6.02-5.405,10.142-6.1,6.716-1.132,24.833-1.041,22.656-11.864C726.1,224.829,706.5,231.379,699.76,235.148Z" transform="translate(469.801 -198.609)"/><path class="c" d="M686.432,642.923c-1.663,4.815-1.821,10.488,1.056,14.692,3.228,4.718,9.69,6.476,15.28,5.28a27.526,27.526,0,0,0,14.186-9.121,48.847,48.847,0,0,0,8.16-12.513,97.677,97.677,0,0,0,6.048-22.13l5.425-28.482c1.212-6.365,1.165-25.881-10.534-19.523-3.2,1.737-10.6,15.452-13.946,19.341-6.037,7.01-6.836,13.811-10.014,22.3C698.112,623.4,690.113,632.27,686.432,642.923Z" transform="translate(479.616 115.342)"/><path class="c" d="M1015.086,686.139a85.273,85.273,0,0,1-11.117-5.293,93.71,93.71,0,0,0-5.636,30.716l26.2-14.824c3.941-2.23,8.407-5.328,8.323-9.855a3.116,3.116,0,0,0-1.448-2.835,3.527,3.527,0,0,0-1.836-.215c-3.885.324-7.426,2.235-11.091,3.564s-7.949,2.032-11.312.059" transform="translate(768.898 217.88)"/><path class="c" d="M1099.248,692.57a56.7,56.7,0,0,0-8.4,3.015c-6.012,3.059-10.1,8.868-15.511,12.9-5.177,3.855-11.409,5.972-17.526,8.03-1.8,1.591-.973,4.794.981,6.192a12.149,12.149,0,0,0,6.919,1.555c6.355.14,13.052.2,18.619-2.868a58.738,58.738,0,0,0,8.765-6.957c6.509-5.431,14.325-9.014,22.063-12.477a25.326,25.326,0,0,0,7.69-4.6c4.862-4.79,5.2-12.18-1.807-13.81C1115.371,682.231,1104.635,690.825,1099.248,692.57Z" transform="translate(822.933 220.251)"/><path class="c" d="M1121.723,676.04a21.853,21.853,0,0,0-6.686-17.906c-.072,6.595-.272,13.62-3.981,19.073-2.642,3.886-6.786,6.51-9.682,10.211s-4.18,9.568-.784,12.815a12.725,12.725,0,0,0,7.542,2.6c6.76.8,14.585,1.239,19.327-3.645,2.588-2.666,3.847-6.614,7-8.574a8.522,8.522,0,0,0,3.073-2.2c1.3-2.072-.768-4.8-3.1-5.549s-4.9-.4-7.242-1.1-4.492-3.343-3.29-5.475" transform="translate(861.505 196.895)"/><path class="c" d="M1105.109,552.694a30.383,30.383,0,0,1-10.843.64c-6.019-1.107-10.7-5.642-15.562-9.362a68.643,68.643,0,0,0-40.106-14.013c-13.2-.249-26.53,3.328-39.5.832.847,4.712,4.88,8.247,9.182,10.347s9.051,3.158,13.374,5.216a31.928,31.928,0,0,1,15.467,16.091c1.392,3.25,2.268,6.787,4.378,9.625,4.311,5.8,12.482,7.074,19.693,6.6,9.4-.618,19.222-3.322,27.968.18,6.691,2.68,11.48,8.536,17.067,13.09s13.457,7.934,19.872,4.648a32.851,32.851,0,0,1-22.73-31.61c6.292.579,24.415.355,23.439-10.337C1125.984,545.58,1110.515,551.717,1105.109,552.694Z" transform="translate(769.608 78.456)"/><path class="c" d="M1101.665,594.978c1.117-6.128,7.228-11.539,5.324-17.469-1.316-4.1-6.072-6.126-10.377-6.227s-8.537,1.182-12.843,1.3a62.586,62.586,0,0,0-8.409.119c-8.547,1.4-13.815,10.363-21.87,13.549-4.9,1.937-10.4,1.567-15.494,2.905-11.563,3.04-18.879,13.966-26.962,22.775A96.218,96.218,0,0,1,962.2,640.414c-6.574,1.522-13.642,2.5-18.867,6.766-6.92,5.654-8.624,15.348-10.163,24.15a398.893,398.893,0,0,1-19.419,71.284L941.2,746.12c5.22.666,10.629,1.318,15.659-.228a45.456,45.456,0,0,0,10.3-5.486,102.825,102.825,0,0,1,40.171-14.5c7.19-.987,14.728-1.168,21.475,1.5s12.535,8.733,13.1,15.968a16.867,16.867,0,0,1,16.858,4.1,29.3,29.3,0,0,1,8.048,16.067c.724,3.756,1.447,8.257,4.932,9.833,2.844,1.286,6.106-.1,9.217-.348,10.556-.845,19.315,11.464,29.69,9.344,11.127-2.273,13.859-18.938,24.715-22.276,6.235-1.917,14.98.414,17.965-5.385,2.632-5.112-2.618-11.011-2.077-16.734.667-7.048,8.98-10.039,15.389-13.046,22.094-10.367,32.579-40.1,21.872-62.037-6.343-12.995-18.825-23.224-21.13-37.5-1.774-10.983,2.557-23.791-4.447-32.436-3.562-4.4-9.594-6.826-11.713-12.073-1.334-3.3-.8-7.051-1.516-10.541s-3.762-7.14-7.208-6.235c-10,2.626-13.194,33.525-18.55,41.032C1115.806,616.555,1099.087,609.038,1101.665,594.978Z" transform="translate(690.746 109.893)"/><path class="c" d="M922.15,548.424c-3.418-.958-7.15-1.9-10.426-.533s-5.188,6.178-2.559,8.564c20.564-.8,41.254-1.6,61.643,1.2,23.492,3.218,46.741,11.188,70.336,8.843a357.9,357.9,0,0,0-41.031-9.521l-23.1-4.413a178.586,178.586,0,0,0-18.757-2.9C945.082,548.574,935.108,552.056,922.15,548.424Z" transform="translate(685.372 94.401)"/><path class="c" d="M935.482,522.515c-1.707-.143-3.822-.265-4.705,1.2-.844,1.4.122,3.255-.331,4.828-.62,2.148-3.434,2.7-5.651,2.4s-4.614-.993-6.578.076a5.576,5.576,0,0,0-2.156,6.333,16.309,16.309,0,0,0,3.8,6.061,61.93,61.93,0,0,0,9.866,9.9c7.068,5.217,16.643,7.731,21.095,15.3a10.157,10.157,0,0,0,2.817,3.792c2.137,1.354,4.924.324,7.225-.728L968.93,568a9.165,9.165,0,0,0,3.77-2.564c1.843-2.5.711-6.055-.836-8.748s-3.526-5.481-3.194-8.569c.591-5.506,7.671-7.612,10.582-12.323,2.934-4.748,1.024-10.866,1.362-16.438.4-6.516,4.49-14.992-2.1-19.86-5.6-4.138-10.949-.315-14.969,4.253C955.072,513.384,951.064,523.818,935.482,522.515Z" transform="translate(692.629 48.688)"/><path class="c" d="M952.183,469.12c2.754,5.272,8.494,8.418,11.5,13.553,3.255,5.565,2.884,12.755,6.414,18.15,3.622,5.534,10.912,8.472,12.944,14.767,2.218,6.872-2.814,15.225,1.2,21.23a8.911,8.911,0,0,0,13.072,1.2,9.589,9.589,0,0,0-.4-13.379c-2.375-2.165-5.786-3.1-7.768-5.63a11.816,11.816,0,0,1-2.012-4.9,32.07,32.07,0,0,1,.5-15.371,6.841,6.841,0,0,0,.386-4.021c-.893-2.595-4.407-2.779-6.872-3.983-5.6-2.734-5.465-10.639-4.486-16.794-.652,4.1-15.249-2.872-16.778-5.193-3.036-4.611-1.384-13.507-1.985-18.6C951.344,453.309,948.816,462.674,952.183,469.12Z" transform="translate(724.883 4.726)"/><path class="c" d="M881.4,504.518c-2.694-3.016-6.753-6.172-10.365-4.352-2.756,1.388-3.514,5.2-2.434,8.091a17.807,17.807,0,0,0,5.877,7.007c7.528,6.208,15.634,11.811,22.2,19.028,11.752,12.915,17.978,30.342,30.759,42.239a17.252,17.252,0,0,0,9.685,5.242c3.723.346,7.9-2.037,8.333-5.753.353-3.06-1.781-5.8-3.866-8.067-4.965-5.4-10.4-10.371-15.088-16.014a13.458,13.458,0,0,1-3.857-8.054c-.024-3.038,2.747-6.218,5.691-5.466-3.58-.915-6.235-6.88-11.49-8-4.391-.937-5.454,1.782-10.68-.46C896.2,525.684,888.384,512.333,881.4,504.518Z" transform="translate(648.6 50.445)"/><path class="c" d="M1022.119,351.21a82.558,82.558,0,0,1-8.421-3.008c-7.4-2.221-17.193,3.218-16.206,10.882.656,5.092,5.394,8.525,8.011,12.942,3.881,6.55,2.846,14.858.807,22.193a17.35,17.35,0,0,1-2.8,6.314,21.387,21.387,0,0,1-6.634,4.77,88.7,88.7,0,0,0-25.954,22.049,6.357,6.357,0,0,0-1.567,2.955c-.353,2.587,2.248,4.472,3.718,6.63,3.266,4.794.906,11.245,1.228,17.037a4.817,4.817,0,0,0,2.03,4.226c1.969,1,4.3-.7,5.369-2.632,3.541-6.416.874-16.714,7.517-19.808,1.257-.585,2.78-.832,3.619-1.936,1.33-1.751.047-4.344.721-6.437,1.012-3.143,5.31-3.284,8.609-3.144a48.867,48.867,0,0,0,16.785-2.235,11.172,11.172,0,0,0,5.556-3.218c1.986-2.478,1.81-6,1.413-9.153a124.072,124.072,0,0,0-14.66-44.731c5.836.745,12.185,1.391,17.22-1.65,2.82-1.7,6.2-6.8,4.8-10.262C1031.077,347.512,1027.077,352.126,1022.119,351.21Z" transform="translate(742.094 -89.931)"/><path class="c" d="M723.078,414.146c.7,3.746,1.385,7.689.157,11.3s-5.089,6.621-8.735,5.516c-2.83-.858-4.465-3.7-6.474-5.872-11.175-12.064-36.386-5.079-43.289-20-2.817-6.091-.9-13.389-2.824-19.819a17.641,17.641,0,0,0-17.864-12.136,36.708,36.708,0,0,0-10.28,3.069,259.208,259.208,0,0,1-68.11,17.035,55.96,55.96,0,0,0-13.087,2.381c-9.6,3.479-16.153,12.376-20.819,21.454s-8.111,18.907-14.367,26.972c-6.575,8.477-15.788,14.413-24.382,20.833a24.875,24.875,0,0,0-8.043,8.43c-1.863,3.825-1.758,8.274-1.613,12.527l1.756,51.646c.226,6.643.51,13.523,3.483,19.468,3.713,7.424,11.047,12.285,16.135,18.843a36.909,36.909,0,0,1,7.657,23.57c-.108,3.419-.448,7.463,2.215,9.61a9.737,9.737,0,0,0,5.445,1.566L589.9,616.25c12.289,1.006,25.909,2.66,33.932,12.022,3.787,4.419,6.829,10.774,12.629,11.248,2.488.2,4.909-.818,7.4-1.015,6.278-.5,11.793,4.268,15.274,9.516a42.22,42.22,0,0,1,6.781,27.09c-.571,5.987-2.427,11.807-2.827,17.808-1.523,22.833,17.833,42.671,18.209,65.551.221,13.459-6.168,26.034-12.4,37.966,10.053,15.23,1.821,35.51,5.823,53.315,3.8,16.891,17.881,30.115,21.391,47.069,1.607,7.762,1.7,17.313,8.543,21.31a19.479,19.479,0,0,0,9.667,1.936,127.45,127.45,0,0,0,58.036-13.213c8.463-4.2,17.233-10.469,18.711-19.8,1.192-7.525-2.624-15.942,1.259-22.5,4.577-7.725,16.3-7.113,23.037-13.052,10.925-9.636,2.406-28.012,6.832-41.891,3.979-12.475,17.676-19.1,24.466-30.3a53.837,53.837,0,0,0,5.685-15.408,219.816,219.816,0,0,0,5.785-39.3,235.552,235.552,0,0,1,1.778-24.071c7.32-45.478,52.28-75.931,66.877-119.62,1.394-4.172,2.049-9.73-1.663-12.091a10.629,10.629,0,0,0-7.069-.74l-32.2,4.06c-4,.5-8.24.976-11.914-.686s-6.306-6.309-4.358-9.838c5.47-9.908-5.782-22.428-10.781-32.582A480.772,480.772,0,0,0,810.921,451.4a7.894,7.894,0,0,1-2.1-4.557l9.14.3c-3.085-11.071-8.177-23.186-18.933-27.236-6.061-2.282-12.773-1.493-19.239-1.14C761.266,419.778,741.409,416.98,723.078,414.146Z" transform="translate(293.007 -66.47)"/><path class="c" d="M751.309,300.767c4.847,5.147,10.278,10.6,17.291,11.5,12.386,1.585,21.292-11.224,26.962-22.35a10.921,10.921,0,0,0,11.4,10.1,22.5,22.5,0,0,0,8.571-3.351,168.856,168.856,0,0,1,80-20.68,8.639,8.639,0,0,1,6.6-9.5c5.686-1.127,10.808,3.789,13.551,8.9s4.453,11.026,8.811,14.848,12.8,3.656,14.517-1.879c1.653-5.314-3.884-9.846-8.483-12.979s-9.448-8.932-6.35-13.555c23.5-5.2,47.141-10.423,71.186-11.456a29.809,29.809,0,0,0,11.983-2.064c3.667-1.8,6.581-5.884,5.6-9.848a27.135,27.135,0,0,1-28.317-10.681c33.363-2.753,68.848-5.1,98.416,10.6,3.548,7.617-14.535,13.954-9.7,20.824,1.543,2.191,4.635,2.448,7.315,2.5,20.547.381,41.212.756,61.527-2.347,7.424-1.134,14.922-2.734,22.376-1.815,12.415,1.531,23.033,9.815,35.247,12.515,4.971,1.1,10.545,1.136,14.735-1.755s5.992-9.475,2.558-13.234c11.5-11.271,30.586-8.477,45.757-3.081s29.543,14.1,45.6,15.3c11.514.862,23.189-2.235,34.566-.266,7.149,1.237,13.8,4.418,20.792,6.372,13.216,3.7,27.2,2.916,40.919,3.094a286.712,286.712,0,0,1,102.173,20.3,30.378,30.378,0,0,1,11.359,6.711c3.027,3.242,4.571,8.279,2.536,12.22l-33.617-4.912c3.167,6.235,11.361,7.3,18.016,9.449s13.554,9.5,9.555,15.237c-7.21-2.3-13.744,4.913-17.386,11.546s-8.08,14.576-15.637,14.98c-6.766.362-14.949-5.4-19.359-.255a132.055,132.055,0,0,1,15.556,24.87c4.357,9.077,7.46,20.515,1.571,28.682a7.433,7.433,0,0,1-3.974,3.082c-4.81,1.218-7.935-4.666-11.384-8.232-4.346-4.494-10.92-5.767-16.805-7.875s-12.087-6.254-12.547-12.489c-.286-3.879,1.762-7.485,3.271-11.071a42.653,42.653,0,0,0,3.241-19.131c-.33-5.263-1.806-10.737-5.585-14.414s-10.3-4.843-14.362-1.476c-1.893,1.571-3.41,4.085-5.869,4.179-4.344.166-7.679-7.407-11.174-4.822A11.875,11.875,0,0,1,1402.69,351c-10.429,9.07-26.451,5.233-39.9,8.437a74.885,74.885,0,0,0-18.2,7.949,11.711,11.711,0,0,0-5.2,4.367c-1.678,3.261.172,7.438,3.13,9.607a24.85,24.85,0,0,0,10.321,3.523c16.391,3.1,33.021,7.91,45.962,18.438s21.427,27.932,17.332,44.1l-32.324-30.886q1.841,19.453,2.09,39.013a17.541,17.541,0,0,1-1.025,7.5c-2.3,5.09-8.55,6.8-14.022,7.926a10.984,10.984,0,0,0-8.432,14.073c1.944,6.338,6.793,11.28,11.232,16.2s8.808,10.52,9.39,17.124-4.4,14.048-11.015,13.589c-5.014-.348-8.733-4.836-10.872-9.384s-3.411-9.615-6.624-13.479c-9.725-11.7-31.57-6.685-40.282-19.155a19.7,19.7,0,0,0-4.075,18.751c4.053-2.537,9.6-.18,12.647,3.507s4.482,8.414,6.873,12.555c3.227,5.588,8.363,10.541,8.813,16.978a55.575,55.575,0,0,0,.123,7.3c.8,3.9,4.1,6.7,6.382,9.961,5.318,7.586,5.056,18.006,1.628,26.613s-9.587,15.8-15.687,22.771c-10.654,12.179-21.526,24.286-34.157,34.4-3.6,2.886-7.451,5.724-9.7,9.758s-2.36,9.7,1.09,12.767c-2.468.124-6.895,1.338-9.363,1.461a217.643,217.643,0,0,1-.565-29.777c-9.74-4.677-20.227,7.848-18.971,18.58s9.019,19.343,14.545,28.628c4.041,6.789,7.045,14.707,5.7,22.492s-8.3,14.967-16.171,14.281c-12.52-1.092-17.757-19.067-30.156-21.124a5.065,5.065,0,0,0-3.263.324c-1.84,1.01-2.16,3.473-2.264,5.57-.507,10.292-.946,20.992,3.071,30.481,5.877,13.881,21.06,25.54,17.875,40.274-17.158-7.976-26.078-27.217-30.129-45.7s-4.725-37.885-11.986-55.357c-5.513,7.066-17.1,1.225-22.138-6.188-4.776-7.028-7.716-15.158-12.349-22.28s-11.731-13.5-20.219-13.892c-8.9-.411-16.617,5.7-23.4,11.466-5.581,4.745-11.312,9.677-14.574,16.236-4.748,9.544-3.506,20.8-3.734,31.454-.247,11.522-2.689,23.678-10.542,32.113s-22.347,11.373-31.009,3.771c-4.522-3.969-6.711-9.9-8.662-15.59a763.224,763.224,0,0,1-23.449-83.712c-1.455,6.466-7.133,14.8-12.556,10.99a11.238,11.238,0,0,1-2.893-3.727c-10.117-17.147-28.852-27.431-47.781-33.6s-38.846-9.043-57.565-15.82A145.8,145.8,0,0,1,885.776,571.8a23.485,23.485,0,0,0-1.435,24.024c4.152,7.353,13.549,11.607,21.592,9.037,4.157-1.328,7.667-4.214,11.791-5.639s9.66-.725,11.464,3.248c1.726,3.8-.883,8.4.411,12.376,1.971,6.048,11.093,6.514,14.283,12.018,2.373,4.1.42,9.533-2.968,12.838s-7.91,5.117-12.046,7.417c-13.422,7.464-22.966,20.2-34.7,30.117s-28.28,17.15-42.259,10.791c3.332-16.873-16.767-29.261-20.465-46.058-1.217-5.529-.586-11.4-2.324-16.789-2.516-7.8-9.436-13.164-15.114-19.075a74.865,74.865,0,0,1-20.534-54.468c.307-6.942,1.582-14,0-20.763s-7.184-13.316-14.126-13.009c-15.855.7-35.83,1.88-44.148-11.636-2.969-4.824-4.261-11.889.032-15.585,3.028-2.607,7.5-2.362,11.475-1.97l35.725,3.514c8.355.822,17.387,1.5,24.557-2.868s10.277-15.963,3.638-21.1c-4.851-3.755-13.542-3.551-14.952-9.522-1.174-4.972,4.329-10.614,1.357-14.769-2.131-2.98-6.923-2.153-9.827.081s-5.01,5.5-8.26,7.191c-5.7,2.967-12.512.143-18.645-1.776s-14.355-2.082-17.33,3.614c-3.327,6.371,2.951,14.718-.351,21.1-4.365,8.44-19.148,3.635-25.279,10.895-7.035,8.33,4.787,20.752,2.415,31.394a19.543,19.543,0,0,1-19.254-1.082,18.7,18.7,0,0,1-8.082-17.413c.587-4.788,3.083-9.674,1.411-14.2-1.352-3.658-5.025-5.835-8.438-7.721l-34.716-19.184c-3.223,5.979.852,13.392,5.948,17.883s11.479,7.873,14.827,13.784a18.092,18.092,0,0,1-6.808,23.853,4.177,4.177,0,0,1-3.442.6,4.8,4.8,0,0,1-2.232-3c-6.125-15.675-15.322-31.13-30.025-39.319s-35.83-6.5-45.472,7.289c-2.29,3.276-3.827,7.011-5.822,10.475-10.6,18.4-33.322,27.118-54.551,26.549a10.832,10.832,0,0,1-5.951-1.4c-3.431-2.37-3.276-7.4-2.751-11.535l2.228-17.555c.448-3.525,1.1-7.421,3.886-9.622,3.933-3.1,9.606-1.144,14.615-1.217a18.521,18.521,0,0,0,16.811-12.974,20.874,20.874,0,0,0-5.811-20.758c-2.3-2.156-5.377-4.864-4.164-7.771a6.424,6.424,0,0,1,4.505-3.034c9-2.613,18.5-3.3,27.349-6.38s17.426-9.39,19.521-18.521c.642-2.8.935-6.188,3.448-7.575a10.339,10.339,0,0,1,3.985-.814A19.389,19.389,0,0,0,617.4,375.573c4.24-2.962,10.18-.783,14.281,2.368s7.723,7.314,12.714,8.672c9.3,2.531,18.289-5.7,27.927-5.742,4.054-.016,8.25,1.417,12.063.043,3.866-1.393,6.175-5.241,9.142-8.084s8.173-4.577,10.913-1.514l-2.333-17.281a33.972,33.972,0,0,0,27.648-5l-30.152-10.188a6.557,6.557,0,0,1-2.82-1.507c-2.192-2.361-.015-6.039,1.768-8.722,4.264-6.419,4.98-16.993-2.032-20.189-4.787-2.181-10.281.437-14.875,3L659.639,323.7c-.7,4.183,4.416,6.554,7.586,9.372A12.719,12.719,0,0,1,658.93,355.3a15.849,15.849,0,0,1,2.83,13.437L646.954,369.8a6.415,6.415,0,0,1-4.8-.937c-1.584-1.407-1.369-3.871-1.736-5.957-.886-5.035-5.816-8.564-10.847-9.468s-10.179.255-15.161,1.4a9.049,9.049,0,0,1-6.517-.15,6.508,6.508,0,0,1-2.578-3.254c-2.184-5.3-.143-11.521,3.365-16.051s8.311-7.84,12.624-11.611a73.58,73.58,0,0,0,21.878-33.934c8.151-3.415,16.59-8.056,24.741-11.471a75.708,75.708,0,0,1,40.694-7.884l27.6.527c8.173.156,16.567.356,24.124,3.472s14.2,9.855,14.72,18.013a5.53,5.53,0,0,1-1.77,5.055,6.522,6.522,0,0,1-3.49.787C762.182,298.6,758.932,300.5,751.309,300.767Z" transform="translate(321.502 -202.581)"/><path class="c" d="M534.1,314.111a8.077,8.077,0,0,0,2.2-8.124,15.11,15.11,0,0,0-15.645,2.954,26.373,26.373,0,0,0-4.192,5.541c-3.627,5.918-6.836,12.987-4.734,19.6a5.568,5.568,0,0,0,2.548,3.486,6.7,6.7,0,0,0,2.971.465A99.564,99.564,0,0,0,529.2,337.3c2.436-.3,5.265-.986,6.207-3.252,1.237-2.979-1.758-6.35-.885-9.456a10.332,10.332,0,0,1,2.551-3.653,4.83,4.83,0,0,0,1.5-4.054c-.352-1.457-2.584-2.284-3.387-1.018" transform="translate(318.683 -131.33)"/><path class="c" d="M541.023,296.166a33.449,33.449,0,0,0-10.833-.68,4.724,4.724,0,0,0-2.309.525,3.851,3.851,0,0,0-1.422,2.06,10.234,10.234,0,0,0,5.958,12.542,12.807,12.807,0,0,1,3.7,1.485c3.064,2.377,1.11,7.236,1.69,11.071.651,4.306,4.819,7.92,4.055,12.207-.6,3.377-4.209,6.052-3.628,9.433.608,3.541,5.1,4.606,8.684,4.889a10.922,10.922,0,0,0,6.153-.705,9.529,9.529,0,0,0,3.882-5.622,36.029,36.029,0,0,0,1.815-13.568,12.869,12.869,0,0,0-1.53-5.989,33.416,33.416,0,0,0-3.575-4.094C546.8,311.737,554.022,299.83,541.023,296.166Z" transform="translate(332.479 -138.33)"/></g><path class="d" d="M1720.875,895.336s-525.632-301.72-751.922-244.552c0,0-479.574,51.61-535.155,165.152,0,0-152.448-476.4-208.028-492.278" transform="translate(186.097 274.013)"/><path class="d" d="M433.8,817.462c88.134-235.025,882.133-495.455,882.133-495.455-112.748,28.584-346.977,330.3-346.977,330.3S473.5,291.834,225.77,325.182c0,0,1090.953,35.73,1495.1,571.678" transform="translate(186.097 272.488)"/><circle class="e" cx="23.026" cy="23.026" r="23.026" transform="translate(388.843 574.645)"/><circle class="e" cx="23.026" cy="23.026" r="23.026" transform="translate(596.87 1066.923)"/><circle class="e" cx="23.026" cy="23.026" r="23.026" transform="translate(1479.001 571.468)"/><circle class="e" cx="23.026" cy="23.026" r="23.026" transform="translate(1883.942 1146.323)"/><circle class="e" cx="23.026" cy="23.026" r="23.026" transform="translate(1132.024 901.771)"/></g></svg>