<?xml version="1.0" encoding="utf-8"?>
<!-- Generator: Adobe Illustrator 16.0.0, SVG Export Plug-In . SVG Version: 6.00 Build 0)  -->
<!DOCTYPE svg PUBLIC "-//W3C//DTD SVG 1.1//EN" "http://www.w3.org/Graphics/SVG/1.1/DTD/svg11.dtd">
<svg version="1.1" id="Ebene_1" xmlns="http://www.w3.org/2000/svg" xmlns:xlink="http://www.w3.org/1999/xlink" x="0px" y="0px"
	 width="400px" height="347.813px" viewBox="0 0 400 347.813" enable-background="new 0 0 400 347.813" xml:space="preserve">
<path fill="#5692CE" d="M121.263,56.096c-12.719,10.541-18.905,27.625-38.169,39.987c9.451-37.08,29.08-32.715,37.804-40.351
	L121.263,56.096z"/>
<path fill="#5692CE" d="M117.266,263.302l-15.268-3.274c-19.27-3.998-39.988-19.262-45.443-43.254l0.365-0.365
	c5.455,11.994,14.909,17.449,33.448,26.537c9.089,4.365,18.532,13.085,21.807,14.177l0.367-0.361
	c-8.365-7.271-13.449-13.815-14.904-22.174c-2.186-10.906-5.456-26.177-6.911-30.898l0.365-0.365
	c9.454,13.451,11.995,17.086,15.269,25.809c5.091,13.089,7.633,20.723,10.905,25.81V263.302z"/>
<path fill="#5692CE" d="M80.917,172.787c3.995,10.175,4.719,16.727,6.539,32.717c1.818,18.176,2.549,25.444,7.634,34.899
	l-26.897-17.811c-9.089-5.455-21.813-23.631-21.813-40.354c0-2.546,0.365-4.728,0.724-6.908
	c2.916,20.358,19.271,24.356,35.993,50.896l0.365-0.365c-2.908-5.452-6.91-15.267-6.91-20.722c0-10.175,4.002-15.991,4.002-32.353
	L80.917,172.787L80.917,172.787z"/>
<path fill="#5692CE" d="M51.471,130.25c0,4.369-0.365,6.544-0.365,11.271c0,9.088,11.635,27.262,15.99,48.35h0.368
	c0-0.727-1.819-7.636-1.819-10.542c0-17.813,13.818-29.085,16.727-41.444h0.358c1.454,17.086-10.899,47.988-10.899,55.987
	c0,2.908,0,6.906,0.358,10.904h-0.358c-12.001-19.998-25.085-24.72-25.085-53.438c0-6.544,2.906-17.085,4.36-21.088H51.471z"/>
<path fill="#5692CE" d="M64.918,147.702c1.818-8.729,3.274-15.268,13.084-23.988c10.546-9.453,12-10.907,14.179-15.636h0.365
	c-0.73,4.363-3.998,15.996-8.723,23.261c-16.362,22.909-18.541,25.81-19.271,34.538h-0.365c-3.265-15.631-9.81-27.627-9.81-40.346
	c0-11.271,2.906-22.179,13.083-35.265h0.366c-1.456,3.639-3.999,8.36-3.999,13.086c0,15.268,1.454,24.356,1.454,31.626
	c0,5.814-0.365,9.086-0.73,12.725L64.918,147.702L64.918,147.702z"/>
<path fill="#5692CE" d="M91.092,70.999c-11.63,9.088-8.363,18.178-17.45,42.896v0.365c9.816-19.632,25.45-18.542,31.988-34.173
	h0.365c-5.449,17.45-6.18,18.905-13.814,25.45c-10.542,9.089-18.539,14.173-23.267,22.537v-25.448
	c0-14.905,9.088-28.714,22.178-31.987V70.999L91.092,70.999z"/>
<path fill="#5692CE" d="M117.259,263.302l8,1.821c-3.268-2.914-5.45-5.819-8-10.183V263.302z"/>
<path fill="#5692CE" d="M311.006,203.322c-9.809,13.45-11.992,17.083-15.266,25.809c-9.088,22.539-11.273,29.083-18.906,35.992
	l22.902-5.093c19.269-3.998,40.35-19.265,45.44-43.257l-0.364-0.365c-5.09,12-14.537,17.452-33.078,26.539
	c-9.088,4.36-18.536,13.086-21.813,14.175l-0.365-0.365c8.002-7.269,13.092-12.721,15.271-23.986
	c1.454-9.091,4.725-24.358,6.544-29.083L311.006,203.322z"/>
<path fill="#5692CE" d="M321.189,172.784c-4.365,10.181-5.096,16.729-6.551,32.717c-2.179,18.179-2.543,25.446-7.994,34.902
	l27.263-17.814c8.723-5.454,21.446-23.63,21.446-40.352c0-2.546-0.362-4.725-0.729-6.908c-2.907,20.362-19.264,24.357-35.62,50.896
	l-0.364-0.365c2.908-5.452,6.539-15.271,6.539-20.722c0-10.178-3.631-15.991-3.631-32.354H321.189z"/>
<path fill="#5692CE" d="M350.628,130.25c0,4.36,0.365,6.544,0.365,11.271c0,9.088-11.993,27.262-15.997,48.35h-0.365
	c0-0.727,1.454-7.636,1.454-10.542c0-17.813-13.812-29.085-16.715-41.444h-0.365c-1.095,17.086,11.272,47.986,11.272,55.987
	c0,2.908-0.364,6.906-0.732,10.907h0.368c11.991-19.998,25.075-24.722,25.075-53.44c0-6.544-2.905-17.085-3.994-21.088
	L350.628,130.25L350.628,130.25z"/>
<path fill="#5692CE" d="M337.182,147.702c-2.186-8.723-3.272-15.268-13.092-23.988c-10.898-9.453-11.994-10.907-14.537-15.639
	h-0.365c0.73,4.366,4.004,15.999,9.088,23.271c16.355,22.895,18.175,25.811,19.27,34.53h0.357
	c3.271-15.631,9.815-27.627,9.815-40.352c0-11.265-3.271-22.173-13.089-35.259h-0.359c1.09,3.636,3.998,8.363,3.998,13.086
	c0,15.268-1.817,24.356-1.817,31.626c0,5.82,0.729,9.086,1.095,12.725H337.182z"/>
<path fill="#5692CE" d="M311.736,71.002c11.265,9.088,7.992,18.175,17.078,42.894v0.365c-9.81-19.632-25.44-18.542-31.987-34.17
	h-0.365c5.46,17.447,6.547,18.898,13.821,25.444c10.542,9.092,18.531,14.176,23.263,22.54v-25.448
	c0-14.902-8.728-28.717-21.81-31.987V71.002z"/>
<path fill="#5692CE" d="M280.837,56.096c12.724,10.541,18.896,27.628,38.167,39.987c-9.449-37.08-29.08-32.715-37.809-40.354
	L280.837,56.096z"/>
<path fill="#5692CE" d="M212.307,66.981h0.726c3.993-0.725,4.728-0.725,9.446-0.725c1.813,0,2.908-1.811,3.269-2.542
	c-2.181-2.907-6.539-2.907-7.987-2.907c-0.732,0-7.631,2.543-8.72,2.907c-1.452-0.364-1.815-0.364-2.177,0.731
	C207.586,65.526,209.396,66.981,212.307,66.981"/>
<path fill="#5692CE" d="M252.621,76.787c1.089,1.095,1.454,2.185,2.543,2.185c0.363,0,1.086,0,1.086-0.73
	c0-0.724-0.365-0.359-0.365-1.089c0-0.724,0-1.454-0.722-2.179c-1.089-1.086-2.185-1.086-3.276-0.722
	c-0.724-0.364-1.089-0.364-1.089-0.364c-0.364,0-1.089,0-1.089,0.722C249.709,75.338,251.164,75.697,252.621,76.787"/>
<path fill="#5692CE" d="M304.553,159.595c-1.09,24.693-10.893,47.953-26.517,65.015c-1.086,1.089-1.812,1.822-2.177,2.908
	c-0.363-1.086-0.725-1.451-1.453-2.176l-8.715-8.721c-0.725-0.729-1.09-1.089-1.813-1.454c0.726-0.364,1.449-1.087,1.813-1.445
	c13.435-14.532,21.43-33.788,22.154-54.128c0-0.725,0-1.09-0.365-2.18c1.096,0.365,1.818,0.365,2.905,0.365h11.988
	c0.726,0,1.455,0,2.543-0.365C304.553,158.505,304.553,158.871,304.553,159.595 M270.411,232.24
	c-2.543,2.176-5.443,4.719-7.622,6.174c-16.35,12.338-35.594,19.603-55.566,20.331c-1.453,0-2.906,0-3.631,0.365
	c0.359-0.73,0.359-1.819,0.359-2.549v-11.978c0-0.721,0-1.811-0.359-2.541c0.359,0.365,1.09,0.365,2.543,0.365
	c5.084-0.365,10.534-1.089,14.889-2.178c4.72,3.268,3.994,5.442,8.353,5.442c2.183,0,2.901-1.445,3.627-2.176
	c1.095-0.724,2.909-1.454,3.271-2.179c1.09-0.365,1.813-0.729,2.547-2.178c1.09-0.728,1.813-1.816,2.18-2.906
	c1.086,0,1.814-0.73,2.904-4.725c5.443-2.903,10.527-6.9,14.892-10.891c1.084-1.089,1.444-1.454,1.81-2.184
	c0.365,1.096,0.365,1.455,1.818,2.907l7.987,7.989c0.729,0.729,1.45,1.089,2.182,1.454
	C271.863,231.151,271.143,231.51,270.411,232.24 M205.77,223.885c1.092,0.364,5.449,0.364,5.449,1.457
	c0,1.089-1.089,2.176-1.089,3.265c0,3.268,3.995,5.809,7.628,6.897c-5.084,1.09-9.082,1.454-10.896,1.454
	c-1.092,0-2.545,0-3.271,0.365c0.359-1.089,0.359-1.819,0.359-2.909v-11.254c-0.359-0.729-0.726-1.818-0.726-2.184
	C203.951,222.072,204.682,223.161,205.77,223.885 M201.048,196.874v-0.224c-2.177,0-3.991-0.365-3.991-1.449
	c0.359-0.365,3.265-2.184,3.991-2.184v-0.932l2.543-1.975c0.726-0.365,0.726-0.365,2.906-1.092c0.364,0,5.082,2.549,5.444,2.549
	l0.365-1.457c0.723,0,1.086,0.365,2.176,1.457c0.73,0,0.73,0,1.819-0.728c0.365-1.095,0.365-1.095,0-1.821
	c0,0,2.177,0.728,2.541,0.728c0.724,0,3.269-1.815,3.998-2.182c0,0,1.089,0,1.089,1.454c0,3.998-5.451,5.816-8.356,6.547
	c-0.359,0.359-1.449,2.894-2.181,2.894c-0.722,0-2.906-0.358-4.354-0.724c-0.365-0.365-0.365-0.365-1.096-2.17
	c0,0-4.719,1.083-5.443,1.083C202.016,196.894,201.535,196.953,201.048,196.874 M198.146,237.325
	c-0.729-0.365-2.184-0.365-3.272-0.365c-17.068-1.09-33.412-7.986-46.483-18.883c-1.095-0.729-4-2.908-5.813-3.638
	c1.813,0.365,4.72,2.184,6.539,2.184c1.454,0,4.354-1.089,6.174-2.184c1.089,0,2.179,0,3.265-0.716c1.819,0.358,3.998,0,3.998-1.819
	c0-1.455-2.543-2.543-2.543-3.63c0-0.359-0.724-0.359-3.989-4.729c10.164,9.447,24.331,15.986,39.585,17.797
	c1.089,0,1.813,0,2.543-0.365c-0.364,0.365-0.364,1.454-0.364,2.184v11.255C197.781,235.505,197.781,236.235,198.146,237.325
	 M198.146,259.11c-0.729-0.365-2.184-0.365-3.639-0.365c-23.966-1.089-46.848-11.252-63.916-26.87
	c-0.73-0.725-1.089-1.089-2.184-1.455c0.729,0,1.453-0.724,2.184-1.447l8.717-8.718c0.365-0.364,0.725-1.089,1.089-2.179
	c0,0.726,1.086,1.455,1.453,1.813c14.892,13.437,33.413,21.429,53.751,22.519c1.454,0,2.178,0,2.543-0.365
	c-0.365,0.73-0.365,1.819-0.365,2.541v11.978C197.781,257.291,197.781,258.38,198.146,259.11 M124.778,227.153
	c0-1.086-0.725-2.179-1.454-2.903c-2.171-2.544-3.991-4.719-5.805-7.257v-0.011c-12.344-15.612-19.614-35.958-20.338-57.387
	c0-0.725,0-1.09-0.365-2.18c1.089,0.365,1.454,0.365,2.187,0.365h13.068c0.365,0,1.096,0,1.819-0.365
	c-0.365,0.726-0.365,1.455-0.365,2.18c0,2.541,1.09,10.897,1.819,14.532c0.359,2.542,1.089,3.997,1.454,5.442
	c0,0-0.365-0.365-0.73-0.724l-1.818-2.54l-2.903,1.088c0,1.452-1.086,2.176-1.816,1.811c-0.724-0.724-0.724-0.724-1.453-0.724
	c-3.631,0-3.989,5.809-3.989,7.266l2.535,6.547c0.364,0.725,0.729,1.089,2.184,0.365c1.813,2.179,2.541,3.269,3.989,3.269
	c0.371,0,1.095-0.726,1.095-1.09h0.359c0.729,0.725,1.818,2.17,3.265,3.26v0.005c0.73,0.725,2.544,1.449,3.275,1.449
	c0.725,3.272,3.265,5.454,5.084,5.454c0.358,0,0.724,0,1.449-0.735c0.729,1.825,1.086,2.915,1.815,3.645
	c0.724,0.359,2.908,1.812,3.269,2.176h0.725c0.365,1.454,0.729,1.813,1.816,2.903c0.729,0.73,1.089,1.089,2.184,1.812
	c-1.095,0.364-1.819,1.089-2.549,1.818l-7.984,7.628C125.873,224.975,125.143,226.067,124.778,227.153 M97.181,149.787
	c0.724-20.698,8.359-39.95,20.338-55.927v-0.005c1.813-2.545,4.358-5.445,6.899-8.354c0.724-0.722,1.089-1.087,1.454-2.176
	c0,0.73,0.358,1.454,1.089,2.176l8.714,8.725c0.359,0.358,0.724,1.089,2.178,1.813c-1.089,0-1.454,0.725-1.818,1.089
	c-8.351,9.079-14.889,20.704-18.522,32.32v0.019c-2.176,6.893-3.989,13.787-3.624,20.686c0,0.725,0,1.455,0.359,2.179
	c-0.726-0.358-1.455-0.358-1.814-0.358H99.355c-0.72,0-1.811,0-2.541,0.358C97.181,151.241,97.181,150.517,97.181,149.787
	 M130.952,79.335c17.438-15.986,40.314-25.791,65.375-27.609c0.364,0,0.729,0,1.818-0.359c-0.364,0.724-0.364,1.448-0.364,1.813
	v13.441c0,0.726,0,1.091,0.364,2.177c-1.089-0.365-1.454-0.365-1.818-0.365c-20.698,1.819-38.86,9.447-53.751,22.162
	c-0.366,0.358-1.091,1.089-1.456,2.176c-0.355-1.086-1.086-1.816-1.446-2.176l-8.723-8.719c-0.725-0.729-1.09-1.095-1.813-1.454
	C129.862,80.422,130.592,79.695,130.952,79.335 M177.44,174.127c2.186-2.542,2.544-3.269,3.274-4.723h0.359l0.364,0.359h0.73
	L177.44,174.127z M194.873,194.112c-6.896-1.095-13.8-4-18.884-8.366c-0.359-0.358-0.726-0.724-1.455-1.092
	c0.364,0,1.095-0.365,1.818-1.087l7.625-7.621c0.726-0.73,1.456-1.819,1.456-2.543c0.359,1.089,1.089,1.813,1.819,2.173
	c2.899,2.184,6.174,3.628,9.804,3.994c0.725,0,1.454-0.365,2.179-0.724c-0.364,0.358-0.725,1.089-0.725,1.813
	c0,0.73,0,1.819,0.359,2.185c-0.359,0.358-0.725,0.724-0.725,1.811c0,0.368,1.813,2.187,1.813,2.546
	c0,1.089-0.359,1.089-2.903,1.089C195.603,188.29,195.238,192.293,194.873,194.112 M161.827,197.737l7.629-7.625
	c0.358-0.365,1.086-1.092,1.452-1.822c0,0.73,0.724,1.099,1.089,1.458c5.079,4,10.171,6.903,16.338,8.714
	c1.454,0.365,2.549,0.365,4.363,0c-2.18,0.73-5.444,1.09-5.81,3.634c-0.365,2.911-2.91,2.911-2.543,4.365
	c2.178,2.535,2.543,6.533,6.173,7.622l2.18,0.723c0.729,0,1.453,0.364,2.541,1.089c-1.451,0-4.72-0.725-7.625-1.454
	c-9.443-2.535-18.888-7.254-25.786-13.793c-0.73-0.73-1.455-1.455-2.18-1.455C160.372,198.826,161.097,198.461,161.827,197.737
	 M168.361,167.95c0.73,0,0.73,0,1.454-0.365l1.452,1.089c0,1.09,0,1.454,0.365,1.819c0,0.365,2.179,1.458,2.544,2.179l0.724-0.361
	c0-0.359-0.364-2.546,0-2.546c0.365,0,1.454,5.454,1.454,5.454l-3.998,3.987c-0.725,0.73-1.089,1.096-1.448,2.186
	c-0.365-1.089-0.728-1.455-1.093-1.819c-2.543-3.264-4.722-7.619-5.809-10.896c-0.359-1.455-1.089-3.266-1.813-3.631
	C165.823,165.409,167.637,166.133,168.361,167.95 M150.934,139.619c0,0-1.095,0.73-1.818,1.454c-0.365,0.73-0.365,1.816-0.725,2.541
	c-0.729,0.365-1.454,1.089-1.815,1.819c-0.359,0.725-0.359,2.543,0,3.265l0.361,3.633c-0.361,0-1.092-0.358-2.176-0.358h-2.185
	c-0.366,0-0.725,0-1.812,0.358c0.355-0.724,0.355-1.813,0.355-2.909c0-5.442,5.094-23.971,14.168-33.045
	c0.364-0.364,0.729-1.089,1.089-1.813c0.365,0.724,0.365,1.083,1.089,1.813l8.715,8.351c0.73,0.724,1.455,1.095,2.179,1.095
	c-1.089,0.359-1.813,1.449-3.633,3.992c-3.267,1.452-3.631,1.815-6.175,4.721c-2.9,1.454-2.9,1.454-3.99,2.176
	C155.288,138.894,154.923,138.894,150.934,139.619 M198.146,128.359c-0.364,0-0.729-0.359-1.454-0.359
	c-0.729,0-1.818,0.359-2.185,0.359c-0.721,0-1.081-1.089-1.081-1.814c-1.819,1.09-1.819,1.455-2.184,3.998
	c-0.359,1.812-2.909,2.542-3.99,3.268l-1.095-0.726h-1.813c-1.821-1.456-2.177-1.456-2.177-1.456c-0.73,0-1.096,1.092-1.096,1.456
	c-0.724,0-0.724,0-1.813-1.089v-0.366l1.089-0.364v-0.723c-1.089-0.729-4.36-3.272-5.449-3.272l-1.089,0.365l1.819-1.454
	c5.809-4.72,12.705-7.99,20.698-9.438c0.729,0,1.089-0.365,1.818-0.729c-0.364,1.089-0.364,1.818-0.364,2.178v8.714
	C197.781,127.27,197.781,128,198.146,128.359 M198.146,111.293c-0.729-0.366-1.089-0.366-2.184-0.366
	c-8.351,1.091-16.338,4.36-22.876,9.805c-0.73,0.729-1.089,1.095-1.455,1.819c-0.365-0.726-0.724-1.09-1.089-1.455l-8.715-8.715
	c-0.365-0.364-0.73-0.724-1.819-1.089c0.729-0.366,1.454-0.725,2.186-1.456c8.715-7.625,20.332-12.709,33.41-13.798
	c0.725,0,1.454,0,2.543-0.365c-0.364,0.73-0.364,1.455-0.364,2.186v11.617C197.781,110.202,198.146,110.927,198.146,111.293
	 M198.146,90.23c-1.089-0.366-1.089-0.366-1.818-0.366c-15.254,1.456-28.326,7.264-38.132,15.979
	c-0.364,0.364-1.089,1.089-1.453,2.184c-0.365-1.095-0.725-1.454-1.09-1.819l-9.078-9.079c-0.73-0.364-1.09-1.089-1.813-1.089
	c1.083,0,1.454-0.365,1.813-0.724c13.073-11.989,30.501-19.617,49.753-21.066c0.729,0,0.729,0,1.818-0.361
	c-0.364,0.722-0.364,1.086-0.364,1.811v12.712C197.781,89.139,197.781,89.499,198.146,90.23 M135.677,152.331
	c-0.729-0.358-1.452-0.358-1.816-0.358h-12.712c-0.724,0-1.09,0-1.814,0.358c0.358-1.089,0.358-1.813,0.358-2.543
	c1.097-17.065,8.717-35.594,20.707-48.299c0.366-0.729,0.722-1.089,1.086-2.179c0,0.725,1.091,1.813,1.456,2.179l8.718,8.714
	c0.364,0.366,0.729,0.725,1.45,1.091c-0.722,0-1.45,0.725-1.815,1.089c-9.083,10.17-14.893,23.606-15.981,37.04
	C135.312,150.876,135.312,151.606,135.677,152.331 M124.419,175.576c0.358,1.094,0.724,1.453,0.358,1.818
	c0.365,0.729-0.725,0.365-1.089,0.729c-0.364,0.356-0.722,1.081-0.722,2.176c-0.365-1.095-0.73-2.54-1.095-4.724
	c-1.084-5.448-1.815-10.532-2.181-16.341c0-0.73-0.358-1.095-0.358-1.819c0.725,0.365,0.725,0.365,1.814,0.365h12.712
	c1.086,0,1.451-0.365,1.816-0.365c-0.365,1.089-0.365,3.63,0,6.539c0,1.089,0.359,1.455,0.724,2.906
	c-1.454-2.181-1.818-2.906-2.905-2.906c-1.449,0-1.449,1.814-2.543,2.541c-1.813,1.089-3.266,1.813-3.989,1.813
	c-1.089,1.095-1.819,2.549-2.185,4.362C124.419,173.761,125.873,174.852,124.419,175.576 M143.665,166.496
	c0,1.454-1.089,0.365-2.545,2.543c0-0.729,0.364-1.089,0.364-2.179c0-1.451-0.364-6.179-0.364-6.9c0-1.455-0.355-2.179-0.355-2.544
	c0.355,0,1.086,0.365,1.812,0.365h1.813c1.454,0,1.825-0.365,2.546-0.365c-0.361,0.365-1.092,0.726-2.176,1.089
	c0,0.73,0,1.455-0.371,2.177c-0.359,1.095-1.449,2.185-1.449,2.908C142.941,164.679,143.665,165.769,143.665,166.496
	 M152.023,187.565c-0.364-6.176-0.729-6.906-1.818-9.441c-0.365-4.362-1.089-5.452-4.36-9.45c0-2.179,0-2.179-0.724-4.354v-0.365
	c0-0.724,0.364-0.724,3.995-2.178c0-2.182,0-2.541,0.364-3.271h2.543c0.723,0,1.086-0.724,1.086-1.453
	c0-0.359-1.45-3.632-1.45-4.722s1.811-1.813,3.265-1.813c2.185,0,3.272,2.178,3.272,3.999c0,1.445-0.364,2.535-0.364,3.625
	l0.722,0.364c-0.357,1.819-1.086,3.631-2.9,3.631c-1.453,0-2.184-1.812-2.907-1.812c0,0-0.357,0-0.357,0.356
	c0,1.095,0.722,1.818,0.722,3.272c0,2.18-1.086,2.18-2.176,1.814c-0.365,0.727,0.359,1.451,1.454,1.451
	c0.357,1.089,0.722,2.185,1.446,1.818c0.365-0.365,1.089-4.719,1.455-5.449l0.364,0.365l1.455-0.365
	c1.09,6.903,3.989,14.17,8.352,19.613c0.365,0.365,1.089,1.086,2.179,1.452c-1.089,0.368-1.813,1.092-2.179,1.457l-13.436,13.439
	c-0.364-0.725-0.364-1.813,0-2.544c1.812-1.439,1.812-1.439,1.812-2.17l0.365-2.908C152.388,189.02,152.023,188.655,152.023,187.565
	 M200.598,136.724c1.394,0.078,2.993,0.765,2.993,1.445c0,1.09-1.089,0.359-2.909,0.359c-1.453,0-0.723,3.633,0.365,3.633
	c1.454,0,2.18,1.092,3.998,0.728c0,1.089,0.725,1.454,1.451,1.454c0.725,0.725,1.089,1.813,1.447,2.544
	c0.73,0.358,1.097,0,2.186,0.358c0,0.73,0.357,2.541,0.357,3.271c0,0.724-0.357,1.089-0.357,1.089
	c-0.73,0.724-1.089,1.456-1.089,2.18c0,1.086,1.813,0.365,2.179,1.086c1.09,1.089,0.725,2.909,0.725,5.452
	c0,0.722,1.086,1.452,1.086,1.812c0,1.453-0.355,4.359-1.45,5.084c-0.358,0.364-2.903-0.359-4.356-0.359
	c-0.726,0-1.088,0.725-1.453,2.179c-0.724,2.546-1.088,4.723-2.543,4.723c-0.634,0-1.813,0.275-2.592,0.348
	c-4.214-0.092-8.396-1.515-11.206-3.981c3.268,0,8.352-0.364,8.352-4.719c0,0,2.18-2.543,2.18-2.909
	c0-0.724-0.725-1.454-0.725-1.454l0.365-0.722c-0.365-1.819-1.454-1.819-3.638-1.819c-4.719,0-5.079,0-5.079,2.541
	c0,1.454,0,1.454-2.906,2.908c-0.725,1.814-0.725,1.814-1.455,2.541c-1.454-1.815-1.819-1.815-1.454-2.541h0.365v0.365
	c1.089,0.359,1.454,0.359,1.819,0c0.358-1.454,0.358-1.819,2.535-5.814c-0.725-0.364-0.725-1.813-1.812-1.453
	c-0.725,0.364-0.365,1.453-1.455,2.543c-0.364,0.364-1.089,0.729-1.454,0.729c0-0.365-0.365-1.089-1.091-1.089
	c-0.365,0-0.724,0-1.454,0.725c-1.086,0-5.809,0.722-6.895,0.365c-0.365-0.365,0.724-1.089,1.811-1.454
	c-0.364-1.818,0-2.543,1.819-4.354c0.725,0.355,1.455,0.722,2.179,0.722l0.73-0.722h0.355c1.454,0,1.454,3.625,2.18,3.625
	c0.73,0,1.09-0.359,1.456-0.726v-1.813c0.364-1.451,0.729-2.907,1.095-3.996v-1.089c0.725-1.455,1.811-2.541,3.265-2.906
	c0.365-0.724,0.726-1.819,0.726-2.179c1.453-0.365,6.538-2.18,6.538-3.63c0-1.454-0.365-3.273-0.725-4.363
	C197.394,137.101,198.39,136.765,200.598,136.724 M221.389,181.749c0,1.454-3.996,3.273-4.361,3.273l-0.357-0.368
	C217.027,182.479,219.568,181.749,221.389,181.749 M205.411,116.742c7.62,1.089,14.157,3.265,19.241,7.984
	c0.365,0.364,1.09,0.724,1.818,0.724c-0.729,0.371-1.089,0.371-1.453,0.73c-0.365,0.364-1.086,0.364-1.086,1.454
	c0,0.725,2.174,0.725,2.174,0.725l-2.174,2.184c-0.729,0.723-4.363,2.542-5.088,3.268c-1.816,1.089-1.816,1.454-2.176,3.271
	c-0.365,0-0.73,0.725-1.818,0.725c-0.725,0-3.271-2.905-4.359-2.905c-1.449,0-2.18,1.089-2.903,0.729
	c-0.726-0.729,3.992-2.543,4.722-2.907c1.816-1.456,2.906-3.997,2.906-5.816c0-1.083-0.365-1.813-1.454-1.813l-1.087,1.09
	c-1.818,0.724-3.633,2.908-4.363,3.633c-1.088-0.365-3.265-0.365-4.358-0.365v-11.258c0-0.359,0-1.089-0.359-2.178
	C204.316,116.377,204.682,116.742,205.411,116.742 M203.591,95.673c0.359,0,1.089,0.365,2.543,0.365
	c11.623,1.089,24.327,6.173,32.685,13.438c0.365,0.361,1.449,1.093,2.181,1.451c-0.729,0.366-1.455,1.091-1.813,1.455l-7.627,7.625
	c-0.729,0.726-1.096,1.09-1.815,2.18c-0.365-1.089-1.091-1.813-1.455-2.18c-6.533-5.084-14.161-7.989-22.517-9.08
	c-0.725,0-1.455,0-2.18,0.366c0.359-0.725,0.359-1.817,0.359-2.542V98.215C203.951,97.493,203.951,96.403,203.591,95.673
	 M256.616,203.189c-1.455,0-1.091,0.721-1.455,2.906l-3.995-4.36c-0.73-0.73-1.455-1.455-2.543-2.186
	c0.725-0.358,1.089-0.724,1.813-1.448c5.45-6.173,9.806-13.447,11.988-19.621c0.725-2.539,1.454-4.354,1.813-5.443
	c0.365,0,0.365,0,1.091-0.728c2.541,0.728,2.905-0.725,2.905-1.092c0-1.09-0.729-1.813-1.813-2.909
	c-0.364,0-1.092,0.364-1.092,0.364c0.728-3.265,1.092-6.538,1.092-8.35c0-1.089,0-1.819-0.364-2.909
	c1.088,0.365,1.448,0.365,2.543,0.365h11.616c1.099,0,1.455-0.365,2.187-0.365c-0.363,0.726-0.363,1.455-0.363,2.18
	c-0.727,18.163-7.991,35.606-19.614,48.679c-1.089,1.086-1.819,2.181-2.184,3.271C259.881,207.549,259.52,203.189,256.616,203.189
	 M225.018,192.658c2.178,0,12.709,3.269,13.436,3.269c0.367,0,1.092-0.359,2.181-0.726c0-0.729,1.452-3.272,1.452-3.995
	c0.729-1.818,1.818-5.819,1.818-8.362c0-2.185-1.818-2.543-3.271-1.819c-1.449,0.365-1.449,0.365-2.181,2.179
	c0,0.365-3.632,1.452-3.632,1.452c-0.363,0-1.088,0-1.088-0.719c0-0.733,1.088-1.092,3.266-1.457c1.82-2.179,1.82-2.544,3.636-2.909
	c1.816-0.724,4.36-4.718,4.36-5.077h0.363c0,0.725,0.359,1.813,1.449,1.813c1.096,0,1.451-1.089,1.816-2.545
	c1.089,0.365,1.813,0.73,2.902,0.73c1.453,0,2.185-0.73,2.547-1.456h4.355c-2.543,7.987-6.902,15.618-12.347,21.8
	c-0.365-1.818-0.726-3.63-1.089-3.63c-1.09,0-2.908,5.079-3.273,5.8c-0.354,0.73-6.896,1.096-6.896,1.096
	c-1.09,0-5.446-2.535-6.172-2.535c-1.453-0.365-5.084-1.095-5.084-1.819C223.566,192.658,224.652,192.658,225.018,192.658
	 M258.794,157.781c0.365,0,1.446,0,2.175-0.365c0,0.365-0.365,1.089-0.365,2.909c0,3.265-0.363,5.444-1.086,8.714
	c-1.453-3.271-1.813-3.271-4.722-6.173c-0.364-2.541-0.364-2.906-2.541-5.084L258.794,157.781L258.794,157.781z M257.34,133.085
	c0.725,1.449,2.541,7.264,2.541,7.987c0,0-1.816,5.084-4.72,4.719l-0.365-0.358c0-0.73,1.454-3.63,1.454-4.36
	c1.455-1.089,1.455-1.089,1.455-2.179c-0.73-0.365-1.089-0.365-2.909-2.185c0-0.358-0.726-1.081-2.176-1.081
	c-1.454,0-2.185,0.723-3.634,1.812c-0.364-0.359-0.364-0.73-0.729-1.452c0.365-0.724,0.365-1.089,0.365-1.454l-2.906-4.721
	c-1.455-1.089-6.532-1.813-7.989-1.089c-1.09,0-3.271-0.725-4.359-0.725c-0.365,0-1.813,0.359-1.813,1.089l-1.455,3.632
	c-0.727-0.726-0.727-0.726-1.814-1.821l14.888-14.888c0.729-0.726,1.455-1.449,1.455-2.18c0.365,0.73,0.729,1.454,1.089,1.813
	c0.729,0.729,6.539,7.628,6.539,8.723c0,1.081-0.73,2.9-1.089,3.63C251.525,129.089,256.25,131.996,257.34,133.085 M229.375,178.48
	c0,1.089-1.089,1.454-1.449,1.454c-1.095,0-1.453-1.089-1.818-2.541c-3.266-0.725-3.266-3.991-2.541-4.357
	c0.723-0.365,2.177-1.086,1.815,1.09C226.832,174.852,229.375,175.947,229.375,178.48 M247.9,220.255
	c-0.363-0.364-1.453-0.364-1.453-1.089c0-1.089,1.812-1.818,2.9-3.998c0.364-0.729,0.729-1.445,0.729-2.176
	c0-0.725-1.091-1.089-1.819-1.813c-0.722-0.365-2.176-0.73-3.63-1.819c-0.726-0.365-1.089-1.086-1.089-1.812
	c0-0.364,1.089-2.913,1.818-4.725c0,1.086,0.725,1.812,1.088,2.182l7.984,7.987c0,1.446,0.365,1.812,2.543,1.812
	c-1.089,0.364-1.449,1.089-2.179,1.818c-1.815,1.813-3.63,3.633-7.26,6.173C247.9,222.072,248.258,220.977,247.9,220.255
	 M203.591,73.886c0.726,0.361,1.455,0.361,2.543,0.361c10.894,1.089,22.517,3.992,31.593,9.077c1.092,1.089,2.541,2.905,2.905,3.271
	c1.086,3.268,1.086,3.634,2.183,5.088c-0.364,1.811,1.088,4.354,2.543,6.174c0.358,0,2.543-0.365,3.266-0.365
	c0.725,0,2.543,1.816,2.902,3.265c0.365,0.73,0.729,5.814,1.453,6.903l5.084,1.814c0,1.451,0.365,2.183,1.097,2.542
	c0.358,0.364,2.176,1.452,3.265,2.541v0.006c0.725,0.724,1.454,0.724,1.813,1.083c1.816,0,2.541,0,6.904,6.179
	c0.356,0,1.451,2.179,2.176,2.179c0.365,0,1.455-0.364,2.18-0.729c3.63,7.99,5.816,16.708,6.542,26.146c0,1.096,0,1.819,0.364,2.909
	c-1.09-0.358-1.821-0.358-2.547-0.358h-11.258c-0.729,0-1.453,0.358-2.543,0.724c0.365-2.543,0-5.084-1.086-6.538
	c0-0.365,1.086-4.72,0.725-5.809c-0.725,0-1.09,0-1.453,0.358c-0.359,0.365-1.449,2.906-1.813,3.637
	c-0.364,0.725-0.364,1.089-0.729,1.813c-0.358,1.819-1.09,3.995-0.725,6.173c-0.365,0-1.09-0.358-2.176-0.358h-4.363
	c0.729-0.365,1.455-0.73,2.186-1.096c-0.73-0.358-0.73-0.358-0.73-1.089c0-1.455,0-1.455,2.543-2.176
	c0.73-0.724,2.906-5.809,3.995-7.263v-0.006c0.724-1.449,1.089-1.813,1.089-2.174c1.09-1.818-0.365-3.636-0.365-3.636l1.09-3.269
	c0-1.452-1.09-3.266-1.448-4.721c0,0-0.365-0.364-0.365,0c-0.364-0.724-0.729-0.724-1.819-1.095c-0.363,0-0.363-0.724-0.363-1.081
	c1.095-0.729,1.095-1.095,0.729-2.544h-2.175c0-0.365,1.086-2.184,1.086-2.906c0-0.367-0.362-1.089-1.086-1.089
	c-0.729,0-2.909,0.722-2.909,0.722c-0.359,0-1.089,0-1.089-0.722c0-2.544-2.905-5.45-4.719-5.813c0.358-1.449,0-1.815-3.271-6.176
	c-1.813-6.532-2.18-6.897-5.088-6.897c-0.355-0.365-4.722-5.814-5.082-5.814c-0.365,0-0.727,0-1.086,0.365
	c0.359,0.73,0.723,1.089,2.176,3.633c0,0.365-0.364,0.73-0.729,0.73c0.364,1.451,0.729,1.451,1.821,1.811l-0.367,0.73
	c0.367,0.358,0.367,0.725,1.092,2.179c-10.168-7.628-21.42-11.981-33.772-12.713c-0.725,0-1.455,0-2.18,0.366
	c0.359-0.731,0.359-1.821,0.359-2.545V76.787C203.951,75.697,203.951,74.973,203.591,73.886 M203.591,51.367
	c0.726,0.359,1.819,0.359,2.543,0.359c21.062,1.089,40.673,9.083,56.29,20.707c2.543,1.815,5.079,3.63,7.628,5.809
	c0.724,0.73,1.446,1.454,2.541,1.816c-0.729,0-1.815,0.724-2.541,1.454l-6.538,6.532c-0.726,0.73-0.726,0.73-1.09,1.819v0.366
	c-1.089-1.091-1.455-1.821-2.184-1.821c-1.813-0.724-1.446-3.995-2.535-4.719c-2.909-1.089-4.727-5.81-6.539-5.81
	c-0.73,0.359-3.995-0.729-4.721-0.729c-1.817,0-3.272,0.729-5.447,1.089c-10.171-5.444-22.154-8.717-33.775-9.441
	c-1.088,0-1.453,0.365-1.812,0.365c0.724-1.096,1.45-2.183,0.358-2.907c-0.358-0.364-1.09,0.365-2.18,1.456
	c0.359-0.73,0.359-1.82,0.359-2.186V53.91C203.951,52.815,203.951,52.091,203.591,51.367 M275.496,82.966
	c0.363,1.09,0.729,1.448,1.454,2.179c15.979,17.067,26.147,39.226,27.237,64.277c0,1.096,0.364,2.186,0.729,2.909
	c-1.089-0.358-1.819-0.358-2.908-0.358h-11.623c-0.724,0-1.45,0-2.905,0.358c0.365-1.454,0.365-2.179,0.365-2.909
	c-1.09-20.333-9.445-38.129-22.154-53.383c-0.725-0.724-1.09-1.089-1.813-1.454c0.358,0,1.089-0.358,1.813-1.089l8.354-8.351
	C274.771,84.414,275.496,83.69,275.496,82.966 M262.424,64.803L262.424,64.803c-17.609-11.86-38.419-18.728-61.376-18.874v-0.014
	c-0.134,0-0.272,0.005-0.413,0.005c-0.103,0-0.208-0.005-0.318-0.005v0.014c-33.11,0.213-62.613,15.047-82.803,38.126
	c-16.342,18.887-26.141,44.31-26.141,71.547c0,27.241,9.439,51.94,26.141,71.542v0.009c19.832,22.714,49.332,37.898,82.803,38.119
	v0.011c0.11,0,0.216-0.005,0.318-0.005c0.141,0,0.279,0.005,0.413,0.005v-0.017c22.957-0.147,43.767-7.015,61.376-18.863
	c28.692-19.618,47.938-53.021,47.938-90.8C310.361,117.832,291.116,84.42,262.424,64.803"/>
<path fill="#5692CE" d="M140.148,282.129l3.442,1.473c5.574,2.257,8.608,1.238,10.787-3.852c1.988-4.634,0.205-8.055-4.774-10.177
	l-3.445-1.479L140.148,282.129z M141.304,259.274l12.032,5.146c8.583,3.673,11.685,10.61,8.314,18.479
	c-3.565,8.335-10.698,10.593-19.202,6.955l-12.026-5.152L141.304,259.274z"/>
<path fill="#5692CE" d="M196.443,301.523l-5.11-0.313l-0.277-3.051c-2.25,2.544-5.875,3.248-8.686,3.078
	c-9.192-0.571-14.749-7.321-14.251-15.326c0.498-8.004,6.848-14.014,16.039-13.451c6.295,0.392,12.827,3.862,13.12,10.828
	l-7.915-0.486c-0.109-2.38-2.566-3.967-5.76-4.159c-5.106-0.317-7.317,3.661-7.573,7.761c-0.255,4.094,1.449,8.321,6.552,8.629
	c3.91,0.242,6.653-1.254,7.238-3.74l-5.529-0.346l0.33-5.336l12.766,0.792L196.443,301.523z"/>
<polygon fill="#5692CE" points="225.298,300.26 216.268,301.527 202.938,275.447 211.126,274.298 219.889,293.854 219.971,293.844 
	223.032,272.632 231.217,271.491 "/>
<polygon fill="#5692CE" points="236.25,270.029 243.725,266.806 260.186,278.285 260.266,278.245 253.506,262.59 260.355,259.64 
	271.316,285.049 263.842,288.269 247.311,276.618 247.23,276.646 254.061,292.484 246.402,296.068 "/>
</svg>
