<svg xmlns="http://www.w3.org/2000/svg" xmlns:xlink="http://www.w3.org/1999/xlink" width="1412.292" height="1174.878" viewBox="0 0 1412.292 1174.878"><defs><style>.a,.g,.o{fill:none;}.b{opacity:0.9;}.c{fill:#2f2e41;}.d,.j,.k,.l,.n{fill:#fff;}.e{fill:#3f3d56;}.f{fill:#6393f4;}.g{stroke:#3f3d56;stroke-miterlimit:10;stroke-width:2px;}.h{fill:#ff6584;}.i{clip-path:url(#a);}.j{font-size:31px;}.j,.k,.l,.n{font-family:Rubik-Medium, Rubik;font-weight:500;}.k{font-size:29px;}.l{font-size:27px;}.m{clip-path:url(#m);}.n{font-size:17px;}.o{stroke:#707070;stroke-width:3px;}.p{filter:url(#n);}.q{filter:url(#k);}.r{filter:url(#h);}.s{filter:url(#e);}.t{filter:url(#b);}</style><clipPath id="a"><rect class="a" width="380.701" height="165.261"/></clipPath><filter id="b" x="167.145" y="640.553" width="380.701" height="166.261" filterUnits="userSpaceOnUse"><feOffset dx="5" dy="10" input="SourceAlpha"/><feGaussianBlur stdDeviation="3" result="c"/><feFlood flood-opacity="0.38"/><feComposite operator="in" in2="c"/><feComposite in="SourceGraphic"/></filter><filter id="e" x="717.794" y="395.553" width="380.701" height="166.261" filterUnits="userSpaceOnUse"><feOffset dx="5" dy="10" input="SourceAlpha"/><feGaussianBlur stdDeviation="3" result="f"/><feFlood flood-opacity="0.38"/><feComposite operator="in" in2="f"/><feComposite in="SourceGraphic"/></filter><filter id="h" x="717.794" y="640.553" width="380.701" height="166.261" filterUnits="userSpaceOnUse"><feOffset dx="5" dy="10" input="SourceAlpha"/><feGaussianBlur stdDeviation="3" result="i"/><feFlood flood-opacity="0.38"/><feComposite operator="in" in2="i"/><feComposite in="SourceGraphic"/></filter><filter id="k" x="717.794" y="885.553" width="380.701" height="166.261" filterUnits="userSpaceOnUse"><feOffset dx="5" dy="10" input="SourceAlpha"/><feGaussianBlur stdDeviation="3" result="l"/><feFlood flood-opacity="0.38"/><feComposite operator="in" in2="l"/><feComposite in="SourceGraphic"/></filter><clipPath id="m"><rect class="a" width="287.687" height="95.1"/></clipPath><filter id="n" x="213.905" y="817.818" width="287.687" height="96.1" filterUnits="userSpaceOnUse"><feOffset dx="5" dy="10" input="SourceAlpha"/><feGaussianBlur stdDeviation="3" result="o"/><feFlood flood-opacity="0.38"/><feComposite operator="in" in2="o"/><feComposite in="SourceGraphic"/></filter></defs><g transform="translate(-347.855 -412.686)"><g class="b"><g transform="translate(-162.742 472.681) rotate(-16)"><ellipse class="c" cx="79" cy="79" rx="79" ry="79" transform="translate(1312.005 603.47)"/><rect class="c" width="24" height="43" transform="translate(1344.544 737.058) rotate(10.261)"/><rect class="c" width="24" height="43" transform="translate(1391.776 745.609) rotate(10.261)"/><ellipse class="c" cx="20" cy="7.5" rx="20" ry="7.5" transform="translate(1410.449 814.035) rotate(-139.739)"/><ellipse class="c" cx="20" cy="7.5" rx="20" ry="7.5" transform="translate(1364.201 805.663) rotate(-139.739)"/><ellipse class="d" cx="27" cy="27" rx="27" ry="27" transform="translate(1369.536 636.146)"/><ellipse class="e" cx="9" cy="9" rx="9" ry="9" transform="translate(1398.633 644.468)"/><path class="f" d="M893.512,137.245c-1.188-29.247,24.019-54.019,56.3-55.331s59.415,21.335,60.6,50.582-21.252,35.892-53.534,37.2S894.7,166.492,893.512,137.245Z" transform="translate(435.168 459.282)"/><ellipse class="c" cx="12.4" cy="39.5" rx="12.4" ry="39.5" transform="translate(1428.216 688.992) rotate(-102.91)"/><ellipse class="c" cx="12.4" cy="39.5" rx="12.4" ry="39.5" transform="translate(1273.144 714.785) rotate(-102.91)"/><path class="d" d="M934.4,254.321a18,18,0,1,0,35.424,6.413c1.771-9.782-5.792-13.244-15.575-15.015S936.172,244.539,934.4,254.321Z" transform="translate(434.905 459.282)"/><line class="g" x1="91" y2="70" transform="translate(1493.454 592)"/><ellipse class="h" cx="68" cy="68" rx="68" ry="68" transform="translate(1559.454 493)"/></g><g transform="matrix(0.978, 0.208, -0.208, 0.978, 292.628, -299.113)"><rect class="c" width="24" height="43" transform="translate(1734.899 1543.852) rotate(166.547)"/><ellipse class="c" cx="7.5" cy="20" rx="7.5" ry="20" transform="translate(1701.701 1564.123) rotate(-103.453)"/><ellipse class="c" cx="39.5" cy="12.4" rx="39.5" ry="12.4" transform="translate(1671.354 1447.033) rotate(-170.281)"/><circle class="c" cx="79" cy="79" r="79" transform="matrix(0.035, -0.999, 0.999, 0.035, 1626.442, 1514.643)"/><rect class="c" width="24" height="43" transform="translate(1720.907 1543.363) rotate(166.547)"/><ellipse class="c" cx="7.5" cy="20" rx="7.5" ry="20" transform="translate(1687.709 1563.634) rotate(-103.453)"/><circle class="d" cx="27" cy="27" r="27" transform="matrix(0.035, -0.999, 0.999, 0.035, 1635.721, 1442.179)"/><circle class="e" cx="9" cy="9" r="9" transform="matrix(0.035, -0.999, 0.999, 0.035, 1642.719, 1415.773)"/><path class="f" d="M1048.86,816.306c29.234-1.463,51.625-28.808,50.01-61.076s-26.623-57.241-55.858-55.778-33.822,24.412-32.207,56.681S1019.62,817.769,1048.86,816.306Z" transform="matrix(0.035, -0.999, 0.999, 0.035, 913.177, 2368.899)"/><path class="d" d="M925.341,728.592a18,18,0,1,1-2.9-35.883c9.909-.8,12.611,7.065,13.413,16.973S935.25,727.79,925.341,728.592Z" transform="matrix(0.035, -0.999, 0.999, 0.035, 913.177, 2368.899)"/><rect class="f" width="126.129" height="64.161" transform="matrix(0.035, -0.999, 0.999, 0.035, 1541.866, 1512.802)"/><rect class="g" width="126.129" height="64.161" transform="matrix(0.035, -0.999, 0.999, 0.035, 1551.934, 1523.03)"/><ellipse class="c" cx="39.5" cy="12.4" rx="39.5" ry="12.4" transform="translate(1689.078 1477.322) rotate(-170.281)"/></g><rect class="h" width="36" height="36" transform="translate(404.603 933)"/><rect class="g" width="36" height="36" transform="translate(395.603 921)"/><circle class="f" cx="13.685" cy="13.685" r="13.685" transform="translate(347.855 1091.34)"/><rect class="h" width="36" height="36" transform="translate(1541.603 1099)"/><rect class="g" width="36" height="36" transform="translate(1550.603 1087)"/><circle class="g" cx="14.756" cy="14.756" r="14.756" transform="translate(1550.82 413.686)"/><ellipse class="c" cx="39.5" cy="12.4" rx="39.5" ry="12.4" transform="matrix(0.357, -0.934, 0.934, 0.357, 993.143, 1443.253)"/><circle class="c" cx="79" cy="79" r="79" transform="translate(866.805 1391.436)"/><circle class="d" cx="27" cy="27" r="27" transform="translate(920.805 1423.436)"/><circle class="e" cx="9" cy="9" r="9" transform="translate(938.805 1441.436)"/><path class="f" d="M99.215,429.687c-6.379-28.568,14.012-57.434,45.544-64.475s62.265,10.41,68.644,38.978-14.519,39.1-46.051,46.145S105.594,458.254,99.215,429.687Z" transform="translate(769.957 967.282)"/><ellipse class="c" cx="12.4" cy="39.5" rx="12.4" ry="39.5" transform="translate(815.817 1428.055) rotate(-64.626)"/><path class="d" d="M137.043,531.655c0,7.732,19.909,23,42,23s42.8-21.768,42.8-29.5-20.713,1.5-42.8,1.5S137.043,523.923,137.043,531.655Z" transform="translate(769.957 967.282)"/><rect class="c" width="24" height="43" transform="translate(909.805 1532.436)"/><rect class="c" width="24" height="43" transform="translate(957.805 1532.436)"/><ellipse class="c" cx="20" cy="7.5" rx="20" ry="7.5" transform="translate(909.805 1568.436)"/><ellipse class="c" cx="20" cy="7.5" rx="20" ry="7.5" transform="translate(957.805 1567.436)"/><g transform="translate(-3 -15)"><ellipse class="e" cx="170" cy="23.127" rx="170" ry="23.127" transform="translate(563 1556.309)"/><circle class="f" cx="13.685" cy="13.685" r="13.685" transform="translate(618.126 1542.34)"/><rect class="h" width="36" height="36" transform="translate(819.603 1540)"/><circle class="f" cx="13.685" cy="13.685" r="13.685" transform="translate(806.125 1550.34)"/></g></g><g transform="translate(-11.325 -92.761)"><g class="i" transform="translate(521.325 1140)"><g class="t" transform="matrix(1, 0, 0, 1, -162.15, -634.55)"><rect class="f" width="362.701" height="147.261" rx="12" transform="translate(171.15 640.55)"/></g><text class="j" transform="translate(27 89.765)"><tspan x="0" y="0">GeneralsekretärInnen</tspan></text></g><g class="i" transform="translate(1071.975 895)"><g class="s" transform="matrix(1, 0, 0, 1, -712.79, -389.55)"><rect class="f" width="362.701" height="147.261" rx="12" transform="translate(721.79 395.55)"/></g><text class="k" transform="translate(87 89.766)"><tspan x="0" y="0">AG Verwaltung</tspan></text></g><g class="i" transform="translate(1071.975 1140)"><g class="r" transform="matrix(1, 0, 0, 1, -712.79, -634.55)"><rect class="f" width="362.701" height="147.261" rx="12" transform="translate(721.79 640.55)"/></g><text class="j" transform="translate(59 89.766)"><tspan x="0" y="0">AG Veranstaltung</tspan></text></g><g class="i" transform="translate(1071.975 1385)"><g class="q" transform="matrix(1, 0, 0, 1, -712.79, -879.55)"><rect class="f" width="362.701" height="147.261" rx="12" transform="translate(721.79 885.55)"/></g><text class="l" transform="translate(34 89)"><tspan x="0" y="0">AG Öffentlichkeitsarbeit</tspan></text></g><g class="m" transform="translate(568.086 1317.265)"><g class="p" transform="matrix(1, 0, 0, 1, -208.91, -811.82)"><rect class="f" width="269.687" height="77.1" rx="12" transform="translate(217.91 817.82)"/></g><text class="n" transform="translate(84 50.627)"><tspan x="0" y="0">Schatzmeister</tspan></text></g><line class="o" y1="216.239" x2="116" transform="translate(928.825 999.261)"/><line class="o" x2="132" transform="translate(928.825 1229.5)"/><line class="o" x2="116" y2="220.761" transform="translate(928.825 1239.5)"/><circle class="f" cx="13.685" cy="13.685" r="13.685" transform="translate(914.018 1213.963)"/><circle class="f" cx="13.685" cy="13.685" r="13.685" transform="translate(1034.596 1448.101)"/><circle class="f" cx="13.685" cy="13.685" r="13.685" transform="translate(1035.083 1214.184)"/><circle class="f" cx="13.685" cy="13.685" r="13.685" transform="translate(1035.023 980.554)"/></g></g></svg>