<svg xmlns="http://www.w3.org/2000/svg" xmlns:xlink="http://www.w3.org/1999/xlink" width="957.881" height="714.656" viewBox="0 0 957.881 714.656"><defs><style>.a,.c{fill:none;}.b{clip-path:url(#a);}.c,.k{stroke:#3f3d56;stroke-miterlimit:10;stroke-width:2px;}.d{fill:#2f2e41;}.e{fill:#f2f2f2;}.f,.k{fill:#3f3d56;}.g{fill:#fff;}.h{fill:#6393f4;}.i{fill:#6c63ff;}.j{fill:#ff6584;}</style><clipPath id="a"><rect class="a" width="957.881" height="714.656"/></clipPath></defs><g class="b"><line class="c" x2="123.607" transform="translate(334.732 219.129)"/><ellipse class="d" cx="33.906" cy="10.644" rx="33.906" ry="10.644" transform="translate(155.489 379.622) rotate(-69.082)"/><path class="e" d="M1096.182,504.193c13.447,100.078-4.864,200.265-98,239.276s-200.266-4.864-239.278-98,53.035-148.864,98-239.276C948.215,222.591,1054.422,193.4,1096.182,504.193Z" transform="translate(-142.232 -67.023)"/><ellipse class="f" cx="145.925" cy="19.852" rx="145.925" ry="19.852" transform="translate(640.352 662.077)"/><rect class="d" width="20.601" height="36.91" transform="translate(696.301 651.261) rotate(-105.453)"/><ellipse class="d" cx="6.438" cy="17.168" rx="6.438" ry="17.168" transform="translate(677.917 623.389) rotate(-15.453)"/><ellipse class="d" cx="33.906" cy="10.644" rx="33.906" ry="10.644" transform="matrix(0.134, -0.991, 0.991, 0.134, 777.454, 593.849)"/><circle class="d" cx="67.812" cy="67.812" r="67.812" transform="translate(718.109 557.346)"/><rect class="d" width="20.601" height="36.91" transform="translate(696.301 639.244) rotate(-105.453)"/><ellipse class="d" cx="6.438" cy="17.168" rx="6.438" ry="17.168" transform="translate(677.917 611.372) rotate(-15.453)"/><circle class="g" cx="23.176" cy="23.176" r="23.176" transform="translate(780.551 563.135)"/><circle class="f" cx="7.725" cy="7.725" r="7.725" transform="translate(803.413 568.348)"/><path class="h" d="M1043.43,799.749c25.094-1.256,44.314-24.728,42.927-52.427s-22.853-49.134-47.947-47.879-29.032,20.955-27.646,48.654S1018.331,801,1043.43,799.749Z" transform="translate(-179.198 -127.99)"/><path class="g" d="M922.586,723.5a15.451,15.451,0,1,1-2.493-30.8c8.506-.688,10.825,6.064,11.514,14.569S931.092,722.814,922.586,723.5Z" transform="translate(-164.38 -127.036)"/><path class="c" d="M49.464,354.349H429.291l58.887,28.689,93.826,45.71,61.347-114.862h173.6" transform="translate(-7.005 -44.452)"/><circle class="i" cx="11.747" cy="11.747" r="11.747" transform="translate(179.509 310.167)"/><circle class="h" cx="11.747" cy="11.747" r="11.747" transform="translate(289.15 298.15)"/><circle class="h" cx="11.747" cy="11.747" r="11.747" transform="translate(469.276 326.865)"/><circle class="h" cx="11.747" cy="11.747" r="11.747" transform="translate(722.494 257.687)"/><circle class="h" cx="11.747" cy="11.747" r="11.747" transform="translate(599.8 303.371)"/><circle class="c" cx="12.666" cy="12.666" r="12.666" transform="translate(354.357 486.432)"/><ellipse class="f" cx="145.925" cy="19.852" rx="145.925" ry="19.852" transform="translate(0 674.952)"/><circle class="d" cx="67.812" cy="67.812" r="67.812" transform="translate(70.22 529.995)"/><rect class="d" width="20.601" height="36.91" transform="translate(107.13 651.027)"/><rect class="d" width="20.601" height="36.91" transform="translate(148.332 651.027)"/><ellipse class="d" cx="17.168" cy="6.438" rx="17.168" ry="6.438" transform="translate(107.13 681.929)"/><ellipse class="d" cx="17.168" cy="6.438" rx="17.168" ry="6.438" transform="translate(148.332 681.07)"/><circle class="g" cx="23.176" cy="23.176" r="23.176" transform="translate(116.572 557.463)"/><circle class="f" cx="7.725" cy="7.725" r="7.725" transform="translate(132.023 572.914)"/><path class="h" d="M126.05,647.335c-5.475-24.522,12.028-49.3,39.094-55.344s53.447,8.936,58.923,33.458-12.463,33.566-39.529,39.61S131.525,671.857,126.05,647.335Z" transform="translate(-53.798 -112.591)"/><circle class="d" cx="67.812" cy="67.812" r="67.812" transform="translate(47.043 335.143)"/><rect class="d" width="20.601" height="36.91" transform="translate(83.954 456.174)"/><rect class="d" width="20.601" height="36.91" transform="translate(125.156 456.174)"/><ellipse class="d" cx="17.168" cy="6.438" rx="17.168" ry="6.438" transform="translate(83.954 487.076)"/><ellipse class="d" cx="17.168" cy="6.438" rx="17.168" ry="6.438" transform="translate(125.156 486.218)"/><circle class="g" cx="23.176" cy="23.176" r="23.176" transform="translate(93.396 362.611)"/><circle class="f" cx="7.725" cy="7.725" r="7.725" transform="translate(108.847 378.062)"/><path class="h" d="M99.05,420.335c-5.476-24.522,12.028-49.3,39.094-55.344s53.447,8.936,58.923,33.458-12.462,33.566-39.529,39.61S104.525,444.857,99.05,420.335Z" transform="translate(-49.974 -80.443)"/><ellipse class="d" cx="10.644" cy="33.906" rx="10.644" ry="33.906" transform="translate(3.277 366.576) rotate(-64.626)"/><path class="g" d="M137.043,530.3c0,6.637,17.089,19.743,36.052,19.743s36.743-18.685,36.743-25.322-17.78,1.288-36.743,1.288S137.043,523.66,137.043,530.3Z" transform="translate(-55.497 -102.878)"/><rect class="h" width="108.267" height="55.075" transform="translate(717.155 484.736)"/><rect class="c" width="108.267" height="55.075" transform="translate(708.682 493.68)"/><rect class="j" width="30.902" height="30.902" transform="translate(194.512 170.818)"/><rect class="c" width="30.902" height="30.902" transform="translate(186.786 160.517)"/><circle class="d" cx="67.812" cy="67.812" r="67.812" transform="translate(709.925 94.825)"/><rect class="d" width="20.601" height="36.91" transform="translate(824.193 245.815) rotate(169.739)"/><rect class="d" width="20.601" height="36.91" transform="translate(783.65 253.155) rotate(169.739)"/><ellipse class="d" cx="17.168" cy="6.438" rx="17.168" ry="6.438" transform="translate(752.725 265.744) rotate(-40.261)"/><ellipse class="d" cx="17.168" cy="6.438" rx="17.168" ry="6.438" transform="translate(792.424 258.558) rotate(-40.261)"/><circle class="g" cx="23.176" cy="23.176" r="23.176" transform="translate(749.814 122.874)"/><circle class="f" cx="7.725" cy="7.725" r="7.725" transform="translate(755.739 130.017)"/><path class="h" d="M993.858,129.4c1.02-25.105-20.617-46.369-48.328-47.495s-51,18.314-52.02,43.419,18.242,30.809,45.953,31.935S992.836,154.507,993.858,129.4Z" transform="translate(-162.622 -40.536)"/><ellipse class="d" cx="10.644" cy="33.906" rx="10.644" ry="33.906" transform="translate(679.698 153.085) rotate(-77.09)"/><ellipse class="d" cx="10.644" cy="33.906" rx="10.644" ry="33.906" transform="translate(812.809 175.225) rotate(-77.09)"/><path class="g" d="M964.74,252.992a15.451,15.451,0,0,1-30.408,5.5c-1.52-8.4,4.972-11.368,13.369-12.888S963.219,244.6,964.74,252.992Z" transform="translate(-168.377 -63.631)"/><line class="c" x2="78.113" y2="60.087" transform="translate(611.685 84.98)"/><circle class="j" cx="58.37" cy="58.37" r="58.37" transform="translate(516.404)"/><ellipse class="d" cx="33.906" cy="10.644" rx="33.906" ry="10.644" transform="matrix(0.134, -0.991, 0.991, 0.134, 752.001, 609.961)"/><circle class="h" cx="11.747" cy="11.747" r="11.747" transform="translate(47.319 662.961)"/><rect class="j" width="30.902" height="30.902" transform="translate(220.263 660.953)"/><circle class="h" cx="11.747" cy="11.747" r="11.747" transform="translate(208.694 669.829)"/><circle class="h" cx="11.747" cy="11.747" r="11.747" transform="translate(384.788 207.161)"/><circle class="j" cx="5.61" cy="5.61" r="5.61" transform="translate(619.052 577.447)"/><line class="k" y1="63.874" transform="translate(652.145 612.294)"/><circle class="f" cx="9.033" cy="9.033" r="9.033" transform="translate(643.113 603.262)"/><path class="f" d="M797.2,788.8s-1.29-27.753-27.743-24.527" transform="translate(-145.06 -137.142)"/></g></svg>