<svg xmlns="http://www.w3.org/2000/svg" xmlns:xlink="http://www.w3.org/1999/xlink" viewBox="0 0 310.7 63.41"><defs><style>.cls-1{fill:none;}.cls-2{clip-path:url(#clip-path);}.cls-3,.cls-4{fill:#6393f4;}.cls-3{fill-rule:evenodd;}</style><clipPath id="clip-path" transform="translate(0 0)"><rect class="cls-1" x="179.2" width="73.06" height="63.41"/></clipPath></defs><title>Asset 4</title><g id="Layer_2" data-name="Layer 2"><g id="Layer_1-2" data-name="Layer 1"><g id="Logo_small_white"><g class="cls-2"><g class="cls-2"><path class="cls-3" d="M192,56.82c3.09,1.24,6.34.55,10.76-.58a24.39,24.39,0,0,1,14.51,1.31,19.87,19.87,0,0,1,7.35,5.16c.29.3.14.38-.1.47a3.75,3.75,0,0,1-.65.23c-.29.05-.37-.15-.61-.42-2.58-3-4.88-5.15-8.32-5.78a10.17,10.17,0,0,0-5.53.63c-4.38,1.9-11.54,3.46-17.46-.87-.32-.24-.08-.2.05-.15" transform="translate(0 0)"/><path class="cls-3" d="M186.29,49.28c-.21-.28-.19-.32.12-.13a15.61,15.61,0,0,0,5.76,2.51,47,47,0,0,1,5.94,1.67,19.89,19.89,0,0,0,3.15.94c.23,0,.27-.11,0-.2-3.81-1.17-5.22-4.47-6.05-6.75s-1-3.34-1.16-3.88,0-.41.26,0c2.25,2.78,3.07,2.74,5.11,5.93,1.7,2.63,2.18,4.58,3.9,5.22.31.13.28.25-.09.28-1.64.14-2.36.49-4,.71-3.84.53-8.33.06-13-6.25" transform="translate(0 0)"/><path class="cls-3" d="M181.53,38.73c-.09-.33,0-.32.13-.08a18.78,18.78,0,0,0,5,5.21,56,56,0,0,1,6.4,5.7c.22.22.4.09.21-.15a16.23,16.23,0,0,1-3.18-8.95,39.38,39.38,0,0,0-.47-4.18c-.12-.44,0-.36.15-.06,2.12,4,4,7.06,4.34,10.36a19.56,19.56,0,0,0,.55,4.12c.26.53.06.36-.32.17s-2.52-.8-3.81-1.17c-4.19-1.2-7.1-3.86-9-11" transform="translate(0 0)"/><path class="cls-3" d="M179.62,28.85c-.06-.2-.15-.23-.12,0,.51,5.44,2.6,8.94,5.58,11.34A29.1,29.1,0,0,1,188,42.64c.24.36.39.54.33-.06-.26-2.59.64-4.1.6-7.52a20.66,20.66,0,0,0-1.17-7.39c0-.09-.1-.12-.1,0a20.62,20.62,0,0,1-.69,3.85,19.24,19.24,0,0,0-.14,6.7c.25,1.09.46,1.77.54,2s-.09.49-.28.07a28.55,28.55,0,0,0-4.76-7,11.82,11.82,0,0,1-2.67-4.54" transform="translate(0 0)"/><path class="cls-3" d="M184.18,33.79c.12.28.21.25.23-.08.1-1.51.91-2.6,1.61-4.21a19.3,19.3,0,0,0,1.85-8.92c0-.18-.13-.28-.19,0-.44,2-1.85,3.5-2.62,5.52A18.94,18.94,0,0,0,184,30.55c0,.28-.25.27-.3,0a32.59,32.59,0,0,0-3.27-9.45,7.21,7.21,0,0,1-.75-2.63c0-.37-.15-.3-.21,0a15.8,15.8,0,0,0,3.17,12.61,10,10,0,0,1,1.57,2.73" transform="translate(0 0)"/><path class="cls-3" d="M183.38,26.4c0,.26.1.49.17,0,.31-2.31,2.43-4.16,3-4.95a30.9,30.9,0,0,0,4.28-8.12c.06-.2,0-.34-.26-.07-1.47,1.85-4.47,3.46-5.89,6.84-.21.51-.45.51-.4-.09a33.3,33.3,0,0,0-.18-6.8,8.78,8.78,0,0,1,.55-4c.24-.41-.1-.26-.23-.06-2.76,4.17-3.26,8.11-2,13.11a30.45,30.45,0,0,1,1,4.16" transform="translate(0 0)"/><path class="cls-3" d="M185.34,17.23c-.07.32.07.42.31,0a8,8,0,0,1,2.43-2.48,18.19,18.19,0,0,0,6.26-7.45c.11-.28,0-.27-.23,0-1.35,1.75-4.12,2.69-5.74,4.46a16.13,16.13,0,0,0-1.12,1.37c-.13.22-.37.19-.27-.18.91-3.32,1.2-4.83,1.39-5.86a8.35,8.35,0,0,1,1.16-2.91c.17-.23.05-.37-.25-.08C186.22,7,185,9.53,185.23,13.25a17.47,17.47,0,0,1,.11,4" transform="translate(0 0)"/><path class="cls-3" d="M187.73,11.52c-.06.34,0,.42.18.22,1.89-2.09,3.26-2.67,5.6-5.75a29.75,29.75,0,0,1,2.57-3.41c.21-.21.08-.39-.26-.22-3.44,1.72-7.26,4.17-8.09,9.16" transform="translate(0 0)"/><path class="cls-3" d="M239.5,57.58c-3,1.59-6.44.18-10.85-1a24.44,24.44,0,0,0-14.61.74,20.84,20.84,0,0,0-7.64,5.08c-.3.3-.15.39.09.48a3.94,3.94,0,0,0,.64.23c.3.06.38-.14.62-.41,2.62-2.9,5.09-4.89,8.53-5.47A11.12,11.12,0,0,1,222,58c4.35,2,11.26,3.85,17.51-.26.34-.22.07-.21,0-.14" transform="translate(0 0)"/><path class="cls-3" d="M244.9,50c.21-.28.06-.28-.23-.07a12.85,12.85,0,0,1-5.58,2.51,51.31,51.31,0,0,0-6,1.49,21.69,21.69,0,0,1-3.33.89c-.23,0-.27-.14,0-.2,4.53-1,5.42-4.3,6.28-6.56s1.2-3.55,1.4-4.08,0-.42-.25-.06c-2.3,2.74-3.07,2.78-5.16,5.94-1.74,2.6-2.12,4.36-4.33,5.21-.32.12-.29.23.08.27a23.39,23.39,0,0,1,3.82.82c3.54.82,8.8.12,13.3-6.16" transform="translate(0 0)"/><path class="cls-3" d="M249.79,40c.12-.32.05-.32-.13-.08a23,23,0,0,1-5.1,5.12c-1.45,1.18-4.51,3.25-6.48,5.61-.2.24-.4.08-.21-.15a16.26,16.26,0,0,0,3.31-8.9,35.38,35.38,0,0,1,.68-4.4c.11-.44,0-.36-.15-.06-2.18,3.94-4.14,7.31-4.55,10.6a16,16,0,0,1-.7,4c-.26.53.12.36.5.18a37.14,37.14,0,0,1,3.65-1.11c3.41-.92,6.75-4,9.18-10.83" transform="translate(0 0)"/><path class="cls-3" d="M251.8,30.6c.06-.21.13-.24.11,0-.46,6.17-2.73,8.5-5.75,10.85a30.2,30.2,0,0,0-2.92,2.37c-.24.36-.39.54-.32-.06.29-2.58-.54-4.37-.44-7.79a18,18,0,0,1,1.27-6.89c0-.09.11-.12.1.05a22,22,0,0,0,.5,3.95c.29,1.79.79,4.17.13,6.4-.31,1.07-.49,1.76-.57,2s.08.48.28.07a26.65,26.65,0,0,1,4.73-6.69,12,12,0,0,0,2.88-4.31" transform="translate(0 0)"/><path class="cls-3" d="M247.25,35.2c-.12.27-.3.25-.33-.08a11.44,11.44,0,0,0-1.57-4.3A15.26,15.26,0,0,1,243.86,22c0-.18.22-.28.28,0,.52,2.44,1.6,3.63,2.34,5.67a19.31,19.31,0,0,1,.94,4.75c0,.28.26.28.3,0a26.27,26.27,0,0,1,3.46-9.62A7.37,7.37,0,0,0,252,20.1c0-.37.19-.3.21,0,.35,4.5-.31,9.07-3.13,12.47a9.54,9.54,0,0,0-1.79,2.62" transform="translate(0 0)"/><path class="cls-3" d="M246.31,18.09c.06.3-.07.39-.3,0a6.45,6.45,0,0,0-2.38-2.29,18.07,18.07,0,0,1-5.73-7.14c-.12-.28.16-.36.36-.09,1.26,1.69,3.46,2.46,5,4.18.47.53,1.18,1.44,1.31,1.65s.38.18.27-.17a34.41,34.41,0,0,1-1.3-5.92,8.87,8.87,0,0,0-.93-3c-.17-.23,0-.37.24-.08,2.63,2.9,3.89,5.44,3.62,9a16.72,16.72,0,0,0-.16,3.82" transform="translate(0 0)"/><path class="cls-3" d="M244,12.75c0,.34,0,.41-.19.22-1.85-2.12-2.64-2.16-4.93-5.27-.88-1.19-1.45-3.13-2.39-4.07-.2-.21-.07-.39.26-.21,2.93,1.64,6.76,4.68,7.25,9.33" transform="translate(0 0)"/><path class="cls-3" d="M241.12,14.74c.81,1.62,2.26,5,2.78,6.06,1.34,2.76,3.63,5,3.85,5.84s.31.76.43-.06c.38-2.59,1.53-1.94,1.88-7.44a16.63,16.63,0,0,0-2.62-8.7c-.17-.24-.4-.14-.23.23a10.26,10.26,0,0,1,.26,5.4,26.27,26.27,0,0,0,0,6.21c.09.54-.11.47-.26,0a16,16,0,0,0-4.15-6.13,16.65,16.65,0,0,1-1.63-1.59c-.22-.22-.48-.22-.31.13" transform="translate(0 0)"/><path class="cls-4" d="M212.62,21.65l.27.37a5,5,0,0,1,7.1,1.55l.4-.23a5.5,5.5,0,0,0-.85-1.1,5.38,5.38,0,0,0-6.92-.59" transform="translate(0 0)"/><path class="cls-4" d="M220.65,25.86a4.93,4.93,0,0,1-5.88,5l-.1.45a5.35,5.35,0,0,0,4.87-1.47,5.42,5.42,0,0,0,1.58-4Z" transform="translate(0 0)"/><path class="cls-4" d="M211.92,29.86a5.77,5.77,0,0,0,1,.82l.24-.4a5.22,5.22,0,0,1-.95-.75,4.91,4.91,0,0,1-.75-6l-.4-.24a5.37,5.37,0,0,0,.82,6.57" transform="translate(0 0)"/><path class="cls-4" d="M208.26,18.59a10.56,10.56,0,0,0,0,14.92l.32-.33a10.09,10.09,0,1,1,17.23-7.13,10,10,0,0,1-3,7.13l.33.33a10.55,10.55,0,1,0-14.93-14.92" transform="translate(0 0)"/><path class="cls-4" d="M215.73,10.33a15.72,15.72,0,1,0,11.11,4.6,15.63,15.63,0,0,0-11.11-4.6M200.48,26.05a15.23,15.23,0,1,1,4.46,10.79,15.25,15.25,0,0,1-4.46-10.79" transform="translate(0 0)"/><path class="cls-4" d="M215.73,5.17a20.88,20.88,0,1,0,14.76,6.11,20.77,20.77,0,0,0-14.76-6.11M201.29,40.49h0a20.42,20.42,0,1,1,28.88,0,20.29,20.29,0,0,1-28.88,0" transform="translate(0 0)"/><path class="cls-4" d="M197.31,7.63A26,26,0,1,0,215.73,0a26.07,26.07,0,0,0-18.42,7.63m.33.33a25.58,25.58,0,1,1,0,36.18,25.42,25.42,0,0,1,0-36.18" transform="translate(0 0)"/><rect class="cls-4" x="226.45" y="26.67" width="0.46" height="20.66" transform="translate(40.23 171.13) rotate(-45)"/><rect class="cls-4" x="224.99" y="25.82" width="16.56" height="0.46"/><rect class="cls-4" x="216.36" y="14.86" width="20.65" height="0.46" transform="translate(55.72 164.71) rotate(-45)"/><rect class="cls-4" x="215.5" y="0.23" width="0.46" height="20.64"/><rect class="cls-4" x="201.87" y="5.88" width="0.46" height="13.09" transform="translate(50.41 146.55) rotate(-45)"/><rect class="cls-4" x="189.91" y="25.82" width="20.64" height="0.46"/><rect class="cls-4" x="195.31" y="38.85" width="14.78" height="0.46" transform="translate(31.74 154.77) rotate(-45)"/><rect class="cls-4" x="215.5" y="40.49" width="0.46" height="11.37"/><polygon class="cls-4" points="208.14 3.45 208.1 3.63 207.98 3.83 207.82 3.85 207.84 3.21 207.92 2.95 207.98 2.28 208.23 2.3 208.18 2.76 208.33 3.36 208.14 3.45"/><polygon class="cls-4" points="217.94 6.02 217.66 5.93 217.68 5.55 217.77 5.49 218.18 5.51 218.28 5.73 218.43 5.82 218.47 6.02 218.37 6.06 218.27 6.22 217.93 6.22 217.94 6.02"/><polygon class="cls-4" points="225.7 4.08 225.88 3.99 226.04 4.08 226.05 4.54 226.59 4.55 226.63 4.46 226.76 4.38 226.97 4.6 226.96 4.94 226.8 5.1 226.62 5.17 226.62 5.71 226.76 5.86 226.79 6.01 226.88 6.1 226.97 6.3 226.96 6.43 226.85 6.52 226.76 6.52 226.71 6.34 225.82 6.42 225.8 6.62 225.99 6.72 225.95 6.92 225.66 6.92 225.44 6.82 225.37 6.7 225.18 6.66 224.9 6.5 224.91 6.42 225.03 6.38 225.06 6.25 225.19 6.11 225.38 6.06 225.36 5.92 225.21 5.89 225.09 5.83 224.9 5.77 224.76 5.66 224.68 5.57 224.75 5.49 224.81 5.32 224.83 5.13 224.94 5.06 225.01 4.94 225.2 4.81 225.77 4.91 225.88 5.14 226.09 5.23 226.24 5.15 226.38 5 226.36 4.85 226.25 4.82 226.16 4.75 225.88 4.71 225.75 4.58 225.42 4.58 225.31 4.49 225.53 4.2 225.7 4.08"/><polygon class="cls-4" points="222.27 31.22 222.32 31.07 222.51 31.14 222.64 31.24 222.85 31.32 223.11 31.25 223.27 31.11 223.58 30.99 224.12 30.72 224.72 30.2 225.18 30.18 225.24 30.24 225.4 30.23 225.48 30.15 225.83 30.18 226 30.05 226.16 29.86 226.19 29.57 226.43 29.54 226.5 29.37 226.84 29.23 226.98 29.07 227.15 28.92 227.65 28.89 227.76 28.76 227.84 28.47 227.92 28.28 228.75 28.24 228.9 28.16 229.23 28.05 229.38 27.93 230.06 27.73 230.17 27.5 230.31 27.35 230.53 27.21 230.57 26.95 230.51 26.8 230.47 26.55 230.6 26.39 231.31 26.39 231.56 26.51 231.66 26.65 231.63 26.99 231.76 27.19 232.02 27.28 232.43 27.25 232.57 27.11 232.59 26.59 232.69 26.43 232.86 26.25 232.88 26.06 233 25.78 233.09 25.71 233.19 25.48 233.12 24.89 232.99 24.8 232.92 24.68 232.56 23.68 232.38 23.59 232.28 23.43 232.14 23.42 231.97 23.27 231.91 22.74 231.79 22.69 231.74 22.58 231.43 22.21 231.33 21.89 231.23 21.77 231.21 21.52 231.32 21.37 231.43 21.05 231.62 20.84 231.6 20.36 231.64 20.1 231.59 19.88 231.48 19.77 231.38 19.49 231.31 18.91 231.18 18.75 231.16 18.62 230.95 18.57 230.84 18.39 230.74 18.16 230.74 17.36 230.65 17.25 230.64 17.18 230.74 17.12 230.77 16.84 230.65 16.73 230.58 16.64 230.38 16.49 230.3 16.46 230.22 16.36 230.06 16.31 229.93 16.09 229.71 16.02 229.61 15.86 229.47 15.75 229.32 15.58 229.3 15.45 229.24 15.43 229.24 14.94 229.34 14.93 229.35 14.7 229.47 14.45 229.53 14.24 229.61 14.21 229.65 13.82 229.68 13.78 229.71 13.46 229.84 13.34 229.81 13.04 229.74 12.9 229.75 12.59 229.87 12.48 229.89 12.29 229.75 12.18 229.64 11.88 229.52 11.8 229.44 11.55 229.35 11.54 229.34 10.24 229.24 10.12 229.13 9.9 229.11 9.81 228.72 9.8 228.65 9.75 228.56 9.66 228.43 9.56 228.13 9.52 228.02 9.4 227.64 9.25 227.62 8.79 227.4 8.48 227.34 8.35 227.34 8.13 227.11 8.1 227.11 7.96 227.2 7.91 227.23 7.64 226.95 7.42 226.75 7.46 226.5 7.57 226.21 7.6 225.73 7.39 225.72 7.26 225.29 7.03 225.09 6.86 224.9 6.8 224.86 6.68 224.81 6.68 224.74 6.43 224.59 6.19 224.58 6.05 224.37 5.98 223.95 6.27 223.58 6.33 222.97 6.83 222.77 6.92 222.38 6.87 222.38 6.74 222.49 6.53 222.6 6.5 222.72 6.32 222.98 6.17 223.08 6.06 223.47 5.96 223.74 5.93 223.71 5.74 223.42 5.66 223.21 5.54 222.89 5.54 222.71 5.63 222.58 5.85 222.43 5.99 222.27 6.36 222.17 6.46 222.17 6.8 221.74 6.92 221.52 7.2 221.29 7.37 220.25 7.53 220.06 7.64 219.94 7.79 219.59 7.86 219.42 7.97 219.22 8.25 219.16 8.24 219.14 8.8 218.97 8.98 218.6 9.04 218.52 8.93 218.34 8.86 218.21 8.86 218.14 8.9 217.78 8.9 217.61 8.97 217.05 8.93 216.79 8.64 216.8 8.39 217.06 8.33 217.18 8.17 217.46 7.97 217.55 7.58 217.73 7.3 217.89 7.2 217.85 6.42 217.66 6.36 217.64 6.37 217.6 6.52 217.14 6.49 217.03 6.65 216.53 6.65 216.3 6.57 216.27 6.38 216.16 6.29 214.94 6.2 214.78 6.52 214.44 6.49 214.41 5.99 214.25 5.98 214.1 5.86 213.7 5.86 213.7 5.55 213.92 5.18 213.88 4.48 213.83 4.33 213.7 4.3 213.5 4.02 213.35 3.92 213.27 3.78 213.05 3.71 212.92 3.65 212.33 3.61 211.99 3.71 211.79 3.67 211.68 3.61 211.1 3.54 211.06 3.4 210.29 3.33 210.2 3.28 209.98 3.28 209.92 3.33 209.28 3.33 209.35 3.76 209.52 3.99 209.68 4.36 209.84 4.56 209.92 4.79 209.97 5.05 210.12 5.22 210.11 5.59 210.02 5.66 209.88 5.64 209.87 5.85 209.98 5.87 210.11 5.67 210.13 6.01 209.93 6.11 209.87 6.22 209.15 6.19 209 6.42 209.08 6.76 209.16 6.88 209.32 7.04 209.39 7.02 209.49 6.92 209.76 6.86 209.95 6.99 209.9 7.16 209.9 7.72 210.19 7.81 210.32 7.97 210.26 8.32 210.12 8.44 210.13 8.87 210.29 9.05 210.38 9.19 210.63 9.21 210.91 9.45 211.02 9.47 210.97 9.63 210.71 9.7 210.33 9.7 210.15 9.77 209.7 9.73 209.6 9.63 209.49 9.63 209.23 9.58 209.02 9.65 208.93 9.83 208.78 9.9 208.72 10.06 208.6 10.25 208.6 10.83 208.74 11.09 208.68 11.36 208.56 11.39 208.45 11.35 208.34 11.17 208.25 11.17 208.17 11.05 208.08 11.05 208.04 11.17 207.97 11.17 207.79 11.2 207.77 11.4 207.82 11.56 207.97 11.65 207.99 12.07 207.86 12.23 207.68 12.22 207.51 12.13 207.45 11.96 207.32 11.94 207.31 11.76 207.42 11.66 207.39 11.33 207.26 11.2 207.1 10.62 206.94 10.57 206.81 10.57 206.93 10.47 206.86 10.38 205.97 10.38 205.73 10.42 205.49 10.42 205.29 10.57 204.5 10.6 203.7 10.98 203.43 11.26 203.3 11.62 203.25 11.65 203.22 11.99 203.32 12.24 203.45 12.39 203.78 12.51 203.99 12.89 203.97 13.19 203.62 14.94 203.59 15.06 203.36 16.6 203.2 16.69 203.09 16.85 202.95 16.84 202.89 16.78 202.34 16.78 202.06 17.07 202.05 17.39 201.97 17.62 202.05 17.77 202.05 17.96 202.6 18.07 202.79 18.27 202.94 18.64 202.91 18.97 202.84 19.06 202.75 19.77 202.54 19.82 202.43 20.04 202.12 20.19 201.98 20.32 201.74 20.4 201.75 20.67 201.91 20.8 201.91 21.11 201.8 21.28 201.55 21.36 201.25 21.39 200.91 21.63 200.31 21.68 199.79 21.57 199.17 21.54 198.91 21.77 198.76 22.09 198.76 22.74 198.88 23.01 199.11 23.17 199.14 23.39 199.26 23.48 199.54 23.99 199.6 24.82 199.37 25.06 199.24 25.31 199.24 25.94 199.17 26.33 199.03 26.43 198.95 26.34 198.75 26.34 198.53 26.43 198.43 26.57 198.26 26.62 198.26 27.17 198.6 27.22 198.84 27.41 198.88 27.81 198.77 28.03 198.6 28.17 198.48 28.35 198.51 28.64 198.65 28.77 198.77 28.92 198.98 28.97 199.07 29.17 199.38 29.23 199.45 29.45 199.55 29.57 199.66 29.96 199.84 30.05 199.88 30.63 200 30.96 199.91 31.23 199.74 31.57 199.24 32.17 199.09 32.5 199.03 32.85 199.17 33.32 199.29 33.44 199.41 33.67 199.96 34.22 200.2 34.41 200.4 34.81 200.28 34.89 200.2 35.19 200.04 35.42 199.93 35.62 199.91 36.06 199.87 36.28 199.9 36.47 200.06 36.88 200.18 36.93 200.27 37.03 200.42 37.03 200.53 37.18 200.62 37.44 200.82 37.7 200.84 37.99 200.95 38.07 201.08 38.36 201.49 38.71 201.74 38.6 201.74 38.37 201.87 38.24 202.03 38.24 202.15 38.42 202.25 38.63 202.38 38.76 202.57 38.76 202.65 38.67 203.06 38.63 203.2 38.76 203.61 38.75 203.76 38.62 203.95 38.63 204.2 38.76 204.33 38.94 204.69 39.24 205.03 39.27 205.2 39.46 205.4 39.48 205.56 39.57 205.85 39.61 206.07 39.67 206.25 39.78 206.45 39.86 206.96 39.85 207.19 39.81 207.25 39.82 207.24 40.01 207.1 40.32 206.96 40.49 206.64 40.68 206.64 40.89 206.48 40.9 206.33 41.11 206.2 41.18 206.18 41.28 205.94 41.54 205.89 41.72 205.76 41.87 205.71 42.11 205.71 42.19 205.58 42.27 205.44 43.11 205.31 43.24 205.15 43.63 205.02 43.84 204.94 44.03 204.93 44.17 204.85 44.26 204.7 44.38 204.65 44.66 204.58 44.88 204.51 45.27 204.58 45.49 204.62 45.74 204.71 46.04 204.67 46.48 204.59 46.69 204.53 47.06 204.55 47.56 204.65 48.02 204.79 48.03 204.9 48.18 205.2 48.19 205.5 48.15 206.01 48.23 206.37 48.2 206.48 48.33 207.4 48.34 207.69 48.41 208 48.41 208.29 48.31 208.47 48.18 208.59 48.13 208.74 47.99 208.9 47.95 208.86 47.77 208.48 47.77 208.4 47.66 208.31 47.62 208.33 47.35 208.54 47.15 208.68 47.04 208.91 47.03 209 46.97 209.14 47.02 209.18 47.24 209.3 47.39 209.62 47.44 209.71 47.33 209.85 47.33 209.96 47.52 210.37 47.65 211.26 47.68 211.57 47.71 211.66 47.81 211.87 47.81 212.19 47.9 212.28 48.08 212.5 48.15 212.61 48.31 212.82 48.41 213.1 48.41 213.47 48.68 213.76 48.61 213.78 48.5 213.96 48.41 214.14 48.48 214.21 48.61 214.52 48.69 214.77 48.82 214.82 49.19 214.93 49.31 215.17 49.38 215.27 49.65 215.35 49.68 215.45 49.82 215.79 49.8 215.89 49.72 216.16 49.64 216.26 49.44 216.28 49.19 216.39 49.06 216.38 48.79 216.44 48.41 217.08 48.41 217.28 48.51 217.65 48.51 217.8 48.66 217.96 48.68 218.24 48.99 218.56 49.09 218.67 49.2 218.84 49.19 218.94 49.12 219.45 48.9 219.51 48.74 220.08 48.69 220.41 48.72 220.54 48.62 220.62 48.48 220.61 48.24 220.91 48.2 221.1 47.9 221.45 47.81 221.54 47.75 221.91 47.66 222.36 47.6 222.54 47.45 223.29 47.35 223.5 47.09 224.23 47.06 224.77 47.11 225 47.25 225.27 47.22 225.4 47.11 225.64 47.02 225.71 47.11 225.83 47.61 226.02 47.66 226.15 47.8 226.28 47.81 226.57 47.97 226.68 48.06 226.83 48.05 227.15 47.16 227.1 46.91 227.02 46.78 226.71 46.74 226.47 46.63 226.49 46.39 226.64 46.19 226.7 45.93 226.69 45.64 226.55 45.58 226.43 45.24 226.14 45.03 225.97 44.95 225.93 44.7 225.7 44.58 225.61 44.28 225.79 44.11 226.05 43.99 226.33 43.76 226.75 43.63 226.75 43.6 226.75 43.57 227.19 43.59 227.53 43.5 227.6 43.27 227.82 43.09 227.89 42.88 228.07 42.71 228.29 42.21 228.59 41.91 228.72 41.7 228.87 41.65 229.29 41.77 229.47 41.6 229.47 41.2 229.53 40.69 229.13 39.6 228.99 39.48 228.85 39.29 228.52 39.1 228.15 39.09 228.09 39.16 227.92 39.16 227.84 38.88 227.42 38.23 227.07 37.99 226.91 37.92 226.83 37.78 226.53 37.45 226.43 37.24 226.28 37.16 226.21 36.98 226.09 36.94 225.56 36.62 225.1 36.57 224.82 36.23 224.63 36.16 224.52 35.99 224.4 35.4 224.3 35.08 223.84 34.55 223.81 34.19 223.94 33.34 224.09 33.12 223.98 32.95 223.74 32.84 223.33 32.6 223.01 32.54 222.91 32.33 222.74 32.24 222.63 32.1 222.59 31.89 222.5 31.77 222.27 31.22"/></g></g></g><path class="cls-4" d="M12.08,59.28a20,20,0,0,1-8.66-6.47A17.37,17.37,0,0,1,0,42.5a1.88,1.88,0,0,1,.49-1.28,1.73,1.73,0,0,1,1.32-.53H13a2.38,2.38,0,0,1,1.69.58A5.07,5.07,0,0,1,15.75,43q1.32,6.6,8.49,6.59a7.71,7.71,0,0,0,6.35-2.72q2.23-2.71,2.23-7.83V15.21H6.1a2,2,0,0,1-1.44-.62A2,2,0,0,1,4,13.15V5A2,2,0,0,1,4.66,3.5,2.06,2.06,0,0,1,6.1,2.92H46a2.19,2.19,0,0,1,1.53.58A2,2,0,0,1,48.15,5V39.45a22.29,22.29,0,0,1-3,12,19.3,19.3,0,0,1-8.57,7.5,29.88,29.88,0,0,1-12.7,2.56A31,31,0,0,1,12.08,59.28Z" transform="translate(0 0)"/><path class="cls-4" d="M65.26,55.78q-6.56-5.69-6.55-17.15V5a1.93,1.93,0,0,1,.62-1.49,2.06,2.06,0,0,1,1.44-.58H71.41a2.17,2.17,0,0,1,1.52.58A2,2,0,0,1,73.55,5V38.54q0,5.37,2.52,8t7.29,2.68c3.14,0,5.55-.9,7.26-2.72s2.56-4.48,2.56-8V5a2,2,0,0,1,.61-1.49,2.1,2.1,0,0,1,1.45-.58H106a2,2,0,0,1,1.48.58A2,2,0,0,1,108,5V38.63q0,11.46-6.56,17.15t-18,5.69Q71.81,61.47,65.26,55.78Z" transform="translate(0 0)"/><path class="cls-4" d="M119.6,60a2,2,0,0,1-.62-1.45V5a2,2,0,0,1,.62-1.49A2.06,2.06,0,0,1,121,2.92h8.75a2.82,2.82,0,0,1,2.8,1.57l20.12,31.66V5a1.93,1.93,0,0,1,.62-1.49,2.06,2.06,0,0,1,1.44-.58h9.89A2,2,0,0,1,166.73,5V58.5a2.19,2.19,0,0,1-.58,1.53,2,2,0,0,1-1.49.61h-8.82a2.94,2.94,0,0,1-2.72-1.56L133,28.57v30a2.06,2.06,0,0,1-.58,1.45,1.93,1.93,0,0,1-1.48.61H121A2,2,0,0,1,119.6,60Z" transform="translate(0 0)"/><path class="cls-4" d="M263.57,60a2,2,0,0,1-.62-1.45V5a1.94,1.94,0,0,1,.62-1.48A2.06,2.06,0,0,1,265,2.92h8.74a2.83,2.83,0,0,1,2.81,1.57l20.12,31.66V5a1.9,1.9,0,0,1,.62-1.48,2.06,2.06,0,0,1,1.44-.58h9.9A2,2,0,0,1,310.7,5V58.5a2.19,2.19,0,0,1-.58,1.53,2,2,0,0,1-1.48.61h-8.83a2.94,2.94,0,0,1-2.72-1.56L277,28.57v30a2.06,2.06,0,0,1-.58,1.45,1.93,1.93,0,0,1-1.48.61H265A2,2,0,0,1,263.57,60Z" transform="translate(0 0)"/></g></g></svg>