<svg xmlns="http://www.w3.org/2000/svg" xmlns:xlink="http://www.w3.org/1999/xlink" width="818.573" height="581.665" viewBox="0 0 818.573 581.665"><defs><style>.a,.e{fill:none;}.b{clip-path:url(#a);}.c{fill:#52f2e7;}.aa,.c,.d,.w{opacity:0.1;}.d,.v{fill:#6393f4;}.e{stroke:#fff;stroke-miterlimit:10;opacity:0.03;}.f{fill:#fff;}.g{fill:#3f3d56;}.h{fill:url(#b);}.i{fill:#7cfcff;}.j{fill:url(#c);}.k{fill:url(#e);}.l{fill:url(#f);}.m{fill:url(#g);}.n{fill:#ffffa5;}.o{fill:#ff69b4;}.p{fill:url(#x);}.q{fill:#ee8e9e;}.r{fill:#65617d;}.s{opacity:0.05;}.t{fill:#e8eaf2;}.u{fill:#303d5c;}.x{fill:url(#y);}.y{fill:#444053;}.z{fill:#efb7b9;}.ab{fill:#6c63ff;opacity:0.2;}</style><clipPath id="a"><rect class="a" width="818.573" height="581.665"/></clipPath><linearGradient id="b" x1="0.5" y1="1" x2="0.5" gradientUnits="objectBoundingBox"><stop offset="0" stop-color="gray" stop-opacity="0.251"/><stop offset="0.54" stop-color="gray" stop-opacity="0.122"/><stop offset="1" stop-color="gray" stop-opacity="0.102"/></linearGradient><linearGradient id="c" y1="1" y2="0" xlink:href="#b"/><linearGradient id="e" y1="1" y2="0" xlink:href="#b"/><linearGradient id="f" y1="1" y2="0" xlink:href="#b"/><linearGradient id="g" y1="1" y2="0" xlink:href="#b"/><linearGradient id="x" x1="-1.293" y1="1" x2="-1.293" y2="0" xlink:href="#b"/><linearGradient id="y" x1="0.419" y1="1" x2="0.419" y2="0" xlink:href="#b"/></defs><g class="b"><path class="c" d="M829.663,405.115a222.494,222.494,0,0,1-4.914,46.766q-1.654,7.721-3.843,15.137-2.71,9.243-6.2,17.924-1.772,4.42-3.746,8.687a132.533,132.533,0,0,1-8.458,46.961c-9.973,26.41-28.133,47.954-50.859,60.541a95.213,95.213,0,0,1-46.321,12.065H166.483c-28.8,0-55.495-10.237-77.38-27.681A142.661,142.661,0,0,1,71.332,568.59a151.16,151.16,0,0,1-19.536-28,166.606,166.606,0,0,1-19.87-79.667c-13.17-26.667-20.836-58.636-20.836-93.038,0-43.36,12.2-82.905,32.254-112.852a154.329,154.329,0,0,1,13.7-17.6A134.009,134.009,0,0,1,72.708,222.61a119.2,119.2,0,0,1,13.9-9.633c2.009-1.181,4.024-2.293,6.074-3.329q2.7-1.39,5.463-2.592,3.315-1.459,6.714-2.676t6.707-2.134a94.857,94.857,0,0,1,9.9-2.2q4.17-.719,8.34-1.063,3.315-.271,6.686-.313h1.216c2.474,0,4.934.118,7.374.306.257-.6.535-1.2.792-1.793.973-2.141,1.981-4.267,3-6.366a.24.24,0,0,0,0-.056c.174-.361.348-.7.528-1.077.82-1.71,1.675-3.405,2.551-5.087.4-.778.8-1.55,1.209-2.321.09-.181.181-.354.285-.535.417-.8.841-1.592,1.272-2.384q3.218-5.928,6.693-11.676c.2-.327.389-.653.591-.973.361-.591.7-1.181,1.1-1.765.959-1.557,1.946-3.107,2.94-4.643.695-1.084,1.39-2.168,2.141-3.239q2.71-4.066,5.56-8.027t5.921-7.923c.278-.361.556-.695.848-1.077l2.968-3.732h0l.41-.507h0l1.077-1.314c1.592-1.939,3.225-3.857,4.865-5.755a279.933,279.933,0,0,1,26.618-26.792c.368-.341.744-.7,1.112-.987,1.765-1.536,3.558-3.051,5.351-4.538a280.465,280.465,0,0,1,30.865-22.24c.737-.473,1.487-.931,2.245-1.39a280.685,280.685,0,0,1,29.53-15.707q8.34-3.836,16.853-7.1c3.767-1.432,7.548-2.78,11.377-4.059q8.882-2.933,17.986-5.317a281.431,281.431,0,0,1,54.376-8.562q8.34-.5,16.867-.5a282.458,282.458,0,0,1,81.307,11.877,2.836,2.836,0,0,0,2.523,1.515h2.342c1.015.32,2.022.653,3.037.987q8.5,2.822,16.756,6.178l1.39.57a281.853,281.853,0,0,1,72.668,43.687q2.439,2.009,4.809,4.08,2.877-2.134,5.852-4.08A107.031,107.031,0,0,1,617.934,84.4a96.374,96.374,0,0,1,54.376-2.46c23.108,5.664,44.028,19.717,60.923,39.7a163.011,163.011,0,0,1,18.271,26.8c.382.695.764,1.39,1.133,2.085a188.725,188.725,0,0,1,11.634,26.792c.118.334.236.695.341,1A207.476,207.476,0,0,1,771.77,205.1c.083.459.181.924.264,1.39a220.937,220.937,0,0,1,3.419,26.792,5.8,5.8,0,0,0,.056.98q.438,6.992.445,14.136,0,6.394-.354,12.663c0,.466-.056.938-.09,1.39-.062,1.216-.153,2.432-.243,3.642a142.764,142.764,0,0,1,14.859,16.179q3.037,3.843,5.88,7.958a173.668,173.668,0,0,1,15.151,26.792C822.908,342.7,829.663,372.846,829.663,405.115Z" transform="translate(-11.09 -31.53)"/><path class="d" d="M793.922,812.173c0,10.321-31.914,19.738-84.358,26.854H217.511c-52.437-7.117-84.351-16.534-84.351-26.854,0-7.86,18.515-15.2,50.526-21.4h0l.9-.174c9.035-1.731,19.133-3.371,30.169-4.907l.841-.118h0q13.135-1.814,27.946-3.426l.931-.1q5.713-.626,11.662-1.209h0l1.529-.146c28.877-2.78,61.7-5.032,97.3-6.54h.042q7.478-.313,15.116-.584,8.493-.313,17.194-.556c4.427-.132,8.91-.243,13.406-.348h.1c20.287-.48,41.248-.73,62.681-.73,53,0,103.095,1.522,147.484,4.225h.125c6.825.417,13.525.855,20.057,1.327l5.56.41q11.057.834,21.545,1.765h0C740.519,786.987,793.922,798.822,793.922,812.173Z" transform="translate(-48.323 -257.362)"/><path class="e" d="M309.815,135.6v21.079a2.849,2.849,0,0,1-2.849,2.856H268.38A279.917,279.917,0,0,1,295,132.74h11.975A2.849,2.849,0,0,1,309.815,135.6Z" transform="translate(-89.566 -62.4)"/><path class="f" d="M751.957,133.157V449.809a8.34,8.34,0,0,1-8.34,8.34H178.25a8.34,8.34,0,0,1-8.34-8.34V228.517q4.17-.719,8.34-1.063,3.315-.271,6.686-.313h1.216c2.474,0,4.934.118,7.374.306.257-.6.535-1.2.792-1.793.973-2.141,1.981-4.267,3-6.366a.24.24,0,0,0,0-.056c.174-.361.347-.7.528-1.077.82-1.71,1.675-3.405,2.551-5.087.4-.778.8-1.55,1.209-2.321.09-.181.181-.354.285-.535.417-.8.841-1.592,1.272-2.384q3.218-5.928,6.693-11.676c.2-.327.389-.653.591-.973.361-.591.7-1.181,1.1-1.765.959-1.557,1.946-3.107,2.94-4.643.7-1.084,1.39-2.168,2.141-3.239q2.71-4.066,5.56-8.027t5.921-7.923c.278-.361.556-.695.848-1.077l2.968-3.732h0l.41-.507h0l1.077-1.314c1.592-1.939,3.225-3.857,4.865-5.755a279.929,279.929,0,0,1,26.618-26.792c.368-.341.744-.695,1.112-.987,1.765-1.536,3.558-3.051,5.351-4.538H631.494q2.44,2.009,4.809,4.08,2.877-2.134,5.852-4.08H743.624A8.34,8.34,0,0,1,751.957,133.157Z" transform="translate(-59.532 -60.003)"/><path class="g" d="M736.91,212.09v7.881H229.88c.959-1.557,1.946-3.107,2.947-4.643.7-1.084,1.39-2.168,2.134-3.239Z" transform="translate(-77.823 -86.603)"/><rect class="g" width="300.131" height="7.881" transform="translate(550.335 86.985) rotate(90)"/><rect class="g" width="300.131" height="7.881" transform="translate(405.339 86.985) rotate(90)"/><rect class="g" width="300.131" height="7.881" transform="translate(260.343 86.985) rotate(90)"/><path class="h" d="M241.423,247.6v31.038H209.37V256.621c.174-.361.347-.695.528-1.077.827-1.71,1.675-3.405,2.558-5.087.4-.778.792-1.55,1.2-2.321.09-.181.188-.354.285-.535Z" transform="translate(-71.567 -97.433)"/><path class="i" d="M241.118,248.361v29.968H210.17v-22.58c.827-1.71,1.675-3.405,2.558-5.087.4-.778.792-1.55,1.2-2.321Z" transform="translate(-71.811 -97.659)"/><rect class="j" width="32.06" height="31.038" transform="translate(267.627 140.708)"/><rect class="i" width="30.955" height="29.968" transform="translate(268.183 141.243)"/><rect class="j" width="32.06" height="31.038" transform="translate(412.428 200.97)"/><rect class="i" width="30.955" height="29.968" transform="translate(412.984 201.505)"/><rect class="k" width="32.06" height="31.038" transform="translate(560.183 221.528)"/><rect class="i" width="30.955" height="29.968" transform="translate(560.732 222.063)"/><rect class="l" width="32.06" height="31.038" transform="translate(599.769 241.62)"/><rect class="i" width="30.955" height="29.968" transform="translate(600.325 242.155)"/><rect class="m" width="32.06" height="31.038" transform="translate(649.419 187.932)"/><rect class="i" width="30.955" height="29.968" transform="translate(649.968 188.467)"/><rect class="k" width="32.06" height="31.038" transform="translate(639.37 231.48)"/><rect class="i" width="30.955" height="29.968" transform="translate(639.919 232.016)"/><rect class="j" width="32.06" height="31.038" transform="translate(311.362 140.708)"/><rect class="i" width="30.955" height="29.968" transform="translate(311.918 141.243)"/><rect class="m" width="32.06" height="31.038" transform="translate(161.564 215.954)"/><rect class="n" width="30.955" height="29.968" transform="translate(162.113 216.489)"/><rect class="l" width="32.06" height="31.038" transform="translate(290.763 185.451)"/><rect class="n" width="30.955" height="29.968" transform="translate(291.319 185.986)"/><rect class="k" width="32.06" height="31.038" transform="translate(457.866 166.902)"/><rect class="n" width="30.955" height="29.968" transform="translate(458.415 167.437)"/><rect class="l" width="32.06" height="31.038" transform="translate(627.02 145.135)"/><rect class="n" width="30.955" height="29.968" transform="translate(627.576 145.67)"/><rect class="m" width="32.06" height="31.038" transform="translate(500.163 140.708)"/><rect class="n" width="30.955" height="29.968" transform="translate(500.712 141.243)"/><rect class="j" width="32.06" height="31.038" transform="translate(498.342 200.97)"/><rect class="n" width="30.955" height="29.968" transform="translate(498.898 201.505)"/><rect class="l" width="32.06" height="31.038" transform="translate(354.41 155.699)"/><rect class="n" width="30.955" height="29.968" transform="translate(354.966 156.227)"/><rect class="l" width="32.06" height="31.038" transform="translate(184.068 165.686)"/><rect class="o" width="30.955" height="29.968" transform="translate(184.624 166.221)"/><rect class="m" width="32.06" height="31.038" transform="translate(200.101 200.97)"/><rect class="o" width="30.955" height="29.968" transform="translate(200.65 201.505)"/><rect class="k" width="32.06" height="31.038" transform="translate(333.081 206.009)"/><rect class="o" width="30.955" height="29.968" transform="translate(333.63 206.544)"/><rect class="l" width="32.06" height="31.038" transform="translate(567.709 145.135)"/><rect class="o" width="30.955" height="29.968" transform="translate(568.265 145.67)"/><rect class="j" width="32.06" height="31.038" transform="translate(596.079 187.932)"/><rect class="o" width="30.955" height="29.968" transform="translate(596.635 188.467)"/><rect class="j" width="32.06" height="31.038" transform="translate(415.229 140.708)"/><rect class="o" width="30.955" height="29.968" transform="translate(415.785 141.243)"/><rect class="k" width="32.06" height="31.038" transform="translate(454.238 231.48)"/><rect class="o" width="30.955" height="29.968" transform="translate(454.787 232.016)"/><path class="p" d="M856.8,334.605a6.136,6.136,0,0,0-2.446-4.114,24.365,24.365,0,0,0-4.253-2.46,3.474,3.474,0,0,1-1.237-.883,11.07,11.07,0,0,1-.695-1.334c-.834-1.453-2.641-1.911-4.059-2.78-2.53-1.536-3.7-4.26-4.747-7.124-.07-.181-.125-.361-.195-.535-1.022-2.836-1.995-5.741-4.114-7.728a8.826,8.826,0,0,0-11.036-.591,2.6,2.6,0,0,1-1.557.771,2.94,2.94,0,0,1-1.494-.806,6.1,6.1,0,0,0-3.725-1.029,35.491,35.491,0,0,1-1.049-7.749v-.07h0a.1.1,0,0,1,0-.049h0v-1.932h.438a4.968,4.968,0,0,0,1.536-.174,4.172,4.172,0,0,0,.6-.222h0c1.87-.883,3-2.968,3.843-4.941.556-1.307,1.07-2.648,1.508-4.017.056-.174.1-.348.167-.528h0c.076-.278.167-.563.236-.848a1.3,1.3,0,0,1,.07-.271c.021-.09.049-.174.069-.264l.063-.292.354.25h0l.063.035.764.535c3.586,2.453,7.353,4.768,8.91,4.823h0a.806.806,0,0,0,.459-.09c1.008-.556-.924-2.627-3.35-4.733-.2-.181-.417-.354-.632-.535-1.8-1.522-3.739-3-4.865-3.843l-1.043-.758a10.273,10.273,0,0,0,2.558-5.56,43.142,43.142,0,0,0,.653-5.831v-.1a23.531,23.531,0,0,0-.563-6.255c-.945-3.975-3.336-7.77-6.95-9.633-1.042-.542-2.231-.966-3.26-1.55-.195-.111-.368-.229-.549-.348h0a4.826,4.826,0,0,1-.9-.771,3.156,3.156,0,0,1-.459-.625,1.86,1.86,0,0,1-.181-.327,4.208,4.208,0,0,0-.514-.994c-.7-.771-1.863-.542-2.87-.417h-.869c-3.607.083-7.089-1.932-10.738-1.932-3.989,0-7.388,2.314-10.9,3.9-.7.327-1.39.619-2.008.917-.528.25-1.022.5-1.5.771h0q-.279.157-.542.341h0a7.715,7.715,0,0,0-2.975,3.475,7.159,7.159,0,0,0-1.466,2.829,6.981,6.981,0,0,0-.188,1.453,24.1,24.1,0,0,0-7.207,17.166v1.049a24.116,24.116,0,0,0,17.159,22.073h0c.271.083.549.167.834.236.069.236.167.473.236.695.146.452.285.9.389,1.348h0a6.8,6.8,0,0,1,.167.695,18.821,18.821,0,0,1,.5,4.719v.417h0v.049a18.316,18.316,0,0,0-5.212,2.085,10.056,10.056,0,0,0-4.385,5.4,4.327,4.327,0,0,0-.139.507,13.953,13.953,0,0,0-3.968-.695,4.231,4.231,0,0,0-3.419,1.022,3.084,3.084,0,0,0-.632,1.314c-.473.424-.556,1.168-.883,1.737-1.015,1.779-3.656,1.2-5.643,1.682a3.908,3.908,0,0,0-.591.195h0c-1.883.7-3.475,2.363-5.477,2.377a13.985,13.985,0,0,0-2.4-.132l-.146.035c-.827.208-1.487,1.348-.848,1.918a2.723,2.723,0,0,0-2.565,1.23c-.625.792-1.008,1.738-1.682,2.481a2.6,2.6,0,0,0-2.634-1.022,9.546,9.546,0,0,0-2.78,1.1,3.816,3.816,0,0,1-1.23.431,5.324,5.324,0,0,1-1.48-.132,11.954,11.954,0,0,0-7.012.98c-1.918.91-3.774-.764-5.893-.9a3.266,3.266,0,0,1-2.154-.7.929.929,0,0,1-.16-.174,3.131,3.131,0,0,1-.306-.535c-.139-.32-.229-.7-.348-.994a8.444,8.444,0,0,0-5.831-5.393l-.348-.083a6.153,6.153,0,0,0,.292-1.223h0a7.221,7.221,0,0,0-4.524-7.645,7.645,7.645,0,0,0-2.641-6.693,11.7,11.7,0,0,1-1.265-.994l-.07-.056a3.225,3.225,0,0,1-.48-.632h0a9.784,9.784,0,0,1-.737-1.619c-.619-1.654-1.251-3.308-1.87-4.962-.834-.167-1.48-.514-2.273-.646v-.507a16.483,16.483,0,0,0-.855-4.983,23,23,0,0,0-2.7-5.365h0c-.174-.278-.354-.549-.542-.82h0c-.236-.368-.493-.695-.744-1.084-1.793-2.5-3.788-4.962-6.443-6.47a25.115,25.115,0,0,0-2.745-1.265l-4.865-1.995a2.287,2.287,0,0,0-.869-.236c-1.168,0-1.48,1.605-1.015,2.71a2.74,2.74,0,0,0,.2.375c1.48,2.168,4.8,2.78,5.72,5.233a3.343,3.343,0,0,0-1.272.271,3.683,3.683,0,0,0-2.175,2.419,1.994,1.994,0,0,1-.459,1.084c-.438.341-1.1.146-1.578.41-.862.459-.493,1.744-.584,2.717a12.282,12.282,0,0,1-.883,2.446,4.308,4.308,0,0,0-.1,1.974l.042.208h0a2.393,2.393,0,0,0,.063.306,6.3,6.3,0,0,0,.855,1.918,15.591,15.591,0,0,0,3.169,3.211c.792.653,1.6,1.314,2.446,1.911.243.167.48.327.7.487a.817.817,0,0,0-.076.132.955.955,0,0,1-.118.3h0a1.529,1.529,0,0,0-.083.862,1.388,1.388,0,0,0,.271.57h0a5.182,5.182,0,0,0,.612.625,12.51,12.51,0,0,1,3.809,6.88,4.211,4.211,0,0,1-.056,1.557h0a12.8,12.8,0,0,0-.619,3.155,4.956,4.956,0,0,0,.1.778h0a16.5,16.5,0,0,0,1.1,3.593c1.293,3.28,2.662,6.672,5.24,9.035a29.261,29.261,0,0,0,5.88,14.477c2.7,3.475,6.324,6.1,9.9,8.68a18.534,18.534,0,0,0,3.656,2.293,21.032,21.032,0,0,0,3.628.98,186.25,186.25,0,0,0,30.336,3.544l1.39.049h.07c0,.535.049,1.07.069,1.605q.354,8.013.327,16.04v1.439a8.057,8.057,0,0,1-.431,3.079,8.921,8.921,0,0,1-1.446,2.085c-.132.167-.278.341-.41.514-2.085,2.78-2.488,6.484-2.419,10.057v.063a15.272,15.272,0,0,0,.056,1.6,109.23,109.23,0,0,0,1.71,14.24c.82,4.462.473,9.271,1.112,13.789a22.249,22.249,0,0,0,1.112,4.531q1.258,3.385,2.516,6.762a5.934,5.934,0,0,1,.5,1.995,3.338,3.338,0,0,1-.049.646h0a11.378,11.378,0,0,1-1.661,3.357,11.621,11.621,0,0,0-1.466,6.144v.174h0a1,1,0,0,0,.167.5c.271.375.841.341,1.293.271a51.5,51.5,0,0,1,5.456-.507h.195c-.062.076-.132.153-.195.236h0c-.208.285-.417.591-.618.924h0l-.1.167a20.828,20.828,0,0,0-1.2,2.46,23.241,23.241,0,0,0-1.6,4.413,4.018,4.018,0,0,0-.16.695c-.111.459-.208.917-.278,1.39a44.148,44.148,0,0,0-.5,7.228v1c-.056,1.077-.111,2.168-.174,3.225a52.412,52.412,0,0,1-.827,8.534,7.02,7.02,0,0,0-.236,2.363v.035a19.351,19.351,0,0,0,.445,3.148c.215,1.1.5,2.231.785,3.35v.111a12.192,12.192,0,0,0,.083,1.237v.056a20.408,20.408,0,0,0,1.105,5.372v.91a.927.927,0,0,0,0,.139h0c0,.5.063,1.008.111,1.508.153,1.466.4,2.926.7,4.385v.243q2.085,11.578,4.239,23.15c.083.466.174.924.264,1.39q2.335,12.385,4.865,24.735c.146.695.278,1.39.431,2.085.076.327.146.66.229.987s.195.8.292,1.2a34.367,34.367,0,0,0,6.331,12.51,57.232,57.232,0,0,1,6.6,10.578,1.234,1.234,0,0,1-.076.306h0c-.153.737-.32,1.466-.493,2.2l-.042.167c-1.849,7.846-4.316,15.582-5.171,23.63-.063.577-.111,1.154-.167,1.737a25.447,25.447,0,0,1-1.529,7.7c-.3.695-.66,1.355-.973,2.043a7.431,7.431,0,0,0-.744,2.523,1.945,1.945,0,0,0,0,.348.385.385,0,0,0,0,.09.274.274,0,0,0,0,.035h0a5.018,5.018,0,0,0,.7,2.46l-.09.07c-.188.146-.368.285-.542.431l-.347.292c-2.4,1.9-5.609,2.293-8.576,3.065s-6.137,2.335-7.054,5.268c-.055.188-.1.375-.139.57a1.939,1.939,0,0,0-.042.278h0a5.054,5.054,0,0,0-.063.855v.063a.867.867,0,0,0,0,.132,7.916,7.916,0,0,0,3.475,5.8c2.46,1.689,5.56,2.217,8.479,2.6s6,.695,8.687,1.995c2.307,1.147,4.26,3.03,6.707,3.857.146.049.292.076.445.118l-.132.076c-.334.2-.7.4-1.008.577l-.542.3a25.409,25.409,0,0,1-8.1,2.578c-2.863.4-6.255.584-7.735,3.072h0a.5.5,0,0,0-.056.125h0a1.657,1.657,0,0,0-.16.382v.056a.82.82,0,0,0-.062.167.994.994,0,0,0-.063.188,1.282,1.282,0,0,1,0,.16,2.971,2.971,0,0,0-.118.549,4.6,4.6,0,0,0,.049,1.445,6.478,6.478,0,0,0,1.87,3.385c1.738,1.633,4.17,2.342,6.45,2.849a116.2,116.2,0,0,0,16.054,1.995l5.233.4c1.87.146,3.746.285,5.615.417,1.327.083,2.655.167,3.982.229s2.53.1,3.795.132h1.974q4.865,0,9.667-.41c3.107-.278,6.178-.7,9.236-1.237a2.085,2.085,0,0,0,1.5-.695,1.393,1.393,0,0,0,.09-.174.6.6,0,0,0,.042-.118.251.251,0,0,0,0-.063.883.883,0,0,0,0-.132,1.762,1.762,0,0,0,0-.2v-.493c0-.66,0-1.313-.049-1.974V659.4l-.042-.813c-.049-.792-.1-1.592-.167-2.384l-.083-.945v-.313a5.607,5.607,0,0,0-.069-.7,1.205,1.205,0,0,0-.049-.41l-.125-1.119c-.1-.82-.209-1.633-.327-2.446q-.382-2.669-.938-5.3v-.09c-.132-.6-.264-1.188-.389-1.779-.438-1.877-3,.7-4.427,2.3-.188-.9-.382-1.786-.619-2.655h0v-.1c.382-.174.758-.354,1.126-.535a4,4,0,0,0,2.085-1.724,3,3,0,0,0,.222-.931,4.071,4.071,0,0,0,0-.584v-.459c-.209-4.128-.459-8.4-2.419-12.023a25.571,25.571,0,0,0-4.775-5.824c0-.445-.049-.89-.07-1.334-.208-4.42-.507-8.84-.924-13.253a193.234,193.234,0,0,0-3.69-23.956c-.494-2.134-.994-4.267-1.612-6.373h0a41.7,41.7,0,0,0-5.393-12.044c-.466-.7-.966-1.39-1.473-2.085q-.222-3.906-.7-7.826c-.417-3.586-.973-7.158-1.564-10.7-.049-.334-.111-.7-.146-1.022v-.056a3.365,3.365,0,0,1,.167-1.39,8.232,8.232,0,0,1,1.39-1.87,7.9,7.9,0,0,0,1.466-4.865q.005-.1,0-.2c0-1.842-.271-3.788-.4-5.615,0-.514-.049-1.022-.049-1.536h0v-.056h0v-.229c0-.535,0-1.063.035-1.592a69.926,69.926,0,0,1,2.085-12.176c.994-4.17,2-8.277,2.988-12.419h0q.594-2.419,1.161-4.865c.146-.577.285-1.147.417-1.724a30.5,30.5,0,0,1,1.612-5.261,50.406,50.406,0,0,1,4.114-6.637,37.217,37.217,0,0,0,5.8-19.759h0a.119.119,0,0,0,0-.049v-.083a.944.944,0,0,0,0-.139v-1.39h0a6.709,6.709,0,0,0-.063-1.1c.862.306,1.731.619,2.585.952a14.66,14.66,0,0,0,.111-1.571v-.056c.07-3.218-.632-6.637-.695-9.876a.447.447,0,0,1,0-.1v-.09a17.1,17.1,0,0,1,.215-3.176,12.785,12.785,0,0,1,.354-1.439c.243-.195.487-.389.695-.591h0a19.967,19.967,0,0,0,5.734-7.1c1.251-2.78,1.612-5.956,2.919-8.736a28.052,28.052,0,0,0,2.217-4.691,7.527,7.527,0,0,0,.229-1.571v-.083a51.719,51.719,0,0,0-.348-5.24h0v-.841c.069-4.823,3.072-9.341,3.405-14.046v-.063a11.284,11.284,0,0,0-.111-2.363c-.368-2.342-1.612-4.531-1.842-6.866h0a5.557,5.557,0,0,1-.042-.9,13.652,13.652,0,0,1,1.091-4.219c2.426-6.415,4.823-13.163,5-19.925a.185.185,0,0,0,0-.062v-.146a25.079,25.079,0,0,0-.424-5.525c-.32-1.772-.841-3.524-.98-5.3a11.38,11.38,0,0,1,0-1.39c.111-1.953.827-3.864,1.015-5.782h0a7.9,7.9,0,0,0,0-1.856,5.854,5.854,0,0,0-.626-1.835h0a5.811,5.811,0,0,0-.528-.834,31.661,31.661,0,0,0,2.828-5.421,10.148,10.148,0,0,0,.7-2.224,5.153,5.153,0,0,0,.028-1.4ZM809.246,641.248h0l-.069-.042a8.681,8.681,0,0,0-2.314-.66c-.195,0-.4-.042-.591-.056h-.042a11.511,11.511,0,0,0,.229-1.967v-1.953c0-.389-.035-.785-.062-1.175s-.077-.848-.1-1.272h0a1.785,1.785,0,0,1,0-.195c.09.264.188.528.3.792q1.286,3.35,2.78,6.6ZM825.335,280.3Z" transform="translate(-218.018 -96.939)"/><path class="q" d="M836.118,327.849c-.09,3.524-1.286,6.95-1.473,10.467,10.425.514,20.634-4.524,30.913-2.982-2.87-1.856-4.406-5.212-5.31-8.514a35.174,35.174,0,0,1-1.015-13.08,5.282,5.282,0,0,1,.125-.695c.382-1.724,1.39-4.17,1.105-5.525-.348-1.793-2.043-1.439-3.565-1.334a134.924,134.924,0,0,0-13.858,1.786c-1.2.208-12.836,3.114-13.01,2.815a55.2,55.2,0,0,1,5.039,10.376A20.215,20.215,0,0,1,836.118,327.849Z" transform="translate(-260.875 -115.273)"/><path class="q" d="M690.549,312.112a15.054,15.054,0,0,0,3.176,3.2c.785.646,1.591,1.307,2.439,1.9a10.425,10.425,0,0,0,5.192,2.085c2.474.167,7.728-1.286,9.264-3.405a6.13,6.13,0,0,0,.883-3.544,16.429,16.429,0,0,0-.848-4.962,27.593,27.593,0,0,0-4.01-7.242,21.311,21.311,0,0,0-6.436-6.443,24.951,24.951,0,0,0-2.738-1.258l-4.865-1.988a2.44,2.44,0,0,0-.883-.229c-1.3,0-1.536,1.995-.8,3.065,1.473,2.161,4.789,2.78,5.72,5.212a3.711,3.711,0,0,0-3.475,2.669,1.9,1.9,0,0,1-.466,1.084c-.424.341-1.091.146-1.578.4-.855.459-.48,1.737-.57,2.71a12.342,12.342,0,0,1-.89,2.432A5.171,5.171,0,0,0,690.549,312.112Z" transform="translate(-218.018 -110.433)"/><path class="r" d="M887.565,823.315c-.8-.8-2.085-.66-3.225-.486a119.846,119.846,0,0,1-18.118,1.466c-.758-3.711,1.446-7.318,2.154-11.037a9.726,9.726,0,0,1,.7-2.78c.848-1.64,2.78-2.391,4.587-2.78,3.266-.695,8.34-1.9,10.2,1.39C886.07,813.057,886.772,818.908,887.565,823.315Z" transform="translate(-271.866 -268.025)"/><path class="g" d="M799.949,802.577c2.46,1.682,5.518,2.2,8.479,2.585s6,.66,8.687,1.981c2.314,1.14,4.26,3.016,6.714,3.836a13.919,13.919,0,0,0,6.95.111c2.78-.514,5.685-1.522,7.172-3.9,1.328-2.085,1.181-4.789,1-7.277-.215-2.78-.417-5.629-.625-8.444a4.12,4.12,0,0,0-.521-2.043c-1.995-2.9-6.832,1.216-9.417,1.209-4.107,0-8.514-2.224-11.467-4.948a3.474,3.474,0,0,0-.89-.695c-1.175-.528-2.342.445-3.385,1.293-.111.1-.229.188-.348.278-2.4,1.9-5.609,2.286-8.569,3.058s-6.137,2.321-7.054,5.24a4.169,4.169,0,0,0-.139.563C796.008,798.157,797.648,801,799.949,802.577Z" transform="translate(-250.629 -261.299)"/><path class="s" d="M799.949,802.577c2.46,1.682,5.518,2.2,8.479,2.585s6,.66,8.687,1.981c2.314,1.14,4.26,3.016,6.714,3.836a13.919,13.919,0,0,0,6.95.111c2.78-.514,5.685-1.522,7.172-3.9,1.328-2.085,1.181-4.789,1-7.277-.215-2.78-.417-5.629-.625-8.444a4.12,4.12,0,0,0-.521-2.043c-1.995-2.9-6.832,1.216-9.417,1.209-4.107,0-8.514-2.224-11.467-4.948a3.474,3.474,0,0,0-.89-.695c-1.175-.528-2.342.445-3.385,1.293-.111.1-.229.188-.348.278-2.4,1.9-5.609,2.286-8.569,3.058s-6.137,2.321-7.054,5.24a4.169,4.169,0,0,0-.139.563C796.008,798.157,797.648,801,799.949,802.577Z" transform="translate(-250.629 -261.299)"/><path class="t" d="M799.835,803.513c2.46,1.682,5.518,2.2,8.479,2.585s6,.66,8.687,1.981c2.314,1.147,4.26,3.016,6.714,3.836a13.919,13.919,0,0,0,6.95.111,11.51,11.51,0,0,0,7.172-4.865c1.327-2.085,1.181-4.788,1-7.277-.215-2.78-.417-5.629-.625-8.444a4.121,4.121,0,0,0-.521-2.043c-1.995-2.9-6.832,1.216-9.417,1.209-4.107,0-8.514-2.224-11.467-4.948a3.477,3.477,0,0,0-.89-.695c-1.175-.528-2.342.445-3.385,1.293a24.324,24.324,0,0,0,2.884,5.949,12.446,12.446,0,0,0,9.035,5.657c1.835.132,3.718-.229,5.49.243s3.426,2.286,2.78,4.01-2.78,2.085-4.573,2.147a20.472,20.472,0,0,1-7.457-.521c-1.453-.487-2.78-1.286-4.17-1.876-6.012-2.5-13.608-1.1-18.577-5.31a10.548,10.548,0,0,0-1.515-1.161C795.13,798.148,797.534,801.936,799.835,803.513Z" transform="translate(-250.515 -261.289)"/><path class="s" d="M799.835,803.513c2.46,1.682,5.518,2.2,8.479,2.585s6,.66,8.687,1.981c2.314,1.147,4.26,3.016,6.714,3.836a13.919,13.919,0,0,0,6.95.111,11.51,11.51,0,0,0,7.172-4.865c1.327-2.085,1.181-4.788,1-7.277-.215-2.78-.417-5.629-.625-8.444a4.121,4.121,0,0,0-.521-2.043c-1.995-2.9-6.832,1.216-9.417,1.209-4.107,0-8.514-2.224-11.467-4.948a3.477,3.477,0,0,0-.89-.695c-1.175-.528-2.342.445-3.385,1.293a24.324,24.324,0,0,0,2.884,5.949,12.446,12.446,0,0,0,9.035,5.657c1.835.132,3.718-.229,5.49.243s3.426,2.286,2.78,4.01-2.78,2.085-4.573,2.147a20.472,20.472,0,0,1-7.457-.521c-1.453-.487-2.78-1.286-4.17-1.876-6.012-2.5-13.608-1.1-18.577-5.31a10.548,10.548,0,0,0-1.515-1.161C795.13,798.148,797.534,801.936,799.835,803.513Z" transform="translate(-250.515 -261.289)"/><path class="u" d="M865.256,542.147a36.96,36.96,0,0,1-5.073,27.285,52.828,52.828,0,0,0-4.114,6.6,30.464,30.464,0,0,0-1.612,5.24l-4.559,18.9c-1.237,5.1-2.474,10.3-2.085,15.533.257,3.649,1.175,7.749-1.07,10.633a7.817,7.817,0,0,0-1.39,1.863,4.76,4.76,0,0,0,0,2.46c2.307,13.719,4.024,28.057-.146,41.331-3.781,12.03-4,25.36-7.214,37.529a8.339,8.339,0,0,1-2,4.17,6.526,6.526,0,0,1-2.988,1.39c-4.74,1.133-9.73-.195-14.164-2.238-3.107-1.439-6.45-3.962-6.185-7.374.132-1.626,1.077-3.051,1.724-4.545,1.258-2.933,1.39-6.206,1.7-9.382.855-7.979,3.315-15.672,5.171-23.477s3.12-15.95,1.55-23.817a208.187,208.187,0,0,0-15.29-47.134,5.609,5.609,0,0,0-1.39-2.085c-.625-.514-1.453-.751-1.988-1.39a6.112,6.112,0,0,1-.9-2.467c-.695-2.488-2.745-4.323-4.121-6.512-3.475-5.518-2.377-12.593-2.245-19.112.125-6.345-.785-12.746.25-19s4.622-12.649,10.654-14.595c2.988-.966,6.22-.751,9.348-.438C833.614,533.161,849.7,536.2,865.256,542.147Z" transform="translate(-250.677 -183.949)"/><path class="s" d="M865.256,542.147a36.96,36.96,0,0,1-5.073,27.285,52.828,52.828,0,0,0-4.114,6.6,30.464,30.464,0,0,0-1.612,5.24l-4.559,18.9c-1.237,5.1-2.474,10.3-2.085,15.533.257,3.649,1.175,7.749-1.07,10.633a7.817,7.817,0,0,0-1.39,1.863,4.76,4.76,0,0,0,0,2.46c2.307,13.719,4.024,28.057-.146,41.331-3.781,12.03-4,25.36-7.214,37.529a8.339,8.339,0,0,1-2,4.17,6.526,6.526,0,0,1-2.988,1.39c-4.74,1.133-9.73-.195-14.164-2.238-3.107-1.439-6.45-3.962-6.185-7.374.132-1.626,1.077-3.051,1.724-4.545,1.258-2.933,1.39-6.206,1.7-9.382.855-7.979,3.315-15.672,5.171-23.477s3.12-15.95,1.55-23.817a208.187,208.187,0,0,0-15.29-47.134,5.609,5.609,0,0,0-1.39-2.085c-.625-.514-1.453-.751-1.988-1.39a6.112,6.112,0,0,1-.9-2.467c-.695-2.488-2.745-4.323-4.121-6.512-3.475-5.518-2.377-12.593-2.245-19.112.125-6.345-.785-12.746.25-19s4.622-12.649,10.654-14.595c2.988-.966,6.22-.751,9.348-.438C833.614,533.161,849.7,536.2,865.256,542.147Z" transform="translate(-250.677 -183.949)"/><path class="u" d="M797.24,583.27a40.109,40.109,0,0,0,.834,7.325q4.378,24.568,9.334,49.025c.292,1.39.577,2.829.959,4.219a34.27,34.27,0,0,0,6.324,12.44c13.761,17.152,14.949,42.068,22.42,62.758.5,1.39,1.008,2.78,1.543,4.17a102.368,102.368,0,0,0,4.608,10.279,2.92,2.92,0,0,0,.945,1.23,2.843,2.843,0,0,0,1.5.292,43.783,43.783,0,0,0,19.425-4.4,4.038,4.038,0,0,0,2.085-1.71,4.206,4.206,0,0,0,.215-1.974c-.208-4.1-.459-8.34-2.412-11.954a25.637,25.637,0,0,0-4.781-5.8,220.08,220.08,0,0,0-4.684-38.343c-1.453-6.429-3.253-12.927-6.95-18.362-2.78-4.01-6.7-7.965-6.213-12.809.215-2.085,1.105-4.768-.625-6.019-.758-.549-1.876-.619-2.384-1.39a2.631,2.631,0,0,1-.334-1.2,29.65,29.65,0,0,1,.612-9.931,53.444,53.444,0,0,0,1.48-6.47,8.157,8.157,0,0,0-1.626-6.255c-.09-4.42,0-9.035-.063-13.413a25.021,25.021,0,0,1,.619-7.492c.341-1.161.848-2.266,1.105-3.475.924-4.239-1.39-9.327,1.39-12.69,1.147-1.39,2.912-2.085,4.406-3.1a16.173,16.173,0,0,0,6.046-8.694,49.762,49.762,0,0,0,1.717-10.647,11.086,11.086,0,0,0,0-2.3,4.124,4.124,0,0,0-.306-1.147c-.855-1.918-3.148-2.662-5.192-3.155a167.773,167.773,0,0,0-39.614-4.629c-4.934-3.364-7.714-2.161-9.806,1.39a36.981,36.981,0,0,0-2.78,6.818c-.959,2.884-1.015,19.05-1.946,21.948C793.793,571.608,797.289,579.308,797.24,583.27Z" transform="translate(-250.13 -185.298)"/><path class="v" d="M912.252,390.247c.368,2.544-.855,5.046-.994,7.61-.118,2.238.6,4.427,1.008,6.637,1.592,8.618-1.466,17.34-4.587,25.527a13.137,13.137,0,0,0-1.084,4.17c-.083,2.676,1.453,5.122,1.877,7.763.883,5.56-3.2,10.765-3.294,16.388,0,2.585.778,5.219.132,7.721a27.039,27.039,0,0,1-2.217,4.67c-1.314,2.78-1.661,5.9-2.919,8.687-2.259,5.046-7.124,8.34-11.745,11.363-2.634-.876-5.483-1.918-6.95-4.288a10.555,10.555,0,0,1-1.2-3.76c-1-5.748-.966-11.613-.931-17.444a108.314,108.314,0,0,1,.82-14.956c.931-6.338,2.989-12.447,4.462-18.681,1.863-7.86,2.78-15.985,5.713-23.525,2.544-6.63,6.512-12.579,10.689-18.271,1.591-2.175,2.849-5.282,5.942-4.782a6.477,6.477,0,0,1,5.282,5.171Z" transform="translate(-275.913 -139.349)"/><path class="s" d="M912.252,390.247c.368,2.544-.855,5.046-.994,7.61-.118,2.238.6,4.427,1.008,6.637,1.592,8.618-1.466,17.34-4.587,25.527a13.137,13.137,0,0,0-1.084,4.17c-.083,2.676,1.453,5.122,1.877,7.763.883,5.56-3.2,10.765-3.294,16.388,0,2.585.778,5.219.132,7.721a27.039,27.039,0,0,1-2.217,4.67c-1.314,2.78-1.661,5.9-2.919,8.687-2.259,5.046-7.124,8.34-11.745,11.363-2.634-.876-5.483-1.918-6.95-4.288a10.555,10.555,0,0,1-1.2-3.76c-1-5.748-.966-11.613-.931-17.444a108.314,108.314,0,0,1,.82-14.956c.931-6.338,2.989-12.447,4.462-18.681,1.863-7.86,2.78-15.985,5.713-23.525,2.544-6.63,6.512-12.579,10.689-18.271,1.591-2.175,2.849-5.282,5.942-4.782a6.477,6.477,0,0,1,5.282,5.171Z" transform="translate(-274.913 -138.349)"/><path class="w" d="M830,310.747a55.19,55.19,0,0,1,5.039,10.376,23.916,23.916,0,0,0,5.72.7c7.485,0,12.788-4.26,17.187-9.64.382-1.731,2.78-3.336,2.488-4.7-.347-1.793-2.043-1.439-3.565-1.334a134.927,134.927,0,0,0-13.858,1.786C841.815,308.141,830.195,311.046,830,310.747Z" transform="translate(-260.866 -115.261)"/><circle class="q" cx="23.984" cy="23.984" r="23.984" transform="translate(555.929 157.937)"/><path class="w" d="M801.9,539.075c4.17-.243,8.34-.076,12.51.09a42.068,42.068,0,0,1,7.756.8c3.148.695,6.1,2.148,9.2,3.044,4.976,1.452,10.23,1.515,15.38,2.022a87.941,87.941,0,0,1,10.07,1.578,4.123,4.123,0,0,0-.306-1.147c-.855-1.918-3.148-2.662-5.192-3.155a167.777,167.777,0,0,0-39.614-4.629C806.772,534.314,803.992,535.516,801.9,539.075Z" transform="translate(-252.295 -185.304)"/><path class="v" d="M813.87,346.764c1.049,1.209,2.453,2.544,4,2.154a5.621,5.621,0,0,0,1.557-.834c2.78-1.786,6.158-2.2,9.41-2.69a138.992,138.992,0,0,0,19.383-4.358,19.723,19.723,0,0,1,5.734-1.168c4.066,0,7.645,2.724,10.216,5.894s4.351,6.873,6.853,10.077c1.779,2.286,3.9,4.3,5.56,6.672,4.17,5.984,5.1,13.8,4.017,21.03s-3.975,14.046-6.839,20.78a73.916,73.916,0,0,1-5.56,11.252c.966,5.5.459,11.78-2.154,16.68a16.287,16.287,0,0,0-2.175,4.969,12.337,12.337,0,0,0,.146,3.642l1.223,8.68c.369,2.648.744,5.289,1.223,7.916.883,4.809,2.085,10.029-.146,14.379-2.669,5.205.132,11.884-.57,17.694a89.006,89.006,0,0,0-23.372-5.56c-5.157-.507-10.425-.57-15.38-2.015-3.107-.9-6.046-2.335-9.2-3.058a42.628,42.628,0,0,0-7.763-.792c-5.748-.229-11.537-.459-17.222.389-.466.069-1.022.1-1.3-.271a1.244,1.244,0,0,1-.174-.695,11.432,11.432,0,0,1,1.473-6.1c.695-1.279,1.73-2.537,1.7-4a6.022,6.022,0,0,0-.5-1.988l-2.516-6.727c-2.134-5.671-1.119-12.267-2.224-18.223a107.021,107.021,0,0,1-1.654-14.1c-.208-4.045-.076-8.43,2.363-11.662a13.2,13.2,0,0,0,1.842-2.565,7.706,7.706,0,0,0,.438-3.065q.083-12.134-.695-24.262c2.134-3.822,4.351-7.735,6.477-11.558,2.474-4.448,4.99-8.986,5.991-13.976.695-3.308.639-6.707,1.112-10.043A4.342,4.342,0,0,1,806,346.91a4.286,4.286,0,0,1,3.412-1.015,14.97,14.97,0,0,1,4.462.869Z" transform="translate(-247.919 -125.577)"/><path class="w" d="M699.07,326.764a10.425,10.425,0,0,0,5.192,2.085c2.474.167,7.728-1.286,9.264-3.405a6.13,6.13,0,0,0,.883-3.544,4.285,4.285,0,0,0-1.029-.2,26.894,26.894,0,0,0-8.048.327,9.1,9.1,0,0,0-6.255,4.691Z" transform="translate(-220.931 -119.991)"/><path class="v" d="M779.07,378.933a16.985,16.985,0,0,1-5.053,4.761c-2.384,1.237-5.192,1.265-7.874,1.209a188.288,188.288,0,0,1-32.908-3.614,20.328,20.328,0,0,1-3.621-.973,19.284,19.284,0,0,1-3.663-2.28c-3.565-2.565-7.186-5.178-9.9-8.639a29.071,29.071,0,0,1-5.866-14.393c-2.585-2.377-3.954-5.762-5.247-9.035a13.956,13.956,0,0,1-1.2-4.385c-.069-1.55.959-3.176.7-4.705a12.441,12.441,0,0,0-3.8-6.846,2.481,2.481,0,0,1-.91-1.2,1.946,1.946,0,0,1,.222-1.174,9.046,9.046,0,0,1,6.255-4.691,26.911,26.911,0,0,1,8.048-.32,20.72,20.72,0,0,1,2.634.695l1.876,4.941a6.408,6.408,0,0,0,1.23,2.252,12.172,12.172,0,0,0,1.327,1.042,7.645,7.645,0,0,1,2.641,6.658,7.151,7.151,0,0,1,4.232,8.826,8.437,8.437,0,0,1,6.185,5.449,4.086,4.086,0,0,0,.806,1.7,3.308,3.308,0,0,0,2.161.695c2.085.132,3.968,1.8,5.894.9a11.947,11.947,0,0,1,6.971-.98,5.165,5.165,0,0,0,1.494.132,4.059,4.059,0,0,0,1.223-.424,10.044,10.044,0,0,1,2.78-1.1,2.6,2.6,0,0,1,2.634,1.022c.695-.737,1.077-1.682,1.689-2.467a2.7,2.7,0,0,1,2.558-1.223c-.639-.57,0-1.7.841-1.911a10.544,10.544,0,0,1,2.558.1c2.217,0,3.92-2.029,6.074-2.558,1.981-.48,4.622.1,5.636-1.675.361-.626.431-1.473,1.042-1.856a1.994,1.994,0,0,1,1.334-.16,13.155,13.155,0,0,1,4.052,1.23c2.085,8.124.987,16.562-.6,24.8A21.981,21.981,0,0,1,779.07,378.933Z" transform="translate(-221.126 -120.279)"/><path class="w" d="M812.936,444.388l10.328,20.85c-1.119-1.925-3.475-2.676-5.331-3.906a14.122,14.122,0,0,1-5.094-6.846,42.025,42.025,0,0,1-1.988-8.465c-.208-1.321-.646-3.176,0-4.372C812.053,441.893,812.443,443.408,812.936,444.388Z" transform="translate(-254.922 -156.621)"/><path class="w" d="M854.867,469.228c2.328,2.307,5.185,4,7.749,6.046,5.991,4.768,10.258,11.314,14.428,17.736a28.074,28.074,0,0,1,2.947,5.407c-.487.424-1.216,0-1.7-.438l-8.117-7.131a18.308,18.308,0,0,1-2.7-2.738c-1.39-1.89-2.029-4.26-3.308-6.255a24.639,24.639,0,0,0-4.928-5.025c-1.786-1.55-10.425-8.833-8.34-11.641C852.407,465.941,853.651,468.026,854.867,469.228Z" transform="translate(-267.142 -163.801)"/><path class="v" d="M829.217,339.015a24.269,24.269,0,0,1,8.583-2.829,18.072,18.072,0,0,1,5.463-.389c1.689.208,3.308.862,5.011.952,2.384.139,4.67-.834,6.95-1.459s4.969-.876,6.908.521a3,3,0,0,0,1.5.8,2.614,2.614,0,0,0,1.55-.764,8.854,8.854,0,0,1,11.03.584c4.4,4.121,3.906,12.176,9.035,15.29,1.425.862,3.239,1.32,4.066,2.78a9.66,9.66,0,0,0,.7,1.327,3.572,3.572,0,0,0,1.237.883,24.262,24.262,0,0,1,4.253,2.439,6.087,6.087,0,0,1,2.446,4.1,7.643,7.643,0,0,1-.758,3.475,32.331,32.331,0,0,1-31.427,20.1,4.99,4.99,0,0,1-3.294-1.029,6.2,6.2,0,0,1-1.154-1.9c-2.418-5.08-6.95-8.833-9.862-13.664-1.724-2.877-2.829-6.1-4.622-8.931-2.669-4.309-6.8-7.513-10.835-10.564-2.28-1.737-4.816-3.558-7.687-3.44-2.551.111-4.413.25-3.475-2.884a10.014,10.014,0,0,1,4.385-5.4Z" transform="translate(-259.214 -123.846)"/><path class="s" d="M829.217,339.015a24.269,24.269,0,0,1,8.583-2.829,18.072,18.072,0,0,1,5.463-.389c1.689.208,3.308.862,5.011.952,2.384.139,4.67-.834,6.95-1.459s4.969-.876,6.908.521a3,3,0,0,0,1.5.8,2.614,2.614,0,0,0,1.55-.764,8.854,8.854,0,0,1,11.03.584c4.4,4.121,3.906,12.176,9.035,15.29,1.425.862,3.239,1.32,4.066,2.78a9.66,9.66,0,0,0,.7,1.327,3.572,3.572,0,0,0,1.237.883,24.262,24.262,0,0,1,4.253,2.439,6.087,6.087,0,0,1,2.446,4.1,7.643,7.643,0,0,1-.758,3.475,32.331,32.331,0,0,1-31.427,20.1,4.99,4.99,0,0,1-3.294-1.029,6.2,6.2,0,0,1-1.154-1.9c-2.418-5.08-6.95-8.833-9.862-13.664-1.724-2.877-2.829-6.1-4.622-8.931-2.669-4.309-6.8-7.513-10.835-10.564-2.28-1.737-4.816-3.558-7.687-3.44-2.551.111-4.413.25-3.475-2.884a10.014,10.014,0,0,1,4.385-5.4Z" transform="translate(-259.214 -123.846)"/><path class="g" d="M812.432,832.937a13.444,13.444,0,0,0,6.443,2.836,117.272,117.272,0,0,0,16.047,1.981l5.24.4c5.115.382,10.237.778,15.373.8a105.757,105.757,0,0,0,18.9-1.633,1.6,1.6,0,0,0,1.731-1.918,91.343,91.343,0,0,0-2.321-18.98c-.6-2.558-5.185,3.176-5.386,3.419a5.307,5.307,0,0,1-4.17,2.21c-5.275.292-11.189-2.919-15.38-5.768a19.212,19.212,0,0,0-2.849-1.765,8.208,8.208,0,0,0-2.3-.7,13.935,13.935,0,0,0-7.853,1.592c-3.148,1.564-5.914,3.808-9.035,5.414a25.208,25.208,0,0,1-8.1,2.564c-2.856.4-6.255.584-7.735,3.058C809.826,828.523,810.7,831.3,812.432,832.937Z" transform="translate(-254.911 -270.12)"/><path class="t" d="M812.273,833.92a13.443,13.443,0,0,0,6.443,2.836,117.265,117.265,0,0,0,16.047,1.981l5.24.4c5.115.382,10.237.778,15.373.8a105.758,105.758,0,0,0,18.9-1.633,2.085,2.085,0,0,0,1.5-.695,8.606,8.606,0,0,0,1.168-2.141c-.1-6.387-1.835-12.76-3.266-18.98-.6-2.558-5.185,3.176-5.386,3.419a5.307,5.307,0,0,1-4.17,2.21c-5.275.292-11.189-2.919-15.38-5.768a19.206,19.206,0,0,0-2.849-1.765,8.206,8.206,0,0,0-2.3-.695c.7,3.795,6.123,8.381,8.931,9.779,5.685,2.822,12.44,1.39,18.765,1.744a2.578,2.578,0,0,1,1.327.327c.765.5.806,1.578.785,2.488-.056,1.515-.25,3.287-1.557,4.059a4.433,4.433,0,0,1-2.085.438,297.127,297.127,0,0,1-46.842-1.64,25.891,25.891,0,0,1-7.645-1.7,19.567,19.567,0,0,1-4.427-2.849C808.874,828.117,810.542,832.3,812.273,833.92Z" transform="translate(-254.752 -270.158)"/><path class="g" d="M828.834,281.82c.09,2.481-1.6,7.29,3.037,5.949,2.78-.806,3.544-4.08,7.054-3.35s4.316,5.053,5.5,7.881a15.074,15.074,0,0,0,10.925,8.833,6.568,6.568,0,0,0,3.009,0c2.266-.646,3.558-2.982,4.483-5.143a41.124,41.124,0,0,0,1.981-5.643,24.018,24.018,0,0,0,.7-4.17h0a18.747,18.747,0,0,0,0-2.863c-.424-5.636-3.628-10.779-7.742-14.671s-9.1-6.693-14.025-9.466a20.421,20.421,0,0,0-5.178-2.307,17.333,17.333,0,0,0-5.463-.222,18.848,18.848,0,0,0-6.95,1.633A9.838,9.838,0,0,0,823.719,260a7.325,7.325,0,0,0-2.085,3.537c-.89,3.649,1.432,6.95,3.322,9.806C826.631,275.913,828.709,278.63,828.834,281.82Z" transform="translate(-258.254 -100.156)"/><path class="w" d="M719.77,364.34c.994-2.5,5.164-9.4,3.954-11.78a31.42,31.42,0,0,0-3.169,5.664C719.77,360.156,720.409,362.749,719.77,364.34Z" transform="translate(-227.245 -129.447)"/><path class="w" d="M824.8,274.664c-1.89-2.884-4.219-6.165-3.329-9.806a7.721,7.721,0,0,1,2.7-4.038,6.712,6.712,0,0,0-.7,1.7c-.89,3.642,1.439,6.95,3.329,9.806,1.675,2.558,3.753,5.275,3.878,8.465.09,2.474-1.605,7.29,3.037,5.949,2.78-.8,3.544-4.08,7.054-3.343s4.309,5.046,5.5,7.874a15.1,15.1,0,0,0,10.953,8.833,6.567,6.567,0,0,0,3.009,0,4.494,4.494,0,0,0,1.39-.695,6.1,6.1,0,0,1-3.433,3.03,6.568,6.568,0,0,1-3.009,0,15.1,15.1,0,0,1-10.911-8.833c-1.189-2.829-1.96-7.138-5.5-7.881s-4.288,2.551-7.054,3.35c-4.643,1.341-2.947-3.475-3.037-5.949C828.563,279.939,826.478,277.222,824.8,274.664Z" transform="translate(-258.206 -101.466)"/><path class="w" d="M824.2,268.427a21.634,21.634,0,0,0,1.39,2.029,24.861,24.861,0,0,0,3.28,3.4,25.7,25.7,0,0,0,2.217,1.737,35.588,35.588,0,0,0,4.476,2.676,82.2,82.2,0,0,0,14.331,5.129l9.577,2.78c1.174.89,3.329,2.5,5.706,4.17a24.019,24.019,0,0,0,.7-4.17h0a18.746,18.746,0,0,0,0-2.863c-.424-5.636-3.628-10.779-7.742-14.671s-9.1-6.693-14.025-9.466a20.419,20.419,0,0,0-5.178-2.307,17.333,17.333,0,0,0-5.463-.222,18.849,18.849,0,0,0-6.95,1.633A9.834,9.834,0,0,0,824.065,260a9.136,9.136,0,0,0-1.23,2.6C822.293,264.57,823.127,266.683,824.2,268.427Z" transform="translate(-258.629 -100.156)"/><path class="v" d="M824.206,265.507a21.661,21.661,0,0,0,1.39,2.029,24.853,24.853,0,0,0,3.28,3.4,25.691,25.691,0,0,0,2.217,1.737,35.592,35.592,0,0,0,4.476,2.676,82.791,82.791,0,0,0,14.331,5.136l9.577,2.78c3.343,2.53,14.525,10.814,16.409,9.779,2.217-1.216-9.924-9.813-9.924-9.813l-.563.424c1.779-1.119,2.711-3.711,3.114-5.949a30.151,30.151,0,0,0,.09-12.141c-.952-3.961-3.329-7.735-6.95-9.591-1.612-.827-3.565-1.39-4.726-2.662a3.4,3.4,0,0,1-.459-.619,3,3,0,0,1-.181-.327,4.263,4.263,0,0,0-.507-.987c-.7-.771-1.877-.542-2.884-.417l-.32.035h-.542c-3.6.083-7.089-1.925-10.731-1.925-4,0-7.388,2.307-10.9,3.885-.7.32-1.39.612-2.015.91-2.537,1.181-4.448,2.439-5.5,5.8C822.3,261.649,823.136,263.762,824.206,265.507Z" transform="translate(-258.637 -97.882)"/><path class="w" d="M864.843,251.84a1.633,1.633,0,0,0,.375,2.085,2.982,2.982,0,0,0,1.515.542,10.992,10.992,0,0,0,1.175.09,3.232,3.232,0,0,0,1.557-.271,1.39,1.39,0,0,0,.271-.174,3.4,3.4,0,0,1-.459-.619c-.09.069-.181.056-.542,0a8.34,8.34,0,0,1-1.939-.334,1.9,1.9,0,0,1-1.39-1.39Z" transform="translate(-271.425 -98.705)"/><path class="w" d="M881.974,298.056a4.447,4.447,0,0,1-1.654.619,6.7,6.7,0,0,1-1.286.208A7.124,7.124,0,0,1,875.9,298Z" transform="translate(-274.866 -112.806)"/><path class="x" d="M442.129,352.02l-.9-1.988-.361.1.945,1.981,6.811,14.352c-.146.188-2.154,2.592-2.085,4.865a3.274,3.274,0,0,0,.174,1.036c.347,1.015.778,1.425,1.168,1.536v-.174a4.283,4.283,0,0,1,0-.7v-.306a.694.694,0,0,1,0-.118v-.049h0a1.194,1.194,0,0,0,.035-.153h0a.153.153,0,0,1,0-.056s0-.049,0-.069l.083-.3.035-.083.042-.153c.035-.1.069-.2.111-.3a.826.826,0,0,1,.056-.139l.083-.195c.083-.195.181-.382.271-.57a5.747,5.747,0,0,1,.285-.507,12.131,12.131,0,0,1,.917-1.32Zm7.575,24.047h-.042a.862.862,0,0,1-.424,0h-.069a.886.886,0,0,1-.125-.042.98.98,0,0,1-.285-.174l-.1-.1a2.6,2.6,0,0,1-.5-.792,2.55,2.55,0,0,0-.153.813,1.3,1.3,0,0,0,.632,1.216,2.363,2.363,0,0,1,.66.653h0a.048.048,0,0,0,0-.042h0a.2.2,0,0,1,0-.063.119.119,0,0,1,0-.049,3.787,3.787,0,0,1,.3-.827c.069-.132.132-.257.208-.375a1.186,1.186,0,0,1,.09-.16l.063-.1.1-.167A1.237,1.237,0,0,1,449.7,376.067Zm0,0h-.042a.862.862,0,0,1-.424,0h-.069a.886.886,0,0,1-.125-.042.98.98,0,0,1-.285-.174l-.1-.1a2.6,2.6,0,0,1-.5-.792,2.55,2.55,0,0,0-.153.813,1.3,1.3,0,0,0,.632,1.216,2.363,2.363,0,0,1,.66.653h0a.048.048,0,0,0,0-.042h0a.2.2,0,0,1,0-.063.119.119,0,0,1,0-.049,3.787,3.787,0,0,1,.3-.827c.069-.132.132-.257.208-.375a1.186,1.186,0,0,1,.09-.16l.063-.1.1-.167A1.237,1.237,0,0,1,449.7,376.067Zm-7.575-24.047-.9-1.988-.361.1.945,1.981,6.811,14.352c-.146.188-2.154,2.592-2.085,4.865a3.274,3.274,0,0,0,.174,1.036c.347,1.015.778,1.425,1.168,1.536v-.174a4.283,4.283,0,0,1,0-.7.368.368,0,0,1,0-.09s0-.063,0-.1h0a.152.152,0,0,0,0-.056h0v-.035a.174.174,0,0,1,0-.056h0a.388.388,0,0,1,0-.083h0a1.083,1.083,0,0,1,.035-.16.153.153,0,0,1,0-.056s0-.049,0-.069l.083-.3.035-.083.042-.153c.035-.1.069-.2.111-.3a.83.83,0,0,1,.056-.139l.083-.195c.083-.195.181-.382.271-.57a5.743,5.743,0,0,1,.285-.507,12.128,12.128,0,0,1,.917-1.32Zm7.575,24.047h-.042a.862.862,0,0,1-.424,0h-.069a.886.886,0,0,1-.125-.042.98.98,0,0,1-.285-.174l-.1-.1a2.6,2.6,0,0,1-.5-.792,2.55,2.55,0,0,0-.153.813,1.3,1.3,0,0,0,.632,1.216,2.363,2.363,0,0,1,.66.653h0a.048.048,0,0,0,0-.042h0a.2.2,0,0,1,0-.063.119.119,0,0,1,0-.049,3.787,3.787,0,0,1,.3-.827l.146-.285.063-.09a1.186,1.186,0,0,1,.09-.16l.063-.1.1-.167A1.237,1.237,0,0,1,449.7,376.067Zm-7.575-24.047-.9-1.988-.361.1.945,1.981,6.811,14.352c-.146.188-2.154,2.592-2.085,4.865a3.274,3.274,0,0,0,.174,1.036c.347,1.015.778,1.425,1.168,1.536v-.174a4.283,4.283,0,0,1,0-.7.368.368,0,0,1,0-.09s0-.063,0-.1h0a.152.152,0,0,0,0-.056h0a.174.174,0,0,1,0-.056h0a.387.387,0,0,1,0-.083h0a1.079,1.079,0,0,1,.035-.16.153.153,0,0,1,0-.056s0-.049,0-.069l.083-.3.035-.083.042-.153c.035-.1.069-.2.111-.3a.828.828,0,0,1,.056-.139l.083-.195c.083-.195.181-.382.271-.57a5.746,5.746,0,0,1,.285-.507,12.128,12.128,0,0,1,.917-1.32Zm7.575,24.047h-.042a.862.862,0,0,1-.424,0h-.069a.886.886,0,0,1-.125-.042.98.98,0,0,1-.285-.174l-.1-.1a2.6,2.6,0,0,1-.5-.792,2.55,2.55,0,0,0-.153.813,1.3,1.3,0,0,0,.632,1.216,2.363,2.363,0,0,1,.66.653h0a.048.048,0,0,0,0-.042h0a.175.175,0,0,1,0-.056.167.167,0,0,1,0-.056,3.787,3.787,0,0,1,.3-.827l.146-.285.063-.09a1.182,1.182,0,0,1,.09-.16l.063-.1.1-.167A1.237,1.237,0,0,1,449.7,376.067Zm-7.575-24.047-.9-1.988-.361.1.945,1.981,6.811,14.352c-.146.188-2.154,2.592-2.085,4.865a3.274,3.274,0,0,0,.174,1.036c.347,1.015.778,1.425,1.168,1.536v-.174a4.283,4.283,0,0,1,0-.7.368.368,0,0,1,0-.09s0-.063,0-.1h0a.152.152,0,0,0,0-.056h0a.174.174,0,0,1,0-.056h0a.387.387,0,0,1,0-.083h0a1.079,1.079,0,0,1,.035-.16.153.153,0,0,1,0-.056s0-.049,0-.069l.083-.3.035-.083.042-.153c.035-.1.069-.2.111-.3a.828.828,0,0,1,.056-.139l.083-.195c.083-.195.181-.382.271-.57a5.746,5.746,0,0,1,.285-.507,12.128,12.128,0,0,1,.917-1.32Zm7.575,24.047h-.042a.862.862,0,0,1-.424,0h-.069a.886.886,0,0,1-.125-.042.98.98,0,0,1-.285-.174l-.1-.1a2.6,2.6,0,0,1-.5-.792,2.55,2.55,0,0,0-.153.813,1.3,1.3,0,0,0,.632,1.216,2.363,2.363,0,0,1,.66.653h0a.048.048,0,0,0,0-.042h0a.175.175,0,0,1,0-.056.167.167,0,0,1,0-.056,3.787,3.787,0,0,1,.3-.827l.146-.285.063-.09a1.182,1.182,0,0,1,.09-.16l.063-.1.1-.167A1.237,1.237,0,0,1,449.7,376.067Zm-7.575-24.047-.9-1.988-.361.1.945,1.981,6.811,14.352c-.146.188-2.154,2.592-2.085,4.865a3.274,3.274,0,0,0,.174,1.036c.347,1.015.778,1.425,1.168,1.536v-.174a4.283,4.283,0,0,1,0-.7.368.368,0,0,1,0-.09s0-.063,0-.1h0a.152.152,0,0,0,0-.056h0a.174.174,0,0,1,0-.056h0a.387.387,0,0,1,0-.083h0a1.079,1.079,0,0,1,.035-.16.153.153,0,0,1,0-.056s0-.049,0-.069l.083-.3.035-.083.042-.153c.035-.1.069-.2.111-.3a.828.828,0,0,1,.056-.139l.083-.195c.083-.195.181-.382.271-.57a5.746,5.746,0,0,1,.285-.507,12.128,12.128,0,0,1,.917-1.32Zm7.575,24.047h-.042a.862.862,0,0,1-.424,0h-.069a.886.886,0,0,1-.125-.042.98.98,0,0,1-.285-.174l-.1-.1a2.6,2.6,0,0,1-.5-.792,2.55,2.55,0,0,0-.153.813,1.3,1.3,0,0,0,.632,1.216,2.363,2.363,0,0,1,.66.653h0a.048.048,0,0,0,0-.042h0a.175.175,0,0,1,0-.056.167.167,0,0,1,0-.056,3.787,3.787,0,0,1,.3-.827l.146-.285.063-.09a1.182,1.182,0,0,1,.09-.16l.063-.1.1-.167A1.237,1.237,0,0,1,449.7,376.067Zm-7.575-24.047-.9-1.988-.361.1.945,1.981,6.811,14.352c-.146.188-2.154,2.592-2.085,4.865a3.274,3.274,0,0,0,.174,1.036c.347,1.015.778,1.425,1.168,1.536v-.174a4.283,4.283,0,0,1,0-.7.368.368,0,0,1,0-.09s0-.063,0-.1h0a.152.152,0,0,0,0-.056h0a.174.174,0,0,1,0-.056h0a.387.387,0,0,1,0-.083h0a1.079,1.079,0,0,1,.035-.16.153.153,0,0,1,0-.056s0-.049,0-.069l.083-.3.035-.083.042-.153c.035-.1.069-.2.111-.3a.828.828,0,0,1,.056-.139l.083-.195c.083-.195.181-.382.271-.57a5.746,5.746,0,0,1,.285-.507,12.128,12.128,0,0,1,.917-1.32Zm7.575,24.047h-.042a.862.862,0,0,1-.424,0h-.069a.886.886,0,0,1-.125-.042.98.98,0,0,1-.285-.174l-.1-.1a2.6,2.6,0,0,1-.5-.792,2.55,2.55,0,0,0-.153.813,1.3,1.3,0,0,0,.632,1.216,2.363,2.363,0,0,1,.66.653h0a.048.048,0,0,0,0-.042h0a.175.175,0,0,1,0-.056.167.167,0,0,1,0-.056,3.787,3.787,0,0,1,.3-.827l.146-.285.063-.09a1.182,1.182,0,0,1,.09-.16l.063-.1.1-.167A1.237,1.237,0,0,1,449.7,376.067Zm-7.575-24.047-.9-1.988-.361.1.945,1.981,6.811,14.352c-.146.188-2.154,2.592-2.085,4.865a3.274,3.274,0,0,0,.174,1.036c.347,1.015.778,1.425,1.168,1.536v-.174a4.283,4.283,0,0,1,0-.7.368.368,0,0,1,0-.09s0-.063,0-.1h0a.152.152,0,0,0,0-.056h0a.174.174,0,0,1,0-.056h0a.387.387,0,0,1,0-.083h0a1.079,1.079,0,0,1,.035-.16.153.153,0,0,1,0-.056s0-.049,0-.069l.083-.3.035-.083.042-.153c.035-.1.069-.2.111-.3a.828.828,0,0,1,.056-.139l.083-.195c.083-.195.181-.382.271-.57a5.746,5.746,0,0,1,.285-.507,12.128,12.128,0,0,1,.917-1.32Zm7.575,24.047h-.042a.862.862,0,0,1-.424,0h-.069a.886.886,0,0,1-.125-.042.98.98,0,0,1-.285-.174l-.1-.1a2.6,2.6,0,0,1-.5-.792,2.55,2.55,0,0,0-.153.813,1.3,1.3,0,0,0,.632,1.216,2.363,2.363,0,0,1,.66.653h0a.048.048,0,0,0,0-.042h0a.175.175,0,0,1,0-.056.167.167,0,0,1,0-.056,3.787,3.787,0,0,1,.3-.827l.146-.285.063-.09a1.182,1.182,0,0,1,.09-.16l.063-.1.1-.167A1.237,1.237,0,0,1,449.7,376.067Zm-7.575-24.047-.9-1.988-.361.1.945,1.981,6.811,14.352c-.146.188-2.154,2.592-2.085,4.865a3.274,3.274,0,0,0,.174,1.036c.347,1.015.778,1.425,1.168,1.536v-.174a4.283,4.283,0,0,1,0-.7.368.368,0,0,1,0-.09s0-.063,0-.1h0a.152.152,0,0,0,0-.056h0a.174.174,0,0,1,0-.056h0a.387.387,0,0,1,0-.083h0a1.079,1.079,0,0,1,.035-.16.153.153,0,0,1,0-.056s0-.049,0-.069l.083-.3.035-.083.042-.153c.035-.1.069-.2.111-.3a.828.828,0,0,1,.056-.139l.083-.195c.083-.195.181-.382.271-.57a5.746,5.746,0,0,1,.285-.507,12.128,12.128,0,0,1,.917-1.32Zm7.575,24.047h-.042a.862.862,0,0,1-.424,0h-.069a.886.886,0,0,1-.125-.042.98.98,0,0,1-.285-.174l-.1-.1a2.6,2.6,0,0,1-.5-.792,2.55,2.55,0,0,0-.153.813,1.3,1.3,0,0,0,.632,1.216,2.363,2.363,0,0,1,.66.653h0a.048.048,0,0,0,0-.042h0a.175.175,0,0,1,0-.056.167.167,0,0,1,0-.056,3.787,3.787,0,0,1,.3-.827l.146-.285.063-.09a1.182,1.182,0,0,1,.09-.16l.063-.1.1-.167A1.237,1.237,0,0,1,449.7,376.067Zm-7.575-24.047-.9-1.988-.361.1.945,1.981,6.811,14.352c-.146.188-2.154,2.592-2.085,4.865a3.274,3.274,0,0,0,.174,1.036c.347,1.015.778,1.425,1.168,1.536v-.174a4.283,4.283,0,0,1,0-.7.368.368,0,0,1,0-.09s0-.063,0-.1h0a.152.152,0,0,0,0-.056h0a.174.174,0,0,1,0-.056h0a.387.387,0,0,1,0-.083h0a1.079,1.079,0,0,1,.035-.16.153.153,0,0,1,0-.056s0-.049,0-.069l.083-.3.035-.083.042-.153c.035-.1.069-.2.111-.3a.828.828,0,0,1,.056-.139l.083-.195c.083-.195.181-.382.271-.57a5.746,5.746,0,0,1,.285-.507,12.128,12.128,0,0,1,.917-1.32Zm7.575,24.047h-.042a.862.862,0,0,1-.424,0h-.069a.886.886,0,0,1-.125-.042.98.98,0,0,1-.285-.174l-.1-.1a2.6,2.6,0,0,1-.5-.792,2.55,2.55,0,0,0-.153.813,1.3,1.3,0,0,0,.632,1.216,2.363,2.363,0,0,1,.66.653h0a.048.048,0,0,0,0-.042h0a.175.175,0,0,1,0-.056.167.167,0,0,1,0-.056,3.787,3.787,0,0,1,.3-.827l.146-.285.063-.09a1.182,1.182,0,0,1,.09-.16l.063-.1.1-.167A1.237,1.237,0,0,1,449.7,376.067Zm-7.575-24.047-.9-1.988-.361.1.945,1.981,6.811,14.352c-.146.188-2.154,2.592-2.085,4.865a3.274,3.274,0,0,0,.174,1.036c.347,1.015.778,1.425,1.168,1.536v-.174a4.283,4.283,0,0,1,0-.7.368.368,0,0,1,0-.09s0-.063,0-.1h0a.152.152,0,0,0,0-.056h0v-.035a.174.174,0,0,1,0-.056h0a.388.388,0,0,1,0-.083h0a1.083,1.083,0,0,1,.035-.16.153.153,0,0,1,0-.056s0-.049,0-.069l.083-.3.035-.083.042-.153c.035-.1.069-.2.111-.3a.83.83,0,0,1,.056-.139l.083-.195c.083-.195.181-.382.271-.57a5.743,5.743,0,0,1,.285-.507,12.128,12.128,0,0,1,.917-1.32Zm7.575,24.047h-.042a.862.862,0,0,1-.424,0h-.069a.449.449,0,0,1-.125-.042.979.979,0,0,1-.285-.174l-.1-.1a2.6,2.6,0,0,1-.5-.792,2.55,2.55,0,0,0-.153.813,1.3,1.3,0,0,0,.632,1.216,2.363,2.363,0,0,1,.66.653h0a.287.287,0,0,1,0-.111.166.166,0,0,1,0-.056,3.787,3.787,0,0,1,.3-.827l.146-.285.153-.25.063-.1.1-.167A1.239,1.239,0,0,1,449.7,376.067Zm-1.529-4.316c.035-.1.069-.2.111-.3s.035-.1.056-.139a.965.965,0,0,1,.083-.195c.083-.195.181-.382.271-.57a5.722,5.722,0,0,1,.285-.507,12.123,12.123,0,0,1,.917-1.32l-7.735-16.68-.938-2.008-.361.1.945,1.981,6.811,14.352c-.146.188-2.154,2.592-2.085,4.865a3.274,3.274,0,0,0,.174,1.036c.347,1.015.778,1.425,1.168,1.536v-.174a4.283,4.283,0,0,1,0-.7.432.432,0,0,1,0-.09s0-.063,0-.1a1.522,1.522,0,0,1,0-.174h0l.042-.209v-.174l.083-.3A1.376,1.376,0,0,0,448.175,371.751Zm104.6-97.417a5.88,5.88,0,0,0-3.308-2.12,4.963,4.963,0,0,0-3.8.876c.313-.34,2.036-2.217,3.475-4.073,1.71-2.175,3.065-4.33,1.39-3.975-3.232.7-9.2,7.916-9.2,7.916l-1.223,2.182h0l-3.544,6.331-.375.695a19.064,19.064,0,0,0-3.551.438l-.4.535a9.935,9.935,0,0,0-1.807,3.426c-.167,1.39-5.97,3.954-8.34,5.331s-4.6,5.852-4.6,5.852-7.846.7-10.063,2.78c-1.55,1.446-5.338,1.46-7.485,1.334h0l-.549-.035c-.612-.042-.994-.09-.994-.09s-2.217-2.412-3.92-2.585a17.044,17.044,0,0,0-3.239,0s-.9-.3-2.2-.695l-.361-.1c-.306-.083-.632-.174-.98-.257l-.264-.07a4.17,4.17,0,0,0,.354-.438,4.11,4.11,0,0,0,.466-.855h0a3.477,3.477,0,0,0,.215-1.821,5.243,5.243,0,0,0-.73-1.835c-.216-.341-.438-.695-.646-1.022a16.034,16.034,0,0,1-2.141-6.046h0a16.443,16.443,0,0,1,1.571-9.966,23.843,23.843,0,0,1,1.39-2.314l.785-1.105.493-.695.549-.771h0l.528-.744a19.508,19.508,0,0,0,2.009-3.51c.111-.243.195-.493.292-.744a.9.9,0,0,1,.076-.257c.028-.083.111-.341.153-.507s.056-.2.076-.306a3.873,3.873,0,0,0,.111-.473,1.7,1.7,0,0,1,.07-.327c.021-.1.056-.313.076-.466a1.216,1.216,0,0,1,.049-.341l.042-.466a2.627,2.627,0,0,0,0-.327h0V260.8a1.68,1.68,0,0,0-.049-.466c-.049-.16,0-.257-.049-.389a1.558,1.558,0,0,1-.056-.4l-.083-.4a1.655,1.655,0,0,0-.076-.368l-.1-.417a1.509,1.509,0,0,0-.09-.347c-.028-.111-.09-.285-.132-.417a3.171,3.171,0,0,0-.118-.334c-.049-.139-.09-.278-.153-.417s-.083-.2-.118-.3a12.752,12.752,0,0,0-1.459-2.578l-1.015-1.265h0l-.271-.341a1.5,1.5,0,0,0-.1-.181c-.063-.118-.125-.236-.181-.361-.514-1.015-.931-2.085-1.355-3.148-.118-.327-.257-.646-.389-.973,0-.069-.056-.139-.076-.208-.208-.5-.424-.987-.653-1.473-.174-.361-.361-.7-.549-1.07-.063-.111-.125-.215-.181-.327l-.438-.695-.215-.348-.466-.695-.208-.3c-.222-.313-.445-.619-.7-.924h0c-.243-.32-.507-.632-.758-.945l-.208-.236-.6-.7-.236-.264-.632-.695-.215-.222c-.987-1.022-2.029-2.009-3.093-2.975l-.549-.493h0l-1.932-1.717-.695-.577c-.2-.181-.424-.361-.633-.535a17.373,17.373,0,0,0-4.865-3.141,15.519,15.519,0,0,0-7.186-.737,24.456,24.456,0,0,0-10.953,3.829c-.264.167-.514.347-.771.535a20.329,20.329,0,0,0-3.9,3.635c-.195.229-.375.466-.556.695s-.306.424-.459.646a40.517,40.517,0,0,0-3.885,8.27c-3.774,10-7.6,20.328-8.138,30.913a2.775,2.775,0,0,1-.035.535q-.083,2,0,4.024h0a.524.524,0,0,0,0,.1,4.964,4.964,0,0,0,.042.785c.25,3.989,1.042,7.978,1.64,11.954l-.41.146c-4.865,1.849-5.768,5.56-5.768,5.56a.083.083,0,0,1,0,.035h0a5.936,5.936,0,0,1,.07.924,12.948,12.948,0,0,1-1.814,6.422l-.306.514h0c-1.522,2.5-1.814,4.17-1.779,5.205a2.912,2.912,0,0,0,.236,1.154h0v.063a.835.835,0,0,0,0,.125v.063h0a13.9,13.9,0,0,1-2.467,4.378c-1.7,1.9-6.311,20.655-6.311,20.655a3.621,3.621,0,0,1,.306,1.5h0a2.939,2.939,0,0,1-.285,1.2h0a2.147,2.147,0,0,0,.25,1.925h0a7.226,7.226,0,0,0,1.112,1.5s1.029-.34-.7,1.55l-.1.125h0a2,2,0,0,0,.132,2.495,6.754,6.754,0,0,0,1.522,1.515s13.976,24.081,16.874,26.667,5.8,9.292,5.8,9.292.292-.466.771-1.188c.222-.361.514-.785.813-1.244l.89,1.161h0l1.8,2.356-.695,1.355h0a31.666,31.666,0,0,0-1.856,4.17,1.033,1.033,0,0,0-.049.382,1.515,1.515,0,0,0,.459.987c-3.475,4.559-11.745,17.236-11.12,32.845h0v.528a41.867,41.867,0,0,0,4.045,15.721,33.616,33.616,0,0,1,.348,4.719h0a2.132,2.132,0,0,1-.181.931,4.983,4.983,0,0,0,.063,1.918h0c.459,3.426,1.995,10.112,1.995,10.112v3.524c.076,5.97.2,17.688-.049,20.224-.146,1.459-.292,2.634-.41,3.475-.167,1.2-.271,1.828-.271,1.828s-.063.438-.16,1.23c0,.285-.076.612-.118.987-.57,4.7-1.883,16.1-2.662,26.792,0,.466-.07.931-.1,1.39-.4,5.7-.612,11.12-.459,15.04v.591c.042,1,.118,1.9.222,2.669.348,2.5.653,5.442.9,8.493a9.462,9.462,0,0,0,.09.987c.445,5.56.771,11.4.966,15.609v.82a.762.762,0,0,0,0,.181.257.257,0,0,0,0,.076v2.828a10.881,10.881,0,0,0,.042,1.2,7.422,7.422,0,0,0,.042.883v.1h0a.119.119,0,0,1,0,.049v.083l.584,4.865,3.016,24.561.917,7.735,1.96,16.728,7.019-1.327.07.765.236,2.592h0l1.96-.188c0,.25-.035.5-.049.751-.334,5.81-.222,11.69-.222,11.69h.076c2.148.4,4.219.695,6.255.876v6.06h3.246l-.424-5.205-.056-.632h.063a68.576,68.576,0,0,0,12.962-.459l.389-.049.521.6,4.962,5.685a78.27,78.27,0,0,0,18.243-1.39c6.415-1.39,13.115-7.707,13.351-10.084h0c.083-.778-.542-1.133-2.085-.751-4.587,1.126-12.412,0-16.339-.7-.869-2-3.371-7.749-5.317-12.329l-.3-.7c2.87-2.168,5.073-4.934,5.365-6.38.188-.862-.306-1.251-1.737-.758a20.045,20.045,0,0,1-5.261.862h-.7a.883.883,0,0,0,.09-.132c1.39-1.918,1.633-4.552,1.473-7.026a23.923,23.923,0,0,0-.334-2.669h0v-.146a31.694,31.694,0,0,0-.834-3.419.7.7,0,0,0-.063-.215c-.132-.4-.215-.619-.215-.619s1.939-13.566,2.571-23.275a53.7,53.7,0,0,0,.111-7.555h0a.091.091,0,0,0,0-.042,4.17,4.17,0,0,0-.459-1.821,3.767,3.767,0,0,1-.577-1.39.12.12,0,0,0,0-.049c-.862-3.85,1.077-11.815,2.085-13.9a17.842,17.842,0,0,0,.841-2.085,33.441,33.441,0,0,0,1.9-8.444,21.448,21.448,0,0,1,1.022-5.5c3.162-4.545,4.066-10.877,4.281-15.22a41.775,41.775,0,0,0,0-4.921,190.351,190.351,0,0,1,1.056-21.7c.153-1.39.334-2.78.535-4.212.313-2.182.7-4.351,1.14-6.436,1.348-6.255.778-17.465-.278-28.133,0-.313-.063-.619-.09-.924a.26.26,0,0,1,0-.07c-1.056-10.355-2.551-20.016-3.162-23.852h0c-.188-1.105-.292-1.73-.292-1.73a32.768,32.768,0,0,0,1.223-7.464h0a6.8,6.8,0,0,0-.632-3.343,3.063,3.063,0,0,1-.382-1.022h0a.8.8,0,0,1,0-.132,16.683,16.683,0,0,1-.139-3.885h0a13.7,13.7,0,0,1,.111-1.39v-.139l.083-.834c.063-.487.111-.966.181-1.446a5.824,5.824,0,0,0,.591-.292,4.58,4.58,0,0,0,.924-.646c3.093-2.78,3.475-9.9,3-17.138a.265.265,0,0,1,0-.07v-.2a137.456,137.456,0,0,0-2.78-18.07h0a1.2,1.2,0,0,0,0-.153c-.111-.375-.174-.619-.174-.619s0-5.087-.3-9.98a.337.337,0,0,1,0-.083q0-.063,0-.125c-.257-4.031-.7-7.867-1.564-8.569-.5-.417-.806-1.578-.987-3.065V349.8a.707.707,0,0,1,0-.118,69.208,69.208,0,0,1,0-10.2,20.155,20.155,0,0,0,2.676-8.778h0a14.258,14.258,0,0,0-.049-1.675.864.864,0,0,0-.042-.327,4.31,4.31,0,0,0-.076-.535,9.661,9.661,0,0,0-.473-1.87q.876-.153,1.856-.4l.549-.139h0c9.1-2.335,23.379-9.035,26.243-10.015,3.927-1.39,5.115-7.054,5.115-7.054s.361-.306.959-.862a47.261,47.261,0,0,0,7.874-9.57h0a28.318,28.318,0,0,0,2.634-5.49h0a20.4,20.4,0,0,0,.8-2.988,9.462,9.462,0,0,0,.139-.994h0v-.125l.66-.591h0c3.058-2.78,7.464-7.186,8.639-10.5C553.466,276.19,553.459,275.12,552.778,274.334ZM462.255,526.324c-.056,1.591-.167,3.065-.264,4.323h0c-.215,2.481-.445,4.114-.445,4.114a2.846,2.846,0,0,0-.493.535,6.827,6.827,0,0,0-.758,1.515l-.167-4.121S461.192,530.042,462.255,526.324ZM438.07,350.707c-.049-.16-.1-.313-.153-.473h0l.764-.153h0c.646-.125,1.272-.285,1.911-.466l.243.514.945,1.981,6.811,14.352c-.146.188-2.154,2.592-2.085,4.865a3.272,3.272,0,0,0,.174,1.035c.347,1.015.778,1.425,1.168,1.536h0a1.154,1.154,0,0,0,1-.236,5.83,5.83,0,0,0-.7,1.293h0a2.55,2.55,0,0,0-.153.813,1.3,1.3,0,0,0,.632,1.216,2.362,2.362,0,0,1,.66.653h0a3,3,0,0,1,.459,1.348h0v.049h0a3.621,3.621,0,0,1,0,.382c0,.083,0,.153,0,.222l-.91-.271-2.009-.6a2.46,2.46,0,0,1,1.084-.778l-6.2-13.622s-1.314-5.866-3.03-11.662Zm13.9,274.271-.132-.695-.035-.208.271-.049a2.1,2.1,0,0,0,0,.216,3.136,3.136,0,0,0-.125.737ZM442.129,352.02l-.9-1.988-.361.1.945,1.981,6.811,14.352c-.146.188-2.154,2.592-2.085,4.865a3.274,3.274,0,0,0,.174,1.036c.347,1.015.778,1.425,1.168,1.536v-.174a4.283,4.283,0,0,1,0-.7.368.368,0,0,1,0-.09s0-.063,0-.1h0a.152.152,0,0,0,0-.056h0a.062.062,0,0,1,0-.035.173.173,0,0,1,0-.056h0a.388.388,0,0,1,0-.083h0a.6.6,0,0,0,0-.111v-.1h0v-.069l.083-.3.035-.083.042-.153c.035-.1.069-.2.111-.3s.035-.1.056-.139a.972.972,0,0,1,.083-.195c.083-.195.181-.382.271-.57a5.739,5.739,0,0,1,.285-.507,12.124,12.124,0,0,1,.917-1.32Zm7.575,24.047h-.042a.862.862,0,0,1-.424,0h-.069a.886.886,0,0,1-.125-.042.98.98,0,0,1-.285-.174l-.1-.1a2.6,2.6,0,0,1-.5-.792,2.55,2.55,0,0,0-.153.813,1.3,1.3,0,0,0,.632,1.216,2.363,2.363,0,0,1,.66.653h0a.287.287,0,0,1,0-.111.166.166,0,0,1,0-.056,3.787,3.787,0,0,1,.3-.827l.146-.285.063-.09a1.187,1.187,0,0,1,.09-.16l.063-.1.1-.167A1.239,1.239,0,0,1,449.7,376.067Zm-7.575-24.047-.9-1.988-.361.1.945,1.981,6.811,14.352c-.146.188-2.154,2.592-2.085,4.865a3.274,3.274,0,0,0,.174,1.036c.347,1.015.778,1.425,1.168,1.536v-.174a4.283,4.283,0,0,1,0-.7.368.368,0,0,1,0-.09s0-.063,0-.1h0a.152.152,0,0,0,0-.056h0a.174.174,0,0,1,0-.056h0a.387.387,0,0,1,0-.083h0a1.079,1.079,0,0,1,.035-.16.153.153,0,0,1,0-.056s0-.049,0-.069l.083-.3.035-.083.042-.153c.035-.1.069-.2.111-.3a.828.828,0,0,1,.056-.139l.083-.195c.083-.195.181-.382.271-.57a5.746,5.746,0,0,1,.285-.507,12.128,12.128,0,0,1,.917-1.32Zm7.575,24.047h-.042a.862.862,0,0,1-.424,0h-.069a.886.886,0,0,1-.125-.042.98.98,0,0,1-.285-.174l-.1-.1a2.6,2.6,0,0,1-.5-.792,2.55,2.55,0,0,0-.153.813,1.3,1.3,0,0,0,.632,1.216,2.363,2.363,0,0,1,.66.653h0a.048.048,0,0,0,0-.042h0a.175.175,0,0,1,0-.056.167.167,0,0,1,0-.056,3.787,3.787,0,0,1,.3-.827l.146-.285.063-.09a1.182,1.182,0,0,1,.09-.16l.063-.1.1-.167A1.237,1.237,0,0,1,449.7,376.067Zm-7.575-24.047-.9-1.988-.361.1.945,1.981,6.811,14.352c-.146.188-2.154,2.592-2.085,4.865a3.274,3.274,0,0,0,.174,1.036c.347,1.015.778,1.425,1.168,1.536v-.174a4.283,4.283,0,0,1,0-.7.368.368,0,0,1,0-.09s0-.063,0-.1h0a.152.152,0,0,0,0-.056h0a.174.174,0,0,1,0-.056h0a.387.387,0,0,1,0-.083h0a1.079,1.079,0,0,1,.035-.16.153.153,0,0,1,0-.056s0-.049,0-.069l.083-.3.035-.083.042-.153c.035-.1.069-.2.111-.3a.828.828,0,0,1,.056-.139l.083-.195c.083-.195.181-.382.271-.57a5.746,5.746,0,0,1,.285-.507,12.128,12.128,0,0,1,.917-1.32Zm7.575,24.047h-.042a.862.862,0,0,1-.424,0h-.069a.886.886,0,0,1-.125-.042.98.98,0,0,1-.285-.174l-.1-.1a2.6,2.6,0,0,1-.5-.792,2.55,2.55,0,0,0-.153.813,1.3,1.3,0,0,0,.632,1.216,2.363,2.363,0,0,1,.66.653h0a.048.048,0,0,0,0-.042h0a.175.175,0,0,1,0-.056.167.167,0,0,1,0-.056,3.787,3.787,0,0,1,.3-.827l.146-.285.063-.09a1.182,1.182,0,0,1,.09-.16l.063-.1.1-.167A1.237,1.237,0,0,1,449.7,376.067Zm-7.575-24.047-.9-1.988-.361.1.945,1.981,6.811,14.352c-.146.188-2.154,2.592-2.085,4.865a3.274,3.274,0,0,0,.174,1.036c.347,1.015.778,1.425,1.168,1.536v-.174a4.283,4.283,0,0,1,0-.7.368.368,0,0,1,0-.09s0-.063,0-.1h0a.152.152,0,0,0,0-.056h0a.174.174,0,0,1,0-.056h0a.387.387,0,0,1,0-.083h0a1.079,1.079,0,0,1,.035-.16.153.153,0,0,1,0-.056s0-.049,0-.069l.083-.3.035-.083.042-.153c.035-.1.069-.2.111-.3a.828.828,0,0,1,.056-.139l.083-.195c.083-.195.181-.382.271-.57a5.746,5.746,0,0,1,.285-.507,12.128,12.128,0,0,1,.917-1.32Zm7.575,24.047h-.042a.862.862,0,0,1-.424,0h-.069a.886.886,0,0,1-.125-.042.98.98,0,0,1-.285-.174l-.1-.1a2.6,2.6,0,0,1-.5-.792,2.55,2.55,0,0,0-.153.813,1.3,1.3,0,0,0,.632,1.216,2.363,2.363,0,0,1,.66.653h0a.048.048,0,0,0,0-.042h0a.175.175,0,0,1,0-.056.167.167,0,0,1,0-.056,3.787,3.787,0,0,1,.3-.827l.146-.285.063-.09a1.182,1.182,0,0,1,.09-.16l.063-.1.1-.167A1.237,1.237,0,0,1,449.7,376.067Zm-7.575-24.047-.9-1.988-.361.1.945,1.981,6.811,14.352c-.146.188-2.154,2.592-2.085,4.865a3.274,3.274,0,0,0,.174,1.036c.347,1.015.778,1.425,1.168,1.536v-.174a4.283,4.283,0,0,1,0-.7.368.368,0,0,1,0-.09s0-.063,0-.1h0a.152.152,0,0,0,0-.056h0a.174.174,0,0,1,0-.056h0a.387.387,0,0,1,0-.083h0a1.079,1.079,0,0,1,.035-.16.153.153,0,0,1,0-.056s0-.049,0-.069l.083-.3.035-.083.042-.153c.035-.1.069-.2.111-.3a.828.828,0,0,1,.056-.139l.083-.195c.083-.195.181-.382.271-.57a5.746,5.746,0,0,1,.285-.507,12.128,12.128,0,0,1,.917-1.32Zm7.575,24.047h-.042a.862.862,0,0,1-.424,0h-.069a.886.886,0,0,1-.125-.042.98.98,0,0,1-.285-.174l-.1-.1a2.6,2.6,0,0,1-.5-.792,2.55,2.55,0,0,0-.153.813,1.3,1.3,0,0,0,.632,1.216,2.363,2.363,0,0,1,.66.653h0a.048.048,0,0,0,0-.042h0a.175.175,0,0,1,0-.056.167.167,0,0,1,0-.056,3.787,3.787,0,0,1,.3-.827l.146-.285.063-.09a1.182,1.182,0,0,1,.09-.16l.063-.1.1-.167A1.237,1.237,0,0,1,449.7,376.067Zm-7.575-24.047-.9-1.988-.361.1.945,1.981,6.811,14.352c-.146.188-2.154,2.592-2.085,4.865a3.274,3.274,0,0,0,.174,1.036c.347,1.015.778,1.425,1.168,1.536v-.174a4.283,4.283,0,0,1,0-.7.368.368,0,0,1,0-.09s0-.063,0-.1h0a.152.152,0,0,0,0-.056h0a.174.174,0,0,1,0-.056h0a.387.387,0,0,1,0-.083h0a1.079,1.079,0,0,1,.035-.16.153.153,0,0,1,0-.056s0-.049,0-.069l.083-.3.035-.083.042-.153c.035-.1.069-.2.111-.3a.828.828,0,0,1,.056-.139l.083-.195c.083-.195.181-.382.271-.57a5.746,5.746,0,0,1,.285-.507,12.128,12.128,0,0,1,.917-1.32Zm7.575,24.047h-.042a.862.862,0,0,1-.424,0h-.069a.886.886,0,0,1-.125-.042.98.98,0,0,1-.285-.174l-.1-.1a2.6,2.6,0,0,1-.5-.792,2.55,2.55,0,0,0-.153.813,1.3,1.3,0,0,0,.632,1.216,2.363,2.363,0,0,1,.66.653h0a.048.048,0,0,0,0-.042h0a.175.175,0,0,1,0-.056.167.167,0,0,1,0-.056,3.787,3.787,0,0,1,.3-.827l.146-.285.063-.09a1.182,1.182,0,0,1,.09-.16l.063-.1.1-.167A1.237,1.237,0,0,1,449.7,376.067Zm-7.575-24.047-.9-1.988-.361.1.945,1.981,6.811,14.352c-.146.188-2.154,2.592-2.085,4.865a3.274,3.274,0,0,0,.174,1.036c.347,1.015.778,1.425,1.168,1.536v-.174a4.283,4.283,0,0,1,0-.7.368.368,0,0,1,0-.09s0-.063,0-.1h0a.152.152,0,0,0,0-.056h0a.174.174,0,0,1,0-.056h0a.387.387,0,0,1,0-.083h0a1.079,1.079,0,0,1,.035-.16.153.153,0,0,1,0-.056s0-.049,0-.069l.083-.3.035-.083.042-.153c.035-.1.069-.2.111-.3a.828.828,0,0,1,.056-.139l.083-.195c.083-.195.181-.382.271-.57a5.746,5.746,0,0,1,.285-.507,12.128,12.128,0,0,1,.917-1.32Zm7.575,24.047h-.042a.862.862,0,0,1-.424,0h-.069a.886.886,0,0,1-.125-.042.98.98,0,0,1-.285-.174l-.1-.1a2.6,2.6,0,0,1-.5-.792,2.55,2.55,0,0,0-.153.813,1.3,1.3,0,0,0,.632,1.216,2.363,2.363,0,0,1,.66.653h0a.048.048,0,0,0,0-.042h0a.175.175,0,0,1,0-.056.167.167,0,0,1,0-.056,3.787,3.787,0,0,1,.3-.827l.146-.285.063-.09a1.182,1.182,0,0,1,.09-.16l.063-.1.1-.167A1.237,1.237,0,0,1,449.7,376.067Zm-7.575-24.047-.9-1.988-.361.1.945,1.981,6.811,14.352c-.146.188-2.154,2.592-2.085,4.865a3.274,3.274,0,0,0,.174,1.036c.347,1.015.778,1.425,1.168,1.536v-.174a4.283,4.283,0,0,1,0-.7.368.368,0,0,1,0-.09s0-.063,0-.1h0a.152.152,0,0,0,0-.056h0a.174.174,0,0,1,0-.056h0a.387.387,0,0,1,0-.083h0a1.079,1.079,0,0,1,.035-.16.153.153,0,0,1,0-.056s0-.049,0-.069l.083-.3.035-.083.042-.153c.035-.1.069-.2.111-.3a.828.828,0,0,1,.056-.139l.083-.195c.083-.195.181-.382.271-.57a5.746,5.746,0,0,1,.285-.507,12.128,12.128,0,0,1,.917-1.32Zm7.575,24.047h-.042a.862.862,0,0,1-.424,0h-.069a.886.886,0,0,1-.125-.042.98.98,0,0,1-.285-.174l-.1-.1a2.6,2.6,0,0,1-.5-.792,2.55,2.55,0,0,0-.153.813,1.3,1.3,0,0,0,.632,1.216,2.363,2.363,0,0,1,.66.653h0a.048.048,0,0,0,0-.042h0a.175.175,0,0,1,0-.056.167.167,0,0,1,0-.056,3.787,3.787,0,0,1,.3-.827l.146-.285.063-.09a1.182,1.182,0,0,1,.09-.16l.063-.1.1-.167A1.237,1.237,0,0,1,449.7,376.067Zm-7.575-24.047-.9-1.988-.361.1.945,1.981,6.811,14.352c-.146.188-2.154,2.592-2.085,4.865a3.274,3.274,0,0,0,.174,1.036c.347,1.015.778,1.425,1.168,1.536v-.174a4.283,4.283,0,0,1,0-.7.368.368,0,0,1,0-.09s0-.063,0-.1h0a.152.152,0,0,0,0-.056h0a.174.174,0,0,1,0-.056h0a.387.387,0,0,1,0-.083h0a1.079,1.079,0,0,1,.035-.16.153.153,0,0,1,0-.056s0-.049,0-.069l.083-.3.035-.083.042-.153c.035-.1.069-.2.111-.3a.828.828,0,0,1,.056-.139l.083-.195c.083-.195.181-.382.271-.57a5.746,5.746,0,0,1,.285-.507,12.128,12.128,0,0,1,.917-1.32Zm7.575,24.047h-.042a.862.862,0,0,1-.424,0h-.069a.886.886,0,0,1-.125-.042.98.98,0,0,1-.285-.174l-.1-.1a2.6,2.6,0,0,1-.5-.792,2.55,2.55,0,0,0-.153.813,1.3,1.3,0,0,0,.632,1.216,2.363,2.363,0,0,1,.66.653h0a.048.048,0,0,0,0-.042h0a.2.2,0,0,1,0-.063.119.119,0,0,1,0-.049,3.787,3.787,0,0,1,.3-.827c.069-.132.132-.257.208-.375a1.186,1.186,0,0,1,.09-.16l.063-.1.1-.167A1.237,1.237,0,0,1,449.7,376.067Zm-7.575-24.047-.9-1.988-.361.1.945,1.981,6.811,14.352c-.146.188-2.154,2.592-2.085,4.865a3.274,3.274,0,0,0,.174,1.036c.347,1.015.778,1.425,1.168,1.536v-.174a4.283,4.283,0,0,1,0-.7.368.368,0,0,1,0-.09s0-.063,0-.1h0a.152.152,0,0,0,0-.056h0v-.035a.174.174,0,0,1,0-.056h0a.388.388,0,0,1,0-.083h0a1.083,1.083,0,0,1,.035-.16.153.153,0,0,1,0-.056s0-.049,0-.069l.083-.3.035-.083.042-.153c.035-.1.069-.2.111-.3a.83.83,0,0,1,.056-.139l.083-.195c.083-.195.181-.382.271-.57a5.743,5.743,0,0,1,.285-.507,12.128,12.128,0,0,1,.917-1.32Zm7.575,24.047h-.042a.862.862,0,0,1-.424,0h-.069a.886.886,0,0,1-.125-.042.98.98,0,0,1-.285-.174l-.1-.1a2.6,2.6,0,0,1-.5-.792,2.55,2.55,0,0,0-.153.813,1.3,1.3,0,0,0,.632,1.216,2.363,2.363,0,0,1,.66.653h0a.048.048,0,0,0,0-.042h0a.2.2,0,0,1,0-.063.119.119,0,0,1,0-.049,3.787,3.787,0,0,1,.3-.827c.069-.132.132-.257.208-.375a1.186,1.186,0,0,1,.09-.16l.063-.1.1-.167A1.237,1.237,0,0,1,449.7,376.067Z" transform="translate(-134.797 -91.545)"/><path class="y" d="M490.961,783.564s10.425,1.279,15.45-.459-1.557,7.471-8.389,9.653a65.246,65.246,0,0,1-14.831,2.516l-8.034-7.555-8.527.653,1.487,8.34-2.648.25-1.029-10.939Z" transform="translate(-149.366 -260.702)"/><path class="w" d="M490.961,783.564s10.425,1.279,15.45-.459-1.557,7.471-8.389,9.653a65.246,65.246,0,0,1-14.831,2.516l-8.034-7.555-8.527.653,1.487,8.34-2.648.25-1.029-10.939Z" transform="translate(-149.366 -260.702)"/><path class="y" d="M509.96,811.34s12.475,2.731,18.765,1.2-2.731,8.889-11.28,10.765a80.479,80.479,0,0,1-18.292,1.39l-8.847-10.112-10.425-.174.855,10.321H477.49V811.34Z" transform="translate(-153.347 -269.38)"/><path class="w" d="M509.96,811.34s12.475,2.731,18.765,1.2-2.731,8.889-11.28,10.765a80.479,80.479,0,0,1-18.292,1.39l-8.847-10.112-10.425-.174.855,10.321H477.49V811.34Z" transform="translate(-153.347 -269.38)"/><path class="u" d="M452.261,469.75S430.9,493.5,443.713,520.338c0,0,.695,4.789.174,5.643s2.05,11.961,2.05,11.961.348,20.155,0,23.588-.695,5.3-.695,5.3-4.775,37.231-3.239,48.35,2.224,30.934,2.224,30.934l6.324,53.327,32.817-6.151L468.5,620.132l-.514-12.989s6.158-15.894,3.419-23.928.7-110.413.7-110.413Z" transform="translate(-141.796 -165.191)"/><path class="s" d="M452.261,469.75S430.9,493.5,443.713,520.338c0,0,.695,4.789.174,5.643s2.05,11.961,2.05,11.961.348,20.155,0,23.588-.695,5.3-.695,5.3-4.775,37.231-3.239,48.35,2.224,30.934,2.224,30.934l6.324,53.327,32.817-6.151L468.5,620.132l-.514-12.989s6.158-15.894,3.419-23.928.7-110.413.7-110.413Z" transform="translate(-141.796 -165.191)"/><path class="u" d="M471.358,584.994c3.76,7.179,1.39,24.61,1.39,24.61-4.955,4.274-2.224,41.533-2.224,41.533s-3.419,36.751-5.636,41S463,714.018,463,714.018c25.124,4.615,41.533-5.3,41.533-5.3s-8.034-18.292-8.2-19.14c-.1-.479-1.161.82-1.48,1.2.167-.229.6-.827,1.48-2.085,3.419-4.789,0-14.018,0-14.018s4.274-29.739,2.224-32.477.341-12.816,1.536-15.206a33.679,33.679,0,0,0,2.731-10.425,21.046,21.046,0,0,1,1.029-5.463c5.3-7.527,4.274-20,4.274-20s-.34-17.945,2.731-32.129-3.836-54.355-3.836-54.355,2.3-7.86.591-10.765c-.771-1.307-.695-4.385-.334-7.367.417-3.649,1.188-7.158,1.188-7.158l-46.627-8.277c-.98,1.633-1.876,3.218-2.7,4.74-15.422,28.495-5.025,39.086-5.025,39.086l9.9,30.5S467.585,577.821,471.358,584.994Z" transform="translate(-145.172 -165.588)"/><path class="z" d="M586.92,305.428l6.665,5.657s1.307-1.043,3.058-2.606c4.17-3.767,10.925-10.585,8.4-13.476-3.475-3.948-6.95-1.39-7.165-1.209.375-.4,8.11-8.687,4.941-8.02s-9.229,7.867-9.229,7.867L588.8,302.1Z" transform="translate(-186.724 -109.065)"/><path class="z" d="M445.035,415.35l7.86,2.391-5.977,10.425-6.839-8.889Z" transform="translate(-134.229 -126.686)"/><circle class="z" cx="22.393" cy="22.393" r="22.393" transform="translate(306.873 145.941)"/><path class="z" d="M484.52,282.722S464.178,315,483.492,317.784s-25.979,22.393-25.979,22.393l-16.923-17.09s17.6-30.427,14.873-42.047S484.52,282.722,484.52,282.722Z" transform="translate(-142.092 -106.181)"/><path class="w" d="M462.82,475.86a105.851,105.851,0,0,0,13.782,3.19s25.186,11.182,34.36,7.506c.417-3.649,1.188-7.158,1.188-7.158l-46.627-8.277C464.544,472.753,463.64,474.338,462.82,475.86Z" transform="translate(-148.872 -165.609)"/><path class="v" d="M429.418,347.256l4.552,9.417,5.143,10.606.695,1.515,6.1,13.2,7.749,16.735s-2.738,3.246-1.883,5.81c.8,2.4,2.05,1.355,2.21,1.209-.146.2-1.8,2.426-.327,3.405s1.022,3.246,1.022,3.246-6.324,10.425-7.52,14.185S466.3,433.6,466.3,433.6s28.884,12.816,36.063,6.491,0-36.063,0-36.063,0-17.09-1.883-18.626-.987-13.385-.987-13.385c4.955-9.035,1.536-14.185,1.536-14.185l1.39-23.24s-2.224-2.4-3.934-2.564a17.089,17.089,0,0,0-3.246,0s-.9-.306-2.2-.7c-2.738-.778-7.283-1.856-8.91-1.042-2.391,1.2-17.771-1.883-17.771-1.883a188.148,188.148,0,0,0-20-1.876,19.792,19.792,0,0,0-6.783.737c-5.56,1.717-6.547,5.755-6.547,5.755s.7,3.419-2.05,7.86S429.418,347.256,429.418,347.256Z" transform="translate(-138.606 -121.496)"/><path class="w" d="M586.92,312.6l6.665,5.657s1.307-1.042,3.058-2.606c.528-5.768-4.385-6.533-7.846-6.38Z" transform="translate(-186.724 -116.239)"/><path class="v" d="M528.583,329.485l2.905.174s6.832.848,9.035-1.2,10.084-2.731,10.084-2.731,2.224-4.448,4.615-5.81,8.208-3.934,8.34-5.3,2.224-3.927,2.224-3.927,12.816-3.079,10.939,7.005-12.253,18.792-12.253,18.792-1.2,5.643-5.129,7.012-29.4,13.33-33.5,10.251S528.583,329.485,528.583,329.485Z" transform="translate(-167.696 -116.54)"/><path class="w" d="M430.959,340.928c2.731-4.441,2.05-7.86,2.05-7.86s.987-4.038,6.547-5.755a16.907,16.907,0,0,1,3.329-.653c-5.477,1.737-6.456,5.727-6.456,5.727s.695,3.419-2.05,7.86-1.543,6.324-1.543,6.324l4.559,9.417,5.136,10.6.737,1.522,6.1,13.17,7.749,16.735s-2.738,3.253-1.883,5.817c.8,2.4,2.05,1.348,2.21,1.209-.146.195-1.8,2.426-.327,3.405s1.022,3.246,1.022,3.246-6.324,10.425-7.52,14.185,19.147,7.005,19.147,7.005,20.057,8.9,30.9,8.208c-9.216,3.614-34.319-7.52-34.319-7.52s-20.342-3.253-19.147-7.012,7.52-14.178,7.52-14.178.514-2.224-1.022-3.246.181-3.2.327-3.405c-.16.146-1.39,1.188-2.21-1.209-.855-2.565,1.883-5.81,1.883-5.81l-7.749-16.742-6.1-13.2-.7-1.515-5.143-10.606-4.552-9.417S428.221,345.376,430.959,340.928Z" transform="translate(-138.611 -121.548)"/><path class="v" d="M428.689,352.68l-3.072,2.565a14.116,14.116,0,0,1-2.565,4.615c-1.71,1.883-6.324,20.509-6.324,20.509a3.322,3.322,0,0,1,0,2.738c-.695,1.39,1.39,3.419,1.39,3.419s1.022-.341-.7,1.536,1.543,4.114,1.543,4.114,14.011,23.915,16.916,26.479,5.81,9.229,5.81,9.229,6.088-9.549,7.52-9.73l-5.977-13.5s-4.107-18.806-7.179-22.24,1.536-15.22,1.536-15.22Z" transform="translate(-134.77 -129.484)"/><path class="w" d="M430.165,379.575c2.571,3.086,7.082,3.739,11.071,3.287.584-.069,1.175-.16,1.751-.271a25.48,25.48,0,0,0,2.592-.6,27.021,27.021,0,0,0,8.493-4.17,5.837,5.837,0,0,1,1.9-1.1c1.6-.4,3.183.785,4.052,2.175s1.279,3.03,2.168,4.406c1.751,2.731,5.143,4.045,8.4,4.121s6.408-.9,9.507-1.863c-2.509-3.086-5.08-6.3-6.1-10.14a24.011,24.011,0,0,1-.48-7.645c.737-12.093,4.934-24.839,14.8-31.886,1.71-1.216,3.774-2.655,4.344-4.5-2.738-.778-7.284-1.856-8.91-1.043-2.391,1.2-17.771-1.883-17.771-1.883a188.125,188.125,0,0,0-20-1.876,19.793,19.793,0,0,0-6.783.737c.841,5.136,1.571,10.244.563,15.29a34.242,34.242,0,0,1-3.385,9c-.876,1.7-1.821,3.378-2.78,5.059-2.6,4.677-5.08,9.368-5.56,14.595C427.83,374.216,428.3,377.337,430.165,379.575Z" transform="translate(-138.248 -121.511)"/><path class="w" d="M476.679,437.165a12.073,12.073,0,0,0-4-.348,7.366,7.366,0,0,0-3,1.744l8.785.049c2.259,0,5.664.139,7.395-1.46C484.275,435.581,478.937,437.457,476.679,437.165Z" transform="translate(-150.965 -155.055)"/><path class="g" d="M494.129,258.784a13.267,13.267,0,0,1,1.522,12.871c-1.39,3.3-4.121,5.887-5.782,9.07a16.346,16.346,0,0,0,.556,15.832,7.994,7.994,0,0,1,1.39,2.842c.4,2.606-2.3,4.476-4.448,6.012-9.869,7.033-14.06,19.786-14.8,31.886a23.978,23.978,0,0,0,.473,7.645c1.022,3.843,3.6,7.054,6.109,10.14-3.1.966-6.255,1.939-9.514,1.863s-6.637-1.39-8.4-4.121c-.89-1.39-1.307-3.016-2.168-4.406s-2.453-2.571-4.038-2.175a5.642,5.642,0,0,0-1.911,1.091,27.042,27.042,0,0,1-12.843,5.053c-3.989.459-8.5-.2-11.064-3.287-1.863-2.245-2.342-5.358-2.085-8.263.89-10.348,9.653-18.487,11.683-28.675,1.64-8.256-1.334-16.68-1.876-25.061-.813-12.419,3.7-24.505,8.138-36.139a38.359,38.359,0,0,1,3.892-8.215c3.718-5.449,10.147-8.715,16.68-9.368a15.616,15.616,0,0,1,7.207.695,21.877,21.877,0,0,1,6.178,4.232c4.239,3.676,8.6,7.506,11.036,12.565.994,2.085,1.647,4.288,2.78,6.3Z" transform="translate(-137.967 -93.049)"/><g class="aa" transform="translate(290.388 149.555)"><path d="M514.984,258.361c-1.112-2.009-1.758-4.232-2.78-6.3a25.234,25.234,0,0,0-3.544-5.344,30,30,0,0,1,6.255,8.263c.966,2,1.612,4.17,2.662,6.123l-1.348-1.14a11.36,11.36,0,0,1,.945,1.48,15.293,15.293,0,0,1-2.189-3.086Z" transform="translate(-453.242 -246.72)"/><path d="M438.094,397.692a26.932,26.932,0,0,0,12.843-5.046,5.782,5.782,0,0,1,1.911-1.091c1.591-.4,3.176.785,4.045,2.175.181.292.341.6.493.917a2.781,2.781,0,0,0-1.8-.174,5.642,5.642,0,0,0-1.911,1.091,27.042,27.042,0,0,1-12.843,5.053c-3.989.459-8.5-.2-11.064-3.287a8.614,8.614,0,0,1-.848-1.272C431.505,397.72,434.959,398.053,438.094,397.692Z" transform="translate(-428.92 -290.872)"/><path d="M481.741,364.57c3.246.076,6.408-.9,9.508-1.863-2.509-3.086-5.08-6.3-6.1-10.14a23.985,23.985,0,0,1-.479-7.645c.737-12.1,4.934-24.853,14.8-31.886,2.148-1.536,4.865-3.405,4.448-6.019a8.137,8.137,0,0,0-1.39-2.836,16.346,16.346,0,0,1-.563-15.832c1.668-3.183,4.378-5.768,5.789-9.077a13.316,13.316,0,0,0-.584-11.384,15.951,15.951,0,0,0,1.5,1.39,15.294,15.294,0,0,0,1.237,1.515,13.309,13.309,0,0,1,.577,11.391c-1.39,3.3-4.121,5.887-5.782,9.07a16.346,16.346,0,0,0,.556,15.832,7.993,7.993,0,0,1,1.39,2.842c.4,2.606-2.3,4.476-4.448,6.012-9.869,7.033-14.06,19.786-14.8,31.886a23.978,23.978,0,0,0,.473,7.645c1.022,3.843,3.6,7.054,6.109,10.14-3.1.966-6.255,1.939-9.514,1.863s-6.637-1.39-8.4-4.121c-.118-.181-.222-.368-.327-.556A11.655,11.655,0,0,0,481.741,364.57Z" transform="translate(-443.204 -253.177)"/></g><path class="ab" d="M308.559,179.57v14.595H245.19q2.9-4.017,5.921-7.923c.278-.361.556-.7.848-1.077l2.968-3.732h0l.41-.507h0l1.077-1.314Z" transform="translate(-82.493 -76.684)"/><rect class="ab" width="66.587" height="14.581" transform="translate(290.596 102.886)"/><rect class="ab" width="66.587" height="14.581" transform="translate(443.529 102.886)"/><rect class="ab" width="66.587" height="14.581" transform="translate(572.873 102.886)"/></g></svg>