<svg xmlns="http://www.w3.org/2000/svg" width="581.345" height="481.285" viewBox="0 0 581.345 481.285"><defs><style>.a,.i{fill:#6c63ff;}.a,.d{opacity:0.1;}.b{fill:#3f3d56;}.c{fill:#6393f4;}.e{fill:#444053;}.f{fill:#fff;}.g{opacity:0.3;}.h{fill:none;stroke:#444053;stroke-miterlimit:10;stroke-width:3px;}</style></defs><g transform="translate(0)"><ellipse class="a" cx="12.576" cy="30.531" rx="12.576" ry="30.531" transform="translate(516.496 438.108) rotate(-45)"/><ellipse class="b" cx="6.75" cy="8.839" rx="6.75" ry="8.839" transform="translate(542.384 435.12)"/><ellipse class="b" cx="6.75" cy="8.839" rx="6.75" ry="8.839" transform="translate(542.384 424.318)"/><ellipse class="b" cx="6.75" cy="8.839" rx="6.75" ry="8.839" transform="translate(542.384 413.516)"/><ellipse class="b" cx="6.75" cy="8.839" rx="6.75" ry="8.839" transform="translate(542.384 402.714)"/><ellipse class="b" cx="6.75" cy="8.839" rx="6.75" ry="8.839" transform="translate(542.384 391.913)"/><ellipse class="b" cx="6.75" cy="8.839" rx="6.75" ry="8.839" transform="translate(542.384 381.111)"/><ellipse class="b" cx="6.75" cy="8.839" rx="6.75" ry="8.839" transform="translate(542.384 370.309)"/><path class="c" d="M1016.842,527.463a32.16,32.16,0,0,0,2.516-3.7l-17.741-2.913,19.188.138a32.424,32.424,0,0,0,.629-25.623L995.7,508.722l23.724-17.451a32.342,32.342,0,1,0-53.411,36.192,32.19,32.19,0,0,0-3.687,5.895l23.025,11.953-24.535-8.241a32.367,32.367,0,0,0,5.215,30.367,32.336,32.336,0,1,0,50.831,0,32.342,32.342,0,0,0,0-39.986Z" transform="translate(-442.436 -222.234)"/><path class="d" d="M959.1,589.829a32.184,32.184,0,0,0,6.92,19.993,32.336,32.336,0,1,0,50.832,0C1021.186,604.324,959.1,586.2,959.1,589.829Z" transform="translate(-442.446 -264.608)"/><path class="e" d="M558.042,0V452.955l-153.5-21.39-186.6,38.067-1.5.308L67.97,429.049V35.23L222.1,0,390.7,35.23l6.411-1.353Z" transform="translate(-25.05)"/><path class="f" d="M547.455,39.32V444.595l-137.34-19.137-166.958,34.06-1.346.271L108.97,423.205V70.838L246.882,39.32,397.729,70.838l5.737-1.208Z" transform="translate(-40.257 -14.584)"/><path class="d" d="M492.958,431.565l-186.6,38.067L310.518,0l168.6,35.23,6.411-1.353Z" transform="translate(-113.468)"/><g class="g" transform="translate(55.502 86.816)"><path class="h" d="M573.35,138l.075,131.8h54.732v-54.1h93.737L732.9,201.577" transform="translate(-267.996 -138)"/><path class="h" d="M88.97,201.162H292.485l12.582-5.662H310.1V322.579h88.074l3.775,11.324v57.248h67.943v70.774" transform="translate(-88.341 -159.327)"/><line class="h" y1="139.346" transform="translate(248.641 163.252)"/><line class="h" x1="216.267" transform="translate(248.641 265.268)"/><line class="h" y2="302.599" transform="translate(410.742)"/><line class="h" x2="464.908" transform="translate(0 238.518)"/><line class="h" y1="302.599" transform="translate(56.582)"/><line class="h" y2="302.599" transform="translate(164.649)"/><line class="h" x2="359.533" y2="1.258" transform="translate(0.629 76.436)"/><line class="h" y2="302.052" transform="translate(105.268 0.547)"/><path class="h" d="M87.97,370.82H252.619l83.992,92.05" transform="translate(-87.97 -224.352)"/><line class="h" y2="163.252" transform="translate(266.834)"/><line class="h" x2="216.267" transform="translate(248.641 192.493)"/></g><path class="c" d="M548.509,425.5H484.97V397.814l60.079-.315,3.775,10.695Z" transform="translate(-179.714 -147.431)"/><path class="i" d="M653.567,287.15a34.777,34.777,0,0,0-34.777,34.777c0,19.207,34.777,81.607,34.777,81.607s34.777-62.376,34.777-81.607A34.777,34.777,0,0,0,653.567,287.15Zm0,49.611a15.3,15.3,0,1,0,0-.006Z" transform="translate(-316.226 -152.522)"/><path class="d" d="M653.567,287.15a34.777,34.777,0,0,0-34.777,34.777c0,19.207,34.777,81.607,34.777,81.607s34.777-62.376,34.777-81.607A34.777,34.777,0,0,0,653.567,287.15Zm0,49.611a15.3,15.3,0,1,0,0-.006Z" transform="translate(-316.226 -152.522)"/><path class="c" d="M653.567,295.15a34.777,34.777,0,0,0-34.777,34.777c0,19.207,34.777,81.607,34.777,81.607s34.777-62.376,34.777-81.607A34.777,34.777,0,0,0,653.567,295.15Zm0,49.611a15.3,15.3,0,1,0,0-.006Z" transform="translate(-316.226 -155.489)"/><ellipse class="a" cx="21.044" cy="8.669" rx="21.044" ry="8.669" transform="translate(299.371 461.758) rotate(-23.3)"/><ellipse class="b" cx="4.655" cy="6.09" rx="4.655" ry="6.09" transform="translate(317.222 451.879)"/><ellipse class="b" cx="4.655" cy="6.09" rx="4.655" ry="6.09" transform="translate(317.222 444.43)"/><ellipse class="b" cx="4.655" cy="6.09" rx="4.655" ry="6.09" transform="translate(317.222 436.988)"/><ellipse class="b" cx="4.655" cy="6.09" rx="4.655" ry="6.09" transform="translate(317.222 429.546)"/><ellipse class="b" cx="4.655" cy="6.09" rx="4.655" ry="6.09" transform="translate(317.222 422.097)"/><ellipse class="b" cx="4.655" cy="6.09" rx="4.655" ry="6.09" transform="translate(317.222 414.655)"/><ellipse class="b" cx="4.655" cy="6.09" rx="4.655" ry="6.09" transform="translate(317.222 407.212)"/><path class="c" d="M618.986,627.859a22.722,22.722,0,0,1-1.736-2.516l12.23-2.013-13.211.1a22.358,22.358,0,0,1-.428-17.659l17.741,9.172-16.357-12.029a22.289,22.289,0,1,1,36.809,24.944,22.364,22.364,0,0,1,2.516,4.064l-15.859,8.248,16.923-5.662a22.3,22.3,0,0,1-3.592,20.93,22.289,22.289,0,1,1-35.035,0,22.3,22.3,0,0,1,0-27.561Z" transform="translate(-314.529 -265.508)"/><path class="d" d="M658.79,670.81a22.2,22.2,0,0,1-4.769,13.784,22.289,22.289,0,1,1-35.035,0C616,680.819,658.79,668.331,658.79,670.81Z" transform="translate(-314.529 -294.7)"/><ellipse class="a" cx="12.576" cy="30.531" rx="12.576" ry="30.531" transform="translate(0 424.268) rotate(-45)"/><ellipse class="b" cx="6.75" cy="8.839" rx="6.75" ry="8.839" transform="translate(25.89 421.279)"/><ellipse class="b" cx="6.75" cy="8.839" rx="6.75" ry="8.839" transform="translate(25.89 410.477)"/><ellipse class="b" cx="6.75" cy="8.839" rx="6.75" ry="8.839" transform="translate(25.89 399.676)"/><ellipse class="b" cx="6.75" cy="8.839" rx="6.75" ry="8.839" transform="translate(25.89 388.874)"/><ellipse class="b" cx="6.75" cy="8.839" rx="6.75" ry="8.839" transform="translate(25.89 378.072)"/><ellipse class="b" cx="6.75" cy="8.839" rx="6.75" ry="8.839" transform="translate(25.89 367.271)"/><ellipse class="b" cx="6.75" cy="8.839" rx="6.75" ry="8.839" transform="translate(25.89 356.469)"/><path class="c" d="M195.842,505.463a32.165,32.165,0,0,0,2.516-3.7l-17.741-2.913,19.188.138a32.424,32.424,0,0,0,.629-25.623L174.7,486.722l23.724-17.451a32.342,32.342,0,1,0-53.411,36.192,32.181,32.181,0,0,0-3.687,5.895l23.025,11.953-24.535-8.241a32.367,32.367,0,0,0,5.215,30.367,32.336,32.336,0,1,0,50.832,0,32.342,32.342,0,0,0,0-39.986Z" transform="translate(-137.93 -214.074)"/><path class="d" d="M138.1,567.829a32.185,32.185,0,0,0,6.92,19.993,32.336,32.336,0,1,0,50.832,0C200.186,582.324,138.1,564.2,138.1,567.829Z" transform="translate(-137.94 -256.448)"/></g></svg>